<svg viewBox="0 0 1513 400" xmlns="http://www.w3.org/2000/svg"><g><g><g><g><g><line x1="48.875" y1="377.828125" x2="43.875" y2="377.828125" style="visibility: inherit;" fill="rgb(0, 0, 0)" stroke="rgb(204, 204, 204)" stroke-width="1px"></line><line x1="48.875" y1="340.04531249999997" x2="43.875" y2="340.04531249999997" style="visibility: inherit;" fill="rgb(0, 0, 0)" stroke="rgb(204, 204, 204)" stroke-width="1px"></line><line x1="48.875" y1="302.26250000000005" x2="43.875" y2="302.26250000000005" style="visibility: inherit;" fill="rgb(0, 0, 0)" stroke="rgb(204, 204, 204)" stroke-width="1px"></line><line x1="48.875" y1="264.47968749999995" x2="43.875" y2="264.47968749999995" style="visibility: inherit;" fill="rgb(0, 0, 0)" stroke="rgb(204, 204, 204)" stroke-width="1px"></line><line x1="48.875" y1="226.69687500000003" x2="43.875" y2="226.69687500000003" style="visibility: inherit;" fill="rgb(0, 0, 0)" stroke="rgb(204, 204, 204)" stroke-width="1px"></line><line x1="48.875" y1="188.9140625" x2="43.875" y2="188.9140625" style="visibility: inherit;" fill="rgb(0, 0, 0)" stroke="rgb(204, 204, 204)" stroke-width="1px"></line><line x1="48.875" y1="151.13124999999997" x2="43.875" y2="151.13124999999997" style="visibility: inherit;" fill="rgb(0, 0, 0)" stroke="rgb(204, 204, 204)" stroke-width="1px"></line><line x1="48.875" y1="113.34843749999999" x2="43.875" y2="113.34843749999999" style="visibility: inherit;" fill="rgb(0, 0, 0)" stroke="rgb(204, 204, 204)" stroke-width="1px"></line><line x1="48.875" y1="75.56562500000001" x2="43.875" y2="75.56562500000001" style="visibility: inherit;" fill="rgb(0, 0, 0)" stroke="rgb(204, 204, 204)" stroke-width="1px"></line><line x1="48.875" y1="37.782812500000034" x2="43.875" y2="37.782812500000034" style="visibility: inherit;" fill="rgb(0, 0, 0)" stroke="rgb(204, 204, 204)" stroke-width="1px"></line><line x1="48.875" y1="0" x2="43.875" y2="0" style="visibility: inherit;" fill="rgb(0, 0, 0)" stroke="rgb(204, 204, 204)" stroke-width="1px"></line></g><g transform="translate(38.875, 0)"><text style="text-anchor: end; visibility: hidden; font-family: &quot;Helvetica Neue&quot;, sans-serif; font-size: 12px; font-weight: 200;" x="0" y="377.828125" dx="0em" dy="0.3em" fill="rgb(50, 49, 63)" stroke="none" stroke-width="1px">0.5</text><text style="text-anchor: end; visibility: inherit; font-family: &quot;Helvetica Neue&quot;, sans-serif; font-size: 12px; font-weight: 200;" x="0" y="340.04531249999997" dx="0em" dy="0.3em" fill="rgb(50, 49, 63)" stroke="none" stroke-width="1px">0.55</text><text style="text-anchor: end; visibility: inherit; font-family: &quot;Helvetica Neue&quot;, sans-serif; font-size: 12px; font-weight: 200;" x="0" y="302.26250000000005" dx="0em" dy="0.3em" fill="rgb(50, 49, 63)" stroke="none" stroke-width="1px">0.6</text><text style="text-anchor: end; visibility: inherit; font-family: &quot;Helvetica Neue&quot;, sans-serif; font-size: 12px; font-weight: 200;" x="0" y="264.47968749999995" dx="0em" dy="0.3em" fill="rgb(50, 49, 63)" stroke="none" stroke-width="1px">0.65</text><text style="text-anchor: end; visibility: inherit; font-family: &quot;Helvetica Neue&quot;, sans-serif; font-size: 12px; font-weight: 200;" x="0" y="226.69687500000003" dx="0em" dy="0.3em" fill="rgb(50, 49, 63)" stroke="none" stroke-width="1px">0.7</text><text style="text-anchor: end; visibility: inherit; font-family: &quot;Helvetica Neue&quot;, sans-serif; font-size: 12px; font-weight: 200;" x="0" y="188.9140625" dx="0em" dy="0.3em" fill="rgb(50, 49, 63)" stroke="none" stroke-width="1px">0.75</text><text style="text-anchor: end; visibility: inherit; font-family: &quot;Helvetica Neue&quot;, sans-serif; font-size: 12px; font-weight: 200;" x="0" y="151.13124999999997" dx="0em" dy="0.3em" fill="rgb(50, 49, 63)" stroke="none" stroke-width="1px">0.8</text><text style="text-anchor: end; visibility: inherit; font-family: &quot;Helvetica Neue&quot;, sans-serif; font-size: 12px; font-weight: 200;" x="0" y="113.34843749999999" dx="0em" dy="0.3em" fill="rgb(50, 49, 63)" stroke="none" stroke-width="1px">0.85</text><text style="text-anchor: end; visibility: inherit; font-family: &quot;Helvetica Neue&quot;, sans-serif; font-size: 12px; font-weight: 200;" x="0" y="75.56562500000001" dx="0em" dy="0.3em" fill="rgb(50, 49, 63)" stroke="none" stroke-width="1px">0.9</text><text style="text-anchor: end; visibility: inherit; font-family: &quot;Helvetica Neue&quot;, sans-serif; font-size: 12px; font-weight: 200;" x="0" y="37.782812500000034" dx="0em" dy="0.3em" fill="rgb(50, 49, 63)" stroke="none" stroke-width="1px">0.95</text><text style="text-anchor: end; visibility: hidden; font-family: &quot;Helvetica Neue&quot;, sans-serif; font-size: 12px; font-weight: 200;" x="0" y="0" dx="0em" dy="0.3em" fill="rgb(50, 49, 63)" stroke="none" stroke-width="1px">1</text></g><line x1="48.875" y1="0" x2="48.875" y2="377.828125" fill="rgb(0, 0, 0)" stroke="rgb(204, 204, 204)" stroke-width="1px"></line></g></g><g transform="translate(48, 0)" clip-path="url(#clip_0)"><clipPath id="clip_0"><rect width="1464" height="377"></rect></clipPath><g><g><g><line x1="0" y1="0" x2="0" y2="377.828125" fill="rgb(0, 0, 0)" stroke="rgb(60, 60, 60)" stroke-width="1px" opacity="0.25"></line><line x1="183.015625" y1="0" x2="183.015625" y2="377.828125" fill="rgb(0, 0, 0)" stroke="rgb(60, 60, 60)" stroke-width="1px" opacity="0.25"></line><line x1="366.03125" y1="0" x2="366.03125" y2="377.828125" fill="rgb(0, 0, 0)" stroke="rgb(60, 60, 60)" stroke-width="1px" opacity="0.25"></line><line x1="549.046875" y1="0" x2="549.046875" y2="377.828125" fill="rgb(0, 0, 0)" stroke="rgb(60, 60, 60)" stroke-width="1px" opacity="0.25"></line><line x1="732.0625" y1="0" x2="732.0625" y2="377.828125" fill="rgb(0, 0, 0)" stroke="rgb(60, 60, 60)" stroke-width="1px" opacity="0.25"></line><line x1="915.078125" y1="0" x2="915.078125" y2="377.828125" fill="rgb(0, 0, 0)" stroke="rgb(60, 60, 60)" stroke-width="1px" opacity="0.25"></line><line x1="1098.09375" y1="0" x2="1098.09375" y2="377.828125" fill="rgb(0, 0, 0)" stroke="rgb(60, 60, 60)" stroke-width="1px" opacity="0.25"></line><line x1="1281.109375" y1="0" x2="1281.109375" y2="377.828125" fill="rgb(0, 0, 0)" stroke="rgb(60, 60, 60)" stroke-width="1px" opacity="0.25"></line><line x1="1464.125" y1="0" x2="1464.125" y2="377.828125" fill="rgb(0, 0, 0)" stroke="rgb(60, 60, 60)" stroke-width="1px" opacity="0.25"></line></g><g><line x1="0" y1="377.828125" x2="1464.125" y2="377.828125" fill="rgb(0, 0, 0)" stroke="rgb(60, 60, 60)" stroke-width="1px" opacity="0.25"></line><line x1="0" y1="340.04531249999997" x2="1464.125" y2="340.04531249999997" fill="rgb(0, 0, 0)" stroke="rgb(60, 60, 60)" stroke-width="1px" opacity="0.25"></line><line x1="0" y1="302.26250000000005" x2="1464.125" y2="302.26250000000005" fill="rgb(0, 0, 0)" stroke="rgb(60, 60, 60)" stroke-width="1px" opacity="0.25"></line><line x1="0" y1="264.47968749999995" x2="1464.125" y2="264.47968749999995" fill="rgb(0, 0, 0)" stroke="rgb(60, 60, 60)" stroke-width="1px" opacity="0.25"></line><line x1="0" y1="226.69687500000003" x2="1464.125" y2="226.69687500000003" fill="rgb(0, 0, 0)" stroke="rgb(60, 60, 60)" stroke-width="1px" opacity="0.25"></line><line x1="0" y1="188.9140625" x2="1464.125" y2="188.9140625" fill="rgb(0, 0, 0)" stroke="rgb(60, 60, 60)" stroke-width="1px" opacity="0.25"></line><line x1="0" y1="151.13124999999997" x2="1464.125" y2="151.13124999999997" fill="rgb(0, 0, 0)" stroke="rgb(60, 60, 60)" stroke-width="1px" opacity="0.25"></line><line x1="0" y1="113.34843749999999" x2="1464.125" y2="113.34843749999999" fill="rgb(0, 0, 0)" stroke="rgb(60, 60, 60)" stroke-width="1px" opacity="0.25"></line><line x1="0" y1="75.56562500000001" x2="1464.125" y2="75.56562500000001" fill="rgb(0, 0, 0)" stroke="rgb(60, 60, 60)" stroke-width="1px" opacity="0.25"></line><line x1="0" y1="37.782812500000034" x2="1464.125" y2="37.782812500000034" fill="rgb(0, 0, 0)" stroke="rgb(60, 60, 60)" stroke-width="1px" opacity="0.25"></line><line x1="0" y1="0" x2="1464.125" y2="0" fill="rgb(0, 0, 0)" stroke="rgb(60, 60, 60)" stroke-width="1px" opacity="0.25"></line></g></g></g><g><g><line x1="0" y1="755.65625" x2="1464.125" y2="755.65625" fill="rgb(0, 0, 0)" stroke="rgb(153, 153, 153)" stroke-width="1.5px"></line></g></g><g><g><line x1="183.015625" y1="0" x2="183.015625" y2="377.828125" fill="rgb(0, 0, 0)" stroke="rgb(153, 153, 153)" stroke-width="1.5px"></line></g></g><g><g><g><g><g><path style="fill: none;" stroke="rgb(255, 112, 67)" stroke-width="2px" d="M183.1891238125,302.5901975519955L183.9255786875,285.72352604498155L184.65983737500002,278.4633884874686L185.74731621875,269.29184179992063L186.40507437500003,261.3717774228115L187.39665303125,256.1117551368503L188.914584625,252.27550080125718L192.06647971875003,249.38389586700168L192.25901215624998,247.29961409590788L194.705199,246.18479245779318L195.16090790625,245.78863633158556L196.17554653125,245.35173676008762L196.838429125,245.03937029065386L200.00423340625002,244.82143386027656L203.70407728125002,244.4215460544323L204.5184968125,244.0898069190611L206.63232728125,242.32060360907104L207.70077250000003,237.48529659449983L208.87792900000002,228.603244094222L209.16050512500001,222.22712623988423L214.81092953125,208.74628693330015L215.00419403125002,200.75037917517622L217.38632540625,194.61273459921156L219.06018631249998,190.40258854118878L220.32994871875,196.5344629125354L221.2051294375,199.4918622306865L221.7322144375,201.89335477910493L222.48733690625,202.4734858808324L223.76332184375,202.9018627649839L225.2988229375,202.61468985862555L226.2768584375,202.78563177580335L227.37568424999998,202.74037357726937L230.62567571875002,201.99986524955446L232.20619865625,201.132070315806L232.2373113125,200.61207798894094L234.05831678125003,200.10880408155882L235.318562375,200.0487439164853L236.71094525,199.61361186964683L238.19776418749998,199.49140188972774L238.387368375,199.54451393719032L240.5301153125,200.26467394073256L240.71056871874998,199.9459247512442L241.672864875,199.11493625380373L242.60148615625,198.73788077087283L244.2284950625,198.66831678196706L245.85184365625,198.39377241979278L246.328782375,198.38839952439196L246.37307215625003,198.69206457162656L246.542544625,198.74501503005544L248.42577540625,198.27573540579843L250.09853821874998,198.18488764254147L250.2182304375,198.15670072429114L251.18235675,198.24505751590587L252.6852810625,197.83575662678828L254.50043003125003,197.4418483157832L255.0234886875,197.22672647043336L255.96089471874998,196.92743584322486L256.73468478125,197.3582519810352L259.42391637500003,196.77478830194187L259.877795125,196.0834463070375L259.95209946875,194.83877665135518L262.06117153124995,192.56553015013486L262.08679371874996,192.22584203422034L262.097408625,191.7166717613635L262.76175534375,189.95419554575673L263.3646088125,188.89487215900047L263.49162165625,188.27102472125665L264.83715253125,182.68749803968777L265.86496828125,175.47776102002567L266.25515759375,170.70520591572583L266.9429303125,167.49473394728096L269.11166546875,164.3288067253017L270.14826596875,161.65049803162114L270.6208123125,160.39320820736583L271.45938990625,159.4538795011801L271.72000415625,158.41389662295956L273.0776140625,158.3337994353198L274.142765,157.61578888960014L274.84151865625,157.33446337963534L275.00623271874997,156.5307394284629L275.78221896875,156.65920184812686L277.06552453125,156.1286813043758L279.10322049999996,155.91853853676943L279.1346991875,155.7859129778399L282.06111903125,155.13360108863432L282.15921540625,154.69120995435784L282.22912737499996,153.8090250237803L284.56696896875,153.77179187277082L285.15591324999997,154.43044817590194L287.53109003125,154.2816233047454L291.1441845,153.66886626905855L291.20457965625,153.28941140458969L292.63649390625,162.38588597930067L295.90368884375,167.29231136027929L296.12257553125,171.01412623440598L298.05595259375,172.50772020483242L298.37732803125,172.86854176604285L300.12402915625,182.66971517210325L300.65184621875,179.12062443855476L301.7210235,182.80807629414238L303.82314096875,171.00005025379562L303.92709384375,163.7927061205369L304.99810128125,159.35724748210686L305.43404449999997,156.41421618185385L306.14560925,154.61097765265072L307.00358650000004,154.05082113697034L307.0599553125,153.5920005397731L308.58813578125,152.32376063729734L310.46184975,152.33200242811688L314.7100084375,151.90825085904743L316.3732544375,151.65518899003598L317.830790875,151.34167405062874L320.47829490625,151.87796242442113L326.21473665625,160.32718963865264L327.8197836875,165.21474383663428L328.5167071875,167.72704734886463L329.50059918750003,170.03813432147962L331.56830971874996,171.13263501221462L333.848318375,171.02231164422346L335.32305828125,171.837202277909L336.45116659375,171.74967074074166L337.66602431250004,171.5870725374091L338.8051135625,171.7762962660592L339.3314665,171.08544102051266L340.45701259375,170.91908368610387L341.16747925,170.1878538088086L342.68211656249997,163.20411891824503L343.63928828125,158.83897623918355L345.034233375,155.25621949211887L345.18723443749997,152.76539173767642L347.36255815625,152.0856799433868L348.66233512499997,151.1302129477406L349.80691484375,150.8592093750921L350.82228553125,150.17004632369202L351.5239674375,171.27886757576778L352.60998215625,172.09132419719882L354.53786875000003,172.38339393403876L355.84094,172.7664171751842L356.01956325,173.05633332634002L357.05652978125,172.96097612785715L357.57483003125003,172.52817706708558L357.660847375,172.35321003314522L358.35886896875,172.6224813520412L358.4038908125,172.6580925470292L360.52943428125,172.51911464844338L361.0993449375,172.25525914364573L365.7084104375,171.9692827007682L369.227434875,171.92381057763163L369.60664325,171.7030147738699L370.35334700000004,171.76205001786013L371.324061875,180.97013803654704L372.1161535,186.21179343064892L372.23108731249994,189.48837734937828L372.98840596875,190.0898670870374L376.79732715625,191.6579937386996L377.20655009375,192.38364761984263L377.67982850000004,192.9222370224649L377.98839284375,193.0918201580616L378.07624034375,193.15106970816686L378.26804071875,192.5386830613008L380.64870796875005,177.91265117347186L381.27535346875,168.5047698004242L382.55353459375,162.19875455920078L383.32476243749994,158.02628269731508L384.13625371875,155.81482495927511L384.233252,154.46341218539297L386.870141125,153.09912336983209L386.90711028124997,152.97873377572253L387.07182434375,152.37651602414698L389.66039734375,151.54896088309562L389.8005873125,151.0577245756536L391.74018690625,159.456507522884L396.45832971875,155.17002635167415L397.03446290625,153.09035958627683L397.2171125,152.63604917916547L397.41989381250005,151.52929259266188L397.79653996875004,150.92671008214788L398.43746068749994,159.2509743529882L398.68087146875,164.07953119774615L398.7215009375,166.94564132392384L398.88401881249996,168.73373311310993L400.29214103125,161.13843033343545L401.285915875,156.41279673802848L402.56812334375,157.2479750751137L403.15194318749997,154.03870767287484L405.1226554375,152.01508478854348L408.094097125,150.9640662083581L411.63764565625,150.05288801548215L414.600668625,152.65677263338765L417.1445858125,151.1581066764855L417.83821503125,149.94448752581854L419.27378959375,149.07150142642723L419.56441840625,148.8101164326242L420.59150209375,148.2020684816045L421.16397496875,147.7408527791561L421.65518890625,146.7759026481247L422.2851286875,142.94883709660382L423.1226081875,139.35377034700642L424.29281009375,135.77011362482148L425.509864,133.58866139959716L426.73753281250004,131.97825210592995L427.22764865625004,131.49745435745635L427.27523271875,131.19649044785567L427.54939012500006,130.0981463647703L427.6826255,129.54473314996483L430.61380375,136.9298553738947L430.9622655,141.57364655950394L431.44542674999997,143.73275762896972L432.43334509375,145.06126607120774L434.73458356249995,145.41709915122829L434.91540299999997,145.90797716794273L436.41320287499997,145.61737224485196L437.2382373125,145.04760667548018L437.3692765,144.71318804466983L438.57315328125003,139.56785123046785L440.67417265625,134.8890036292169L442.02409590625,131.51364273934323L442.78983328125,129.826140791826L443.57423825,128.2670626629308L444.04458840625,126.88317333319276L444.656226625,126.04939863180215L445.68514046875,125.63249499481978L446.178916625,125.50996190388238L446.54824215625,124.98812571066162L449.70343153125003,124.81072238175588L450.96184696875,125.3264895578535L452.7989578125,124.6543345399387L455.20817550000004,123.84745953665308L455.719155125,123.46260406634886L457.04601840625,123.20954881421736L459.99440012499997,122.74048555157788L460.34542409375,122.24339309416541L461.27441140625,121.89878181119153L461.716211125,121.46029004752268L462.4504698125,121.43005500688929L463.67447831249996,121.31669810685378L463.89080278125,121.24935056804338L464.872864625,121.5200646477266L465.06173674999997,121.23360023691197L465.3406525625,120.92751855205864L466.42227490625004,121.40661527470576L467.79123178124996,122.47547405738129L468.8340548125,123.69992125647366L472.4343381875,131.25972119490572L474.98264774999996,127.13670365673462L478.10160003125,123.73723627947072L479.812796125,121.87011548547329L480.6173328125,120.31057082738505L482.81827871875004,119.47153724060075L486.66380303125,119.1566931662L486.99176703125,117.33931599599339L494.06641903125,120.09036834190624L495.66231528124996,121.34851576626505L496.16231396874997,121.7924978128982L497.87900053125,120.07731585230897L498.29078568750003,116.26784905807057L498.29407996875,113.95606343681152L501.04956321875,108.09654834559291L503.6026311875,103.1357019145234L504.26112140625,100.22805215933579L505.698526125,108.45927554007562L506.380808375,112.69816837839005L507.0382005,114.90546500612334L507.28014715625,116.44515517386225L507.6472765,117.15079249982495L510.05173578125,117.23067709308538L510.34382871875,117.36083400921035L510.73950849999994,117.78673184469943L510.98877578125,117.22045935052995L512.40092434375,112.64253543679928L517.27499646875,104.66557393962154L517.704351125,100.26935874965199L518.1326076875,97.5330627377117L520.6556610937499,95.33416866453194L520.814152625,93.80416822175204L523.118685375,92.5759821980597L523.3426965,91.55412559058675L525.136249625,90.64855385703686L528.29985771875,89.99565400709412L528.98360409375,89.18525250422772L530.46163828125,88.37967359002118L532.811192875,87.48009684220364L533.121587375,87.31262054538979L539.15927284375,86.64020894465591L540.0227405625,86.10581988690939L541.69952971875,85.60614097028167L542.6427922500001,85.48701858093858L542.69293853125,85.34005706426808L542.7357641875,85.15340333755205L543.84008046875,85.0607425366365L545.11679746875,84.52803975162055L546.3140856875,87.90133473987675L546.647174125,86.5765414608436L547.3312865312499,85.45470660763488L548.03626271875,84.96124571390453L548.3111521874999,84.55746804149453L549.86971325,83.88259526846713L552.00770178125,84.09899798189343L552.2598973125,83.79091864693015L553.51831275,83.7866839415899L558.3213748125,83.23199913707799L560.724736,82.46297883500108L561.65262521875,82.29388029282961L561.69398675,82.09118786472482L561.95862734375,82.21884522821551L562.04281453125,82.12918570107843L563.29024903125,81.85009679178376L563.5417125,81.54015293332924L567.9099294375,81.274662895429L569.25216603125,81.06198672707546L569.4157819999999,80.96670217666428L570.4428656875,80.66434831457377L570.61599846875,80.52475171111257L570.7001856562499,80.03710548026697L571.73678615625,80.16681861694661L572.76240571875,80.29525414223082L574.54204965625,80.17723551386365L574.702737375,79.98366161655645L576.19577884375,80.13019418773803L576.2144464375,80.0311951476798L576.371839875,80.08075799724259L576.5962170312499,80.09168674308529L577.5658338125,80.37926144157927L577.73457421875,80.0543596111541L577.7942373125,79.90027936549808L578.3081451875,80.15884179623032L579.1591678437501,80.3031875215537L580.254699375,79.72144616976783L580.76824121875,79.81943854367972L580.82241384375,79.87192828089735L581.587053125,79.87138923261017L584.2363873125,79.73216052429945L585.43001521875,79.83982974932832L586.47320428125,79.60276721207049L587.52408,79.1594961861536L587.72210290625,79.1570031951228L589.6056997187501,79.18687368991135L590.796399375,79.3041916321942L591.9687974687499,79.30404878295832L592.17011465625,79.35451666794637L592.354228375,79.56004145239245L594.0756733437499,79.53403765183356L594.27479434375,79.50996773449572L596.93218121875,79.05324488883014L598.67229378125,78.70094859602926L599.3944734375,78.67672361435217L599.5987188749999,78.61082429961391L601.7886838437499,78.70035311818737L605.23962646875,78.81246107215048L605.973519125,78.76883583229409L607.03500975,78.15111517063758L607.2377910625,77.93138687477693L609.47753628125,77.68213800290937L611.83258134375,77.71959734380073L613.9156651874999,77.57909796041145L614.55658590625,80.82104829118782L615.02437384375,79.44935499454215L615.5620737500001,78.72005954354802L615.63930634375,78.18670789357896L615.93066721875,77.86485924620558L616.1579726250001,77.76015579133707L616.66419384375,77.44764652433673L618.19749875,77.33480029974993L618.20738159375,77.2858654963947L620.01118359375,78.21122167828531L621.3680614374999,77.99029538302341L621.9895825,77.4851095290108L622.7311618125,77.17711561314013L625.3900128125,77.22332360754456L628.19710646875,76.52245328074719L630.6286520625,76.58336128888146L632.1579306250001,75.73029975353245L637.1279029374999,75.78552426775434L639.89180490625,75.98869633379667L642.026133125,76.36641229214126L642.82591140625,76.06222912458696L642.9024119375,75.61740263946723L647.7504958437501,75.57745743631045L649.919231,75.59390076079211L650.19741475,75.39510256024147L650.77391396875,75.42454777492253L653.5714908125001,75.20503098641728L653.80684890625,75.71169066205556L656.2014253437501,75.35099497899375L656.97155509375,75.63445641228532L657.77975209375,77.60185228290544L660.24826684375,76.3403674237573L662.872344875,75.51883420706656L666.86171946875,75.40895774579559L667.93858340625,75.14894281918714L668.07035465625,75.31039818581877L669.08645740625,75.10195003498757L669.58938434375,74.91519350811336L671.1629526875,76.31261299329697L672.267635,76.71735952364031L672.45797125,75.58079334164637L673.680515625,74.86038894096009L674.6750225312501,75.14663430833218L675.11059971875,75.0275272058451L675.5326337500001,74.86021649998457L675.83131525,74.89624911345265L676.73321625,74.84088524980672L677.40195534375,75.02443843888238L677.66037340625,74.92572599459885L678.266155125,75.80705482026463L679.00590428125,76.13969119718985L679.32142321875,76.04130228210278L685.7613770312499,75.45797807260624L685.90046890625,75.21139681583202L686.4938055624999,74.72113933188052L687.4864823125,77.50050286216941L687.55346603125,77.88448125951527L690.10946225,76.52985276480342L692.19986671875,75.70021245896714L693.226584375,74.92577075672091L693.36384609375,74.24426216311423L693.9121609062499,74.07729721398454L695.41654934375,74.03732854846896L695.564792,73.85586731716268L696.3506610937501,73.77996031394173L697.05417315625,73.49541255355217L698.03513690625,73.6632992961724L698.0468499062499,73.57358157418486L699.43630453125,73.45069465879999L700.064048125,73.32433704641113L700.9937675,73.46145652521642L703.16543090625,73.15005515688051L705.103566375,73.81922037183273L706.8553919374999,75.84998294132373L707.15590359375,75.23984526421077L707.24155490625,74.1070091192451L709.0113160000001,73.91666478601269L710.1950610625,73.51191013939484L710.2225134062501,73.25194191492977L710.4736108437501,73.73914106745946L711.6020851875,73.30763974150676L712.96774778125,73.21814573473137L713.08560984375,73.19223038653371L713.20786428125,73.16262850344083L715.7719131875,72.88790161493364L716.1222050937499,72.84355815474947L716.9549261875,73.60559535980076L718.19174578125,73.45714742591889L718.32132084375,73.65264531761954L718.7221250625,73.80242734948132L720.7232179062499,73.4223066824635L723.45454309375,73.11867413419247L724.790191125,72.94977258069969L726.339235375,72.9154160621681L726.89450478125,72.6924256266903L727.08191278125,72.51757233406613L729.630588375,72.63780942151254L730.750644,72.92897521236125L731.35349746875,73.70970526876192L731.71733253125,72.9251312049754L731.935121125,72.95095062002702L733.071282125,72.9019621140967L733.639362625,72.72512402920188L734.6561974375,72.96842831023491L734.91351740625,72.96201142905926L735.3018765625,72.86651264198878L735.70231475,73.03360575031195L736.39960428125,72.92341381142109L737.9929383125,72.41984610753991L737.99403640625,72.11403017042721L738.02990746875,72.30551279737733L740.84615190625,72.56011838408813L741.07748365625,72.4083710965067L741.2407335937501,73.74684001246396L743.1876538124999,73.34870598011798L743.8864074687501,72.96378584679121L745.4457005937501,72.72526694223973L745.872127,72.66065239614665L746.0320826562499,72.24031753216042L746.9021389374999,73.21473490669638L748.08698209375,72.67554973870102L749.18141553125,72.71949805131305L750.31245209375,73.32161230630135L750.8069603125001,72.92994578353438L752.0836773125001,72.61344035966323L756.13747340625,72.42319479661063L756.3779559375,72.05173939139769L756.77143953125,72.265562006361L757.34098415625,73.1370618766706L757.5547464062499,72.70526275120147L758.1136761249999,72.04106990222311L760.01960084375,71.61425066574924L760.0734074375,71.39842544024896L760.7491011249999,72.11800008506009L761.7275026562501,70.98696139002112L763.1993143125,71.06801132586156L763.7937490625,71.69213432730163L764.7439661875,72.07671524382198L766.6378118750001,72.0147357809339L767.2476199375,72.00469859035576L767.9145288750001,72.03814987743954L767.920385375,72.02678229528692L770.01078984375,72.03741949121974L770.20112609375,72.1717892412592L772.4467278125,71.9385680347234L773.2212499374999,71.83142488387529L773.9869873125,71.92090767808139L774.303970375,71.84433987475859L775.1136315,71.9396105519678L775.8445959062501,71.93679686556732L777.1703610937501,72.20873944264929L778.7212355,71.94304619909695L780.53858065625,71.61991659883478L781.20109721875,71.78317494144329L784.50416321875,71.71483996927907L784.78454315625,72.07792543348768L785.4518181249999,71.88587101609767L786.73622178125,71.43962582386285L787.0001303125,71.41927783898564L787.27941215625,73.37476772494341L787.852983125,72.68307361484898L787.98072803125,72.26746261257728L788.5301409374999,71.56792399891486L789.74353453125,71.76761748557249L792.5616091250001,71.90489132279134L793.6794685625,71.67063806622616L793.8039191875,71.64164272573231L794.44044753125,71.68402343542368L794.6889827499999,71.05538995966901L795.1611630625,71.0482456112241L796.0667243749999,71.15009272467103L799.413714125,70.92137359601855L801.1322308437501,71.05919619141571L802.1197831562499,70.99957939826584L802.8595323124999,71.35364491697038L803.27351365625,71.177041348552L804.224828875,71.64633803620052L807.47555240625,72.27703492077666L808.65710128125,71.87965535585573L809.13806634375,71.69794276857073L810.11170946875,71.68940985279494L812.28959540625,72.78816369221937L813.2474991875,72.08291934979758L814.7855625,72.26695636616819L815.7024707812501,71.76925810922182L815.9641831250001,71.4660269953252L816.05532490625,71.53795529082066L816.4261145625,71.35484619766265L817.5124953124999,71.38240868869292L817.70026934375,71.33243019221948L820.2679785625,71.56688559629754L820.636206,73.60796682583225L820.9297630625001,73.02758559836104L821.43269,75.85450454281658L822.5549418125,73.68970169634753L822.91767878125,72.3159084253677L824.3031070625,73.1120319088202L826.8342131562499,72.29504033371217L827.0655449062499,71.96556834545373L827.41986315625,71.44905159498245L828.1120282500001,71.26954315453759L828.9473115625,71.19801471814509L829.80199453125,70.7943402875066L833.1592331562499,70.68471720508336L833.54503009375,70.49365836049077L835.135435875,70.66481481069303L836.6537335,70.74298856600507L837.06478659375,70.98000027802215L837.55856275,70.45465123320594L838.08674584375,70.87277520322789L838.90299553125,70.81780574321141L840.65042871875,70.90882990866533L841.09113034375,70.90051365038528L845.3034179687501,70.90474821487533L845.565862375,70.70851567899871L846.4959477812499,70.81489829430393L849.34952740625,70.45455329841025L853.1888291875,70.49596064448735L855.45273246875,70.29754769525164L859.2726345937499,70.22512597797049L860.00103678125,70.36239394073328L861.5903444687499,70.70498141810083L863.7920224375,72.02119961926206L864.852781,71.37626060425555L865.31654259375,70.75596875521131L866.8769338124999,70.59373699469921L868.5087011249999,70.7962964182708L868.980149375,70.66252380866484L871.38241246875,70.53795828675425L872.73526396875,70.17249076444034L874.1825515312499,70.23597527818754L875.0496795625,70.34836499707029L875.366662625,70.0130095508166L875.682913625,69.7146526687722L876.8981373749999,69.99110732903358L877.07712665625,69.64504841152001L878.43803084375,69.8097909103821L879.2180434375,69.56726452475726L880.1920525937501,69.95342621589265L880.3992262812501,69.74271622156846L883.5057334999999,69.91708951729976L883.6528780625,70.5726684036162L884.0086604375,70.07808490632812L884.4533884062499,69.97536980905443L884.4566826875001,69.92907257853932L885.7279092187499,70.26122286158193L886.6924015625,69.98097453333367L887.71545890625,69.76355109552992L890.8988326875,70.20414005929501L891.36479046875,70.14893923008009L892.6239379687499,70.11821489366031L893.28718659375,70.27306057412704L893.60197346875,70.02636168986135L894.2000685312499,70.17588071056946L894.68396184375,70.86517288776486L895.1887189375,70.51051732297088L895.4112659375,70.77475822356547L895.75350515625,70.28621315069313L896.08659359375,70.09712994460642L896.1023329374999,69.96528543078529L896.55694375,69.88455726008794L897.1403975625001,69.84186754108174L897.9701904062499,69.91631595629872L898.4903208125,69.78051623978268L898.5089884062501,69.68674932809506L899.45005475,69.88183387006421L899.956642,70.11364810100258L901.18614096875,69.00103972811132L901.4515136250001,69.1903995690264L901.9793306875,69.27459493905405L902.41930025,70.39131377342409L903.0378930625,69.92994265677373L903.6451389062499,70.35170003948707L905.1184146874999,70.06540202455574L905.5166566875,69.9550225919894L906.3208273437499,69.6260639741368L907.7318778125,69.78930204223678L908.136708375,69.77159858114175L909.2066177187501,69.55492466534167L909.41964790625,69.4864458059966L910.608151375,69.8237357506573L910.69929315625,69.35241010453814L915.37131603125,69.80665946106018L915.4917403124999,69.69445406258046L916.2640662499999,71.58012824124057L918.0305330625,70.95473228166077L918.58214215625,70.79435649078829L919.89253403125,75.54688012636745L921.13191584375,74.93977896593236L922.76148696875,72.92467136291987L923.08286240625,72.14176315357281L924.71682590625,70.86334087797997L925.07700065625,70.19308881818648L925.65203575,69.87469512363907L927.0034231249999,69.67573175737635L930.6758146562499,69.78786253651606L932.70911825,77.85089641419427L934.19081275,74.73319161449302L936.3108657500001,72.61448498674883L938.0158393125,71.47200512503781L938.50668721875,69.93569985175253L939.6476066250001,69.59063483264515L941.30096978125,69.56629860169579L941.3749080937499,69.51247548918064L941.66956325,70.01490389025292L942.2969408124999,70.17763581404733L942.697379,69.92597593384772L943.5136286874999,69.61942771236767L944.22555946875,70.84624313658867L944.558281875,70.1723086839699L947.867204375,69.75598522310156L948.0026359375,69.5749771850389L948.10622278125,69.8566943955172L950.76580584375,69.91501487205915L952.2727565,69.58815079799581L953.1036474375001,69.72938661498603L954.51872425,69.44306544198258L956.22186765625,69.3221145926932L957.7698138124999,69.05821151936169L959.9572165625,69.06796127798629L960.74235359375,69.25332503761342L962.25186646875,69.22927729633744L962.2723642187499,69.19135546295229L964.72843390625,69.25511639033789L965.46854909375,69.240855581105L969.7888159375,126.75686677935141L970.3404250312501,156.73472028832091L970.69693946875,170.5068912788359L971.81845921875,168.91523363719148L971.9864675624999,167.41735542285303L972.107257875,166.4881990497879L972.599203875,162.71484082240292L975.2540285312499,157.35431913166306L975.419108625,153.70494954141407L978.2807409375,140.15026358129037L979.9791259374999,120.57158492273965L981.96484546875,106.37582536647847L982.6998362187501,97.54522920987091L983.27377321875,91.36427349651501L983.7796284062499,87.42066008481169L984.49046109375,85.05301470537654L986.15297503125,82.58087307575153L986.9622701249999,81.24101545579913L987.16468540625,80.33905645708847L988.7711965625,79.29263337254889L991.1606485625,78.23040775984748L991.2309265625,78.04164095837012L992.5954910625,77.5292669146844L993.8421934999999,76.90556723830633L996.2770333750001,76.23092648138123L996.48969753125,75.75510395765014L997.7762973749999,75.40588697090573L997.8776880312499,74.89404412162202L997.93478890625,74.65230136321122L998.56655884375,74.44596442926604L1000.6657480625,74.0897526575547L1000.711868,73.88654708390959L1000.7312676562499,73.70176504716596L1002.3300921562501,73.3861591721494L1005.5881363125,73.14011652796978L1005.618150875,72.93429845738126L1007.2037982500001,73.0081035571855L1007.4087757499999,72.71281635702024L1009.4889313437501,72.43019493186699L1011.7407555937499,72.43932525002498L1012.65802990625,71.98436216672388L1012.7045158750001,71.7070063682504L1013.51820334375,71.60665847403459L1014.27735215625,69.99489037866977L1015.2312295937501,70.60509806752555L1016.35860584375,70.96399816501355L1016.49184121875,71.63338372932799L1019.640076,71.24997503654322L1021.4640097187499,70.94109071550469L1021.662032625,70.8461836763185L1021.673745625,70.87251055541407L1024.0814991875,70.756481789367L1024.20851203125,70.35520340297614L1024.3578527812501,70.32789288859954L1025.0609988125,70.30206606552838L1026.50059971875,70.27312984997536L1029.050007375,70.16894781699483L1029.21215921875,70.0206452197474L1031.9702046875,69.86446305284744L1033.1620024375,69.68649175640849L1035.9668999062499,69.86521247551985L1036.1180708125,69.79984924212778L1036.2106767187502,69.90796818593554L1037.1371018125,70.02413181295634L1037.46616390625,70.06129264358066L1039.1583263750001,69.73735286979905L1039.915279,69.50738889762187L1040.03277503125,69.48619183995379L1040.0591292812499,69.38634702547222L1040.824500625,69.39805472632548L1041.635625875,69.44577805319614L1041.6700328125,69.44187470373032L1042.1751559375,69.20896074009846L1042.40831784375,69.09185878683866L1044.026542,69.15030569732039L1045.40391759375,68.97281813859854L1045.7560396562499,69.839545354932L1045.85633221875,69.42115130987133L1046.83876009375,69.39335422346807L1048.3398542500001,69.3820448138107L1048.4247735000001,69.40765238361291L1048.536047,69.27654482160051L1049.5016374375,68.8698944724145L1049.79263228125,69.68423277446885L1050.1571994062501,69.2209832753793L1050.34021503125,69.0654539874825L1051.4474595625,68.86248952368703L1051.94453,68.84536723551048L1054.6886662812499,68.98810586486394L1054.861067,68.82735882195317L1056.60154559375,68.57278197924774L1059.15717578125,68.58340721902539L1061.4294977812501,68.4065751274066L1061.7344018125,68.30467365843867L1062.6985281250002,68.78693887762921L1063.06895175,68.56463653920707L1063.15423703125,68.36843247609505L1064.6509388125,68.40651455907334L1065.58175628125,68.57356586538737L1067.33431390625,68.46916809369912L1067.6538591874998,68.60216787794099L1068.05027103125,68.28099811204589L1069.37237590625,68.34430714996648L1070.91190334375,68.20816552669999L1071.00414321875,68.17575499359481L1071.03415778125,68.52571384202662L1075.8280690625,68.58595610613361L1076.62674925,68.52902952256653L1076.78487475,68.28100268124246L1078.8529513125,67.89705651151365L1078.8990712500001,67.73873578919307L1080.32256678125,67.85291200601068L1084.95359415625,67.45901269077063L1085.44993253125,67.85985377793787L1086.6303833125,67.86333665916487L1088.75812296875,67.54561995294188L1089.12708246875,67.32677648336596L1090.83461825,67.38148817194042L1092.08388290625,67.50682862339937L1095.629627625,158.3505074172528L1097.30714884375,212.77099338110162L1099.33422990625,201.75488822272948L1099.59045178125,155.02051646030864L1101.93231971875,122.45565296868634L1102.12192390625,103.24625206685158L1102.17682859375,91.19552795035304L1103.606180625,83.8237019587616L1105.24856284375,79.21655236462107L1105.609103625,76.47227866071086L1106.75661159375,74.2856413438476L1108.4063144375,72.80097320762621L1110.35909115625,72.20054021008218L1110.59481528125,71.23446602465162L1110.61824128125,70.65559621209775L1111.3155308125001,70.48411291423366L1111.36933740625,70.2184100938315L1111.891664,70.2002538095399L1111.8923960625,70.1821355231396L1113.43485175,70.3123858292575L1114.78514103125,70.09651083020424L1116.1383585625,69.9398533598665L1117.21815075,69.87281118608024L1117.50511925,68.6143811771363L1118.35614190625,68.75388398045828L1118.63542375,68.53838981628138L1120.75730690625,68.6674463275952L1121.28146365625,68.75644666620394L1123.2353384687501,68.72855755414543L1123.4706965625,68.7968968144117L1123.69946609375,68.89216531238304L1123.7781628125,68.48766003204196L1123.8440484375,68.39784275235422L1124.494852,68.45086080575993L1125.0940451562499,68.55509695854789L1125.25290271875,68.63138504816294L1125.59990034375,68.62141562770717L1126.28437878125,68.59476933789801L1130.4805610312499,68.55990053512187L1130.83707546875,68.1731953511985L1131.99812659375,67.85871186943967L1132.76093571875,67.77790307904553L1134.147828125,67.89268105271617L1135.1880889375,67.86344936143246L1135.4457749375001,67.58083727598722L1136.9633405,67.45299565726839L1138.5325164687501,67.45565226262408L1138.9113588125,67.59543085521813L1141.518233375,67.26739251122694L1142.36413159375,67.16742485914119L1144.4237894375,67.1776355737656L1146.58593603125,67.3810219121998L1146.679274,67.51289058718237L1147.0621426875,67.345009019185L1147.4753919687498,67.20496862319635L1148.04493659375,67.01443232186159L1149.25723209375,66.78372557289907L1149.5511551875002,66.81451013357946L1150.6726749375,66.58455481333436L1150.90510478125,66.7159785916084L1152.3699618437502,67.07249928725804L1152.630942125,67.07088331856164L1153.7429450625,67.94705283330575L1154.3143198437501,67.34095576740322L1154.81139028125,67.16969305030716L1155.4354735625,67.01099496708639L1155.90509165625,67.00816344172551L1156.4193655625002,66.83100427806846L1156.70011153125,66.80906085741805L1159.898858625,66.67284382475788L1161.201929875,66.60646344925993L1161.5976096562501,66.68291209462893L1163.2696404062501,66.53571915819413L1165.5218306875,66.68080390136942L1166.8776104375,66.46977590853874L1167.42482715625,66.34443826651506L1168.70886478125,66.58378137156922L1168.9907088437499,66.5939228624436L1169.3578381875,66.43541130663954L1170.396634875,66.25449297944903L1171.83477165625,66.24449086484424L1172.010100625,66.1511468212135L1173.761194125,66.02255292805L1174.8351298125,66.02137111393785L1174.950063625,65.9975651943277L1177.4840979687501,65.97735429665994L1177.6389291875,66.04149053982826L1177.90283771875,65.90661993841485L1180.4485850625001,65.88668258023353L1181.12903715625,66.08050176073368L1181.5393581875,66.07503945868757L1181.56241815625,65.44074295828676L1182.75641209375,65.7809231131967L1185.08583496875,65.50911397410607L1185.9002545,65.93415092109547L1187.60120171875,65.93175692441406L1189.4492935,65.90652106155363L1191.4405035,66.74752970978267L1192.1601209375,66.3477912668564L1192.542989625,66.15452020461436L1193.08325175,65.89999459666063L1193.553235875,65.64873035017871L1193.7900580937498,65.74122719549666L1194.53163740625,66.12101778363308L1195.34056646875,65.90099017158224L1195.781634125,65.70764629295508L1196.103741625,65.853001689172L1198.099344,66.14293375999102L1198.5305288125,65.81654573688138L1199.33543153125,65.69059795265935L1199.5693255,65.47120556682671L1200.36544346875,65.50250909075339L1201.2845479375,65.66543921288962L1202.26514565625,65.49897097919654L1202.35079696875,65.5148444384293L1202.7442805625,65.45778045788143L1203.91887484375,65.22494895747144L1204.8965443125,65.31005681151652L1206.75781321875,65.49258609246914L1207.1512968125,65.76187175665325L1208.5213517812501,65.40832256543064L1210.036355125,65.65267075012582L1210.4005562187501,65.7005506167439L1210.60406959375,65.77840884757802L1212.332103125,64.93789559070922L1212.48327403125,64.65210671999847L1213.7588929375,64.88720608743313L1215.19117321875,65.03626492242387L1215.3342914375,65.01234198507888L1215.5714796875,65.21366073874958L1216.27975015625,65.38887907900414L1216.97301334375,65.17441984318504L1217.1388255000002,64.9448533076216L1218.302804875,65.22202759940438L1218.7193484375,65.24409408544903L1218.914809125,65.44329769864925L1219.3357450624999,65.43290469545269L1220.29584503125,65.28990754782046L1220.475566375,65.107902489894L1221.29584240625,64.78881015497052L1224.35586365625,64.93180839936497L1224.69700478125,65.1037610484396L1226.55314925,65.33657756526674L1228.31558971875,65.18274674760937L1230.3602402812498,65.24340621052772L1230.36902503125,65.2277709613358L1231.17648996875,65.26166484177799L1231.91367690625,65.02874675867366L1232.1029150625,65.33774463744402L1232.82070234375,65.06994462258484L1232.8232645624998,64.88359145892787L1232.9019612812501,64.745205593545L1234.7588378125,64.60054048668667L1235.151955375,64.96953450454066L1235.5326278750001,64.88406014703395L1235.8056871875,65.01268579445895L1236.16952225,64.78992667053706L1237.73650203125,64.90257133546208L1237.9956521562501,65.34572485985001L1238.9389146875,65.06635520027066L1239.134375375,65.21853983948216L1239.58422778125,65.21791370466104L1239.9491609375,65.37656745317429L1240.4799062499999,68.54540383668456L1240.7866404375,67.71012753383349L1245.702440125,66.76559988192338L1247.61495340625,65.83855831194887L1248.279300125,65.29521498795731L1248.91290021875,64.65030337105026L1249.96414196875,64.74266068774364L1250.4249753125,64.48664619855822L1250.75842978125,64.45064757813662L1250.83236809375,64.48615991502788L1254.0589335625,64.61298848721259L1258.706798375,64.50182473902629L1259.6207784062499,64.57949069288208L1260.34259203125,64.57636541811718L1260.93849090625,64.72618706934503L1263.10027146875,64.64099815286903L1263.327576875,64.88614400057617L1265.2448485625,64.72949556829701L1265.55560909375,64.5621443432401L1269.10245190625,64.82193247329178L1270.8195045,64.54058702201235L1271.6606443125,64.49263274914375L1272.0998818125,64.22543314693183L1272.949806375,64.38061393706676L1274.08194103125,64.3172873215895L1274.2510474687501,64.3685618658078L1274.47139828125,64.35428596998526L1276.68735146875,64.31671427169607L1276.759459625,64.36243481996155L1276.77153865625,64.50524320714169L1276.9373508125,64.15534938879313L1277.31326490625,63.95570037592955L1278.22761096875,63.983085705813835L1278.293862625,64.03520709289728L1279.10681803125,63.85965338729983L1279.66830996875,64.39065507655243L1280.2638428125,64.00957704621499L1281.10900896875,64.00979063831528" fill="none"></path></g></g></g></g><g opacity="0.20000000298023224"><g><g><g><path style="fill: none;" stroke="rgb(255, 112, 67)" stroke-width="2px" d="M183.1891238125,302.5901975519955L183.9255786875,275.6035231407732L184.65983737500002,271.4936564322561L185.74731621875,258.50610289536417L186.40507437500003,251.0313413720578L187.39665303125,248.83525070734322L188.914584625,246.78959572128952L192.06647971875003,245.1679081134498L192.25901215624998,244.22570333443582L194.705199,244.52941225096583L195.16090790625,245.197995249182L196.17554653125,244.6987649910152L196.838429125,244.57184051722288L200.00423340625002,244.49495617486537L203.70407728125002,243.82218439877033L204.5184968125,243.59243218414485L206.63232728125,239.66754731163383L207.70077250000003,230.23356375657022L208.87792900000002,215.28151843510568L209.16050512500001,212.66353226080537L214.81092953125,188.52576729469L215.00419403125002,188.7567806467414L217.38632540625,185.40638891234994L219.06018631249998,184.08741932734847L220.32994871875,205.73223088681698L221.2051294375,203.92794859595597L221.7322144375,205.4955874569714L222.48733690625,203.34368164278567L223.76332184375,203.54442769661546L225.2988229375,202.183930657804L226.2768584375,203.04204459488392L227.37568424999998,202.672486288473L230.62567571875002,200.88910284638405L232.20619865625,199.8303779773414L232.2373113125,199.83208952099085L234.05831678125003,199.35389323346317L235.318562375,199.95865366980433L236.71094525,198.9609138034284L238.19776418749998,199.3080869205296L238.387368375,199.62418200820684L240.5301153125,201.344913944602L240.71056871874998,199.4678009673953L241.672864875,197.86845350824296L242.60148615625,198.17229754664004L244.2284950625,198.56397079862654L245.85184365625,197.98195587657392L246.328782375,198.3803401812911L246.37307215625003,199.14756214246154L246.542544625,198.82444071769714L248.42577540625,197.57181596942246L250.09853821874998,198.04861599765718L250.2182304375,198.11442034691572L251.18235675,198.37759270332754L252.6852810625,197.221805293113L254.50043003125003,196.85098584927619L255.0234886875,196.90404370240867L255.96089471874998,196.4784999024123L256.73468478125,198.0044761877507L259.42391637500003,195.89959278330207L259.877795125,195.04643331468105L259.95209946875,192.97177216783166L262.06117153124995,189.15566039830446L262.08679371874996,191.7163098603487L262.097408625,190.95291635207832L262.76175534375,187.31048122234643L263.3646088125,187.30588707886636L263.49162165625,187.33525356464088L264.83715253125,174.31220801733434L265.86496828125,164.66315549053252L266.25515759375,163.54637325927615L266.9429303125,162.67902599461377L269.11166546875,159.5799158923328L270.14826596875,157.63303499110043L270.6208123125,158.5072734709829L271.45938990625,158.04488644190133L271.72000415625,156.85392230562866L273.0776140625,158.2136536538601L274.142765,156.53877307102084L274.84151865625,156.91247511468828L275.00623271874997,155.32515350170434L275.78221896875,156.85189547762275L277.06552453125,155.33290048874915L279.10322049999996,155.60332438535988L279.1346991875,155.58697463944554L282.06111903125,154.15513325482607L282.15921540625,154.02762325294316L282.22912737499996,152.48574762791395L284.56696896875,153.71594214625657L285.15591324999997,155.41843263059855L287.53109003125,154.05838599801064L291.1441845,152.74973071552813L291.20457965625,152.72022910788655L292.63649390625,176.03059784136713L295.90368884375,174.6519494317472L296.12257553125,176.596848545596L298.05595259375,174.74811116047204L298.37732803125,173.40977410785854L300.12402915625,197.37147528119385L300.65184621875,173.79698833823204L301.7210235,188.33925407752395L303.82314096875,153.28801119327545L303.92709384375,152.98168992064893L304.99810128125,152.70405952446163L305.43404449999997,151.9996692314744L306.14560925,151.90611985884607L307.00358650000004,153.2105863634497L307.0599553125,152.90376964397728L308.58813578125,150.42140078358352L310.46184975,152.34436511434615L314.7100084375,151.27262350544333L316.3732544375,151.27559618651867L317.830790875,150.87140164151788L320.47829490625,152.68239498510957L326.21473665625,173.00103046000004L327.8197836875,172.5460751336068L328.5167071875,171.49550261721015L329.50059918750003,173.50476478040218L331.56830971874996,172.77438604831696L333.848318375,170.85682659223676L335.32305828125,173.0595382284373L336.45116659375,171.61837343499064L337.66602431250004,171.34317523241043L338.8051135625,172.0601318590343L339.3314665,170.04915815219283L340.45701259375,170.66954768449068L341.16747925,169.09100899286568L342.68211656249997,152.7285165823996L343.63928828125,152.2912622205913L345.034233375,149.88208437152207L345.18723443749997,149.02915010601282L347.36255815625,151.0661122519523L348.66233512499997,149.69701245427132L349.80691484375,150.45270401611924L350.82228553125,149.13630174659193L351.5239674375,202.94209945388138L352.60998215625,173.31000912934542L354.53786875000003,172.82149853929877L355.84094,173.3409520369023L356.01956325,173.49120755307376L357.05652978125,172.81794033013284L357.57483003125003,171.8789784759283L357.660847375,172.09075948223472L358.35886896875,173.0263883303851L358.4038908125,172.7115093395114L360.52943428125,172.31064780056477L361.0993449375,171.85947588644922L365.7084104375,171.54031803645194L369.227434875,171.8556023929268L369.60664325,171.3718210682273L370.35334700000004,171.85060288384557L371.324061875,194.78227006457746L372.1161535,194.07427652180195L372.23108731249994,194.4032532274723L372.98840596875,190.9921016935259L376.79732715625,194.01018371619284L377.20655009375,193.4721284415573L377.67982850000004,193.73012112639844L377.98839284375,193.34619486145675L378.07624034375,193.23994403332472L378.26804071875,191.6201030910015L380.64870796875005,155.97360334172845L381.27535346875,154.39294774085283L382.55353459375,152.73973169736564L383.32476243749994,151.76757490448654L384.13625371875,152.4976383522153L384.233252,152.43629302456975L386.870141125,151.05269014649093L386.90711028124997,152.7981493845582L387.07182434375,151.4731893967837L389.66039734375,150.30762817151845L389.8005873125,150.3208701144904L391.74018690625,172.05468194372952L396.45832971875,148.74030459485948L397.03446290625,149.97085943818092L397.2171125,151.9545835684985L397.41989381250005,149.8691577129066L397.79653996875004,150.02283631637692L398.43746068749994,171.73737075924873L398.68087146875,171.3223664648831L398.7215009375,171.24480651319027L398.88401881249996,171.41587079688907L400.29214103125,149.74547616392374L401.285915875,149.324346344918L402.56812334375,158.50074258074164L403.15194318749997,149.22480656951666L405.1226554375,148.97965046204627L408.094097125,149.38753833808005L411.63764565625,148.68612072616816L414.600668625,156.56259956024587L417.1445858125,148.91010774113238L417.83821503125,148.12405879981816L419.27378959375,147.7620222773403L419.56441840625,148.4180389419198L420.59150209375,147.28999655507505L421.16397496875,147.04902922548354L421.65518890625,145.32847745157778L422.2851286875,137.20823876932263L423.1226081875,133.96117022261024L424.29281009375,130.39462854154408L425.509864,130.31648306176066L426.73753281250004,129.56263816542923L427.22764865625004,130.77625773474574L427.27523271875,130.74504458345473L427.54939012500006,128.45063024014235L427.6826255,128.71461332775652L430.61380375,148.00753870978951L430.9622655,148.53933333791792L431.44542674999997,146.97142423316836L432.43334509375,147.05402873456478L434.73458356249995,145.9508487712592L434.91540299999997,146.6442941930145L436.41320287499997,145.18146486021578L437.2382373125,144.19295832142234L437.3692765,144.21156009845436L438.57315328125003,131.84984600916505L440.67417265625,127.87073222734034L442.02409590625,126.45060140453279L442.78983328125,127.29488787055016L443.57423825,125.92844546958804L444.04458840625,124.80733933858573L444.656226625,124.7987365797162L445.68514046875,125.0071395393461L446.178916625,125.32616226747632L446.54824215625,124.20537142083049L449.70343153125003,124.54461738839746L450.96184696875,126.10014032199979L452.7989578125,123.64610201306641L455.20817550000004,122.63714703172445L455.719155125,122.88532086089253L457.04601840625,122.82996593602002L459.99440012499997,122.03689065761864L460.34542409375,121.4977544080466L461.27441140625,121.38186488673091L461.716211125,120.8025524020195L462.4504698125,121.38470244593918L463.67447831249996,121.14666275680065L463.89080278125,121.14832925982773L464.872864625,121.92613576725125L465.06173674999997,120.80390362069011L465.3406525625,120.46839602477849L466.42227490625004,122.12526035867631L467.79123178124996,124.07876223139465L468.8340548125,125.53659205511212L472.4343381875,142.5994211025536L474.98264774999996,120.952177349478L478.10160003125,118.63803521357477L479.812796125,119.0694342944771L480.6173328125,117.97125384025276L482.81827871875004,118.21298686042428L486.66380303125,118.68442705459893L486.99176703125,114.61325024068356L494.06641903125,124.21694686077535L495.66231528124996,123.23573690280318L496.16231396874997,122.4584708828479L497.87900053125,117.50454291142523L498.29078568750003,110.55364886671305L498.29407996875,110.48838500492275L501.04956321875,99.30727570876479L503.6026311875,95.69443226791918L504.26112140625,95.86657752655447L505.698526125,120.80611061118543L506.380808375,119.05650763586164L507.0382005,118.21640994772315L507.28014715625,118.75469042547047L507.6472765,118.20924848876894L510.05173578125,117.35050398297608L510.34382871875,117.5560693833977L510.73950849999994,118.42557859793305L510.98877578125,116.3710506092757L512.40092434375,105.77564956620336L517.27499646875,92.70013169385493L517.704351125,93.6750359646976L518.1326076875,93.4286187198013L520.6556610937499,92.03582755476236L520.814152625,91.50916755758226L523.118685375,90.73370316252112L523.3426965,90.02134067937732L525.136249625,89.29019625671208L528.29985771875,89.01630423218012L528.98360409375,87.96965024992824L530.46163828125,87.1713052187115L532.811192875,86.13073172047734L533.121587375,87.06140610016882L539.15927284375,85.63159154355526L540.0227405625,85.30423630028963L541.69952971875,84.85662259534001L542.6427922500001,85.3083349969238L542.69293853125,85.11961478926241L542.7357641875,84.87342274747789L543.84008046875,84.92175133526325L545.11679746875,83.72898557409644L546.3140856875,92.96127722226083L546.647174125,84.58935154229403L547.3312865312499,83.77195432782173L548.03626271875,84.22105437330902L548.3111521874999,83.95180153287947L549.86971325,82.87028610892594L552.00770178125,84.42360205203295L552.2598973125,83.32879964448512L553.51831275,83.78033188357949L558.3213748125,82.39997193031013L560.724736,81.30944838188589L561.65262521875,82.0402324795723L561.69398675,81.78714922256768L561.95862734375,82.41033127345145L562.04281453125,81.99469641037285L563.29024903125,81.43146342784166L563.5417125,81.0752371456474L567.9099294375,80.87642783857882L569.25216603125,80.74297247454524L569.4157819999999,80.82377535104752L570.4428656875,80.210817521438L570.61599846875,80.3153568059206L570.7001856562499,79.30563613399863L571.73678615625,80.36138832196593L572.76240571875,80.48790743015707L574.54204965625,80.00020757131279L574.702737375,79.69330077059567L576.19577884375,80.34999304451048L576.2144464375,79.88269658759236L576.371839875,80.15510227158666L576.5962170312499,80.10807986184955L577.5658338125,80.81062348932028L577.73457421875,79.5670068655163L577.7942373125,79.66915899701416L578.3081451875,80.54668544232845L579.1591678437501,80.51970610953867L580.254699375,78.84883414208889L580.76824121875,79.96642710454762L580.82241384375,79.95066288672388L581.587053125,79.87058066017926L584.2363873125,79.52331746183336L585.43001521875,80.00133358687162L586.47320428125,79.24717340618372L587.52408,78.49458964727819L587.72210290625,79.15326370857656L589.6056997187501,79.2316794320941L590.796399375,79.48016854561865L591.9687974687499,79.30383450910449L592.17011465625,79.43021849542856L592.354228375,79.86832862906158L594.0756733437499,79.49503195099533L594.27479434375,79.47386285848916L596.93218121875,78.36816062033176L598.67229378125,78.17250415682793L599.3944734375,78.64038614183664L599.5987188749999,78.51197532750666L601.7886838437499,78.83464634604752L605.23962646875,78.98062300309539L605.973519125,78.70339797250926L607.03500975,77.22453417815268L607.2377910625,77.60179443098605L609.47753628125,77.30826469510794L611.83258134375,77.77578635513783L613.9156651874999,77.36834888532758L614.55658590625,85.68397378735244L615.02437384375,77.39181504957378L615.5620737500001,77.62611636705697L615.63930634375,77.38668041862547L615.93066721875,77.38208627514541L616.1579726250001,77.6031006090343L616.66419384375,76.9788826238364L618.19749875,77.16553096286952L618.20738159375,77.21246329136193L620.01118359375,79.59925595112145L621.3680614374999,77.65890594013035L621.9895825,76.7273307479918L622.7311618125,76.71512473933399L625.3900128125,77.29263559915125L628.19710646875,75.47114779055119L630.6286520625,76.67472330108285L632.1579306250001,74.45070745050907L637.1279029374999,75.86836103908718L639.89180490625,76.29345443286002L642.026133125,76.93298622965813L642.82591140625,75.60595437325537L642.9024119375,74.95016291178763L647.7504958437501,75.51753963157535L649.919231,75.61856574751437L650.19741475,75.09690525941551L650.77391396875,75.4687155969441L653.5714908125001,74.87575580365956L653.80684890625,76.47168017551303L656.2014253437501,74.80995145440102L656.97155509375,76.05964856222272L657.77975209375,80.5529460888356L660.24826684375,74.44814013503492L662.872344875,74.28653438203037L666.86171946875,75.24414305388927L667.93858340625,74.75892042927444L668.07035465625,75.55258123576641L669.08645740625,74.78927780874074L669.58938434375,74.63505871780217L671.1629526875,78.40874222107232L672.267635,77.32447931915522L672.45797125,73.87594406865537L673.680515625,73.77978233993053L674.6750225312501,75.57600235939026L675.11059971875,74.84886655211449L675.5326337500001,74.60925044119358L675.83131525,74.95029803365469L676.73321625,74.75783945433795L677.40195534375,75.29976822249591L677.66037340625,74.77765732817352L678.266155125,77.12904805876315L679.00590428125,76.63864576257765L679.32142321875,75.89371890947223L685.7613770312499,74.58299175836146L685.90046890625,74.84152493067086L686.4938055624999,73.98575310595334L687.4864823125,81.66954815760255L687.55346603125,78.4604488555342L690.10946225,74.4979100227356L692.19986671875,74.45575200021267L693.226584375,73.7641082033515L693.36384609375,73.22199927270412L693.9121609062499,73.82684979029L695.41654934375,73.97737555019557L695.564792,73.58367547020316L696.3506610937501,73.66609980911016L697.05417315625,73.06859091296792L698.03513690625,73.91512941010296L698.0468499062499,73.43900499120355L699.43630453125,73.26636428572237L700.064048125,73.13480062782764L700.9937675,73.6671357434243L703.16543090625,72.6829531043768L705.103566375,74.8229681942612L706.8553919374999,78.89612679556012L707.15590359375,74.32463874854147L707.24155490625,72.40775490179658L709.0113160000001,73.6311482861638L710.1950610625,72.90477816946805L710.2225134062501,72.86198957823217L710.4736108437501,74.46993979625404L711.6020851875,72.66038775257766L712.96774778125,73.08390472456813L713.08560984375,73.15335736423731L713.20786428125,73.11822567880154L715.7719131875,72.4758112821728L716.1222050937499,72.77704296447337L716.9549261875,74.74865116737783L718.19174578125,73.23447552509606L718.32132084375,73.94589215517044L718.7221250625,74.0271003972739L720.7232179062499,72.85212568193674L723.45454309375,72.66322531178594L724.790191125,72.6964202504605L726.339235375,72.86388128437102L726.89450478125,72.35793997347355L727.08191278125,72.2552923951298L729.630588375,72.81816505268216L730.750644,73.36572389863431L731.35349746875,74.88080035336316L731.71733253125,71.74827010929585L731.935121125,72.9896797426045L733.071282125,72.82847935520113L733.639362625,72.45986690185964L734.6561974375,73.33338473178446L734.91351740625,72.95238610729575L735.3018765625,72.72326446138322L735.70231475,73.28424541279674L736.39960428125,72.75812590308487L737.9929383125,71.66449455171824L737.99403640625,71.65530626475811L738.02990746875,72.59273673780262L740.84615190625,72.94202676415443L741.07748365625,72.18075016513467L741.2407335937501,75.75454338639975L743.1876538124999,72.7515049315989L743.8864074687501,72.386405646801L745.4457005937501,72.3674885854125L745.872127,72.56373057700694L746.0320826562499,71.60981523618102L746.9021389374999,74.67636096850038L748.08698209375,71.86677198670805L749.18141553125,72.78542052023113L750.31245209375,74.22478368878365L750.8069603125001,72.34244599938393L752.0836773125001,72.13868222385645L756.13747340625,72.13782645203173L756.3779559375,71.49455628357828L756.77143953125,72.58629592880607L757.34098415625,74.44431168213487L757.5547464062499,72.0575640629977L758.1136761249999,71.04478062875569L760.01960084375,70.97402181103826L760.0734074375,71.07468760199845L760.7491011249999,73.19736205227673L761.7275026562501,69.29040334746242L763.1993143125,71.18958622962236L763.7937490625,72.62831882946193L764.7439661875,72.65358661860228L766.6378118750001,71.92176658660173L767.2476199375,71.98964280448854L767.9145288750001,72.08832680806518L767.920385375,72.00973092205822L770.01078984375,72.05337528511882L770.20112609375,72.37334386631846L772.4467278125,71.58873622491956L773.2212499374999,71.67071015760303L773.9869873125,72.0551318693906L774.303970375,71.72948816977441L775.1136315,72.08251656778157L775.8445959062501,71.93257633596659L777.1703610937501,72.61665330827236L778.7212355,71.54450633376837L780.53858065625,71.13522219844162L781.20109721875,72.02806245535612L784.50416321875,71.61233751103282L784.78454315625,72.62255362980068L785.4518181249999,71.59778939001262L786.73622178125,70.77025803551078L787.0001303125,71.38875586166978L787.27941215625,76.30800255388021L787.852983125,71.64553244970739L787.98072803125,71.64404610916972L788.5301409374999,70.51861607842147L789.74353453125,72.067157715559L792.5616091250001,72.1108020786196L793.6794685625,71.31925818137825L793.8039191875,71.59814971499145L794.44044753125,71.74759449996054L794.6889827499999,70.11243974603713L795.1611630625,71.03752908855677L796.0667243749999,71.30286339484155L799.413714125,70.57829490303993L801.1322308437501,71.26593008451164L802.1197831562499,70.91015420854092L802.8595323124999,71.88474319502711L803.27351365625,70.91213599592447L804.224828875,72.35028306767344L807.47555240625,73.22308024764061L808.65710128125,71.28358600847423L809.13806634375,71.42537388764322L810.11170946875,71.67661047913134L812.28959540625,74.43629445135593L813.2474991875,71.02505283616483L814.7855625,72.5430118907243L815.7024707812501,71.02271072380245L815.9641831250001,71.01118032447994L816.05532490625,71.64584773406386L816.4261145625,71.08018255792558L817.5124953124999,71.42375242523849L817.70026934375,71.25746244750917L820.2679785625,71.91856870241463L820.636206,76.66958867013454L820.9297630625001,72.15701375715435L821.43269,80.09488295949996L822.5549418125,70.44249742664397L822.91767878125,70.25521851889789L824.3031070625,74.30621713399887L826.8342131562499,71.06955297105014L827.0655449062499,71.4713603630662L827.41986315625,70.67427646927536L828.1120282500001,71.00028049387038L828.9473115625,71.09072206355631L829.80199453125,70.18882864154875L833.1592331562499,70.52028258144855L833.54503009375,70.20707009360194L835.135435875,70.92154948599637L836.6537335,70.86024919897318L837.06478659375,71.33551784604788L837.55856275,69.66662766598165L838.08674584375,71.4999611582607L838.90299553125,70.73535155318677L840.65042871875,71.04536615684628L841.09113034375,70.88803926296532L845.3034179687501,70.91110006161034L845.565862375,70.41416687518358L846.4959477812499,70.97447221726179L849.34952740625,69.91403580456972L853.1888291875,70.55807166360319L855.45273246875,69.99992827139795L859.2726345937499,70.11649340204895L860.00103678125,70.56829588487744L861.5903444687499,71.21886263415217L863.7920224375,73.99552692100406L864.852781,70.40885208174586L865.31654259375,69.82553098164499L866.8769338124999,70.35038935393095L868.5087011249999,71.1001355536282L868.980149375,70.461864894256L871.38241246875,70.3511100038886L872.73526396875,69.62428948096931L874.1825515312499,70.33120204880834L875.0496795625,70.51694957539439L875.366662625,69.50997638143599L875.682913625,69.26711734570563L876.8981373749999,70.40578931942582L877.07712665625,69.12596003524959L878.43803084375,70.0569046586752L879.2180434375,69.20347494632006L880.1920525937501,70.53266875259578L880.3992262812501,69.42665123008192L883.5057334999999,70.17864946089685L883.6528780625,71.55603673309088L884.0086604375,69.33620966039598L884.4533884062499,69.82129716314375L884.4566826875001,69.85962673276663L885.7279092187499,70.75944828614593L886.6924015625,69.56060204096138L887.71545890625,69.43741593882442L890.8988326875,70.86502350494266L891.36479046875,70.06613798625767L892.6239379687499,70.0721283890307L893.28718659375,70.50532909482718L893.60197346875,69.65631336346269L894.2000685312499,70.40015924163163L894.68396184375,71.8991111535579L895.1887189375,69.97853397578001L895.4112659375,71.1711195744574L895.75350515625,69.55339554138482L896.08659359375,69.81350513547659L896.1023329374999,69.76751866005361L896.55694375,69.76346500404179L897.1403975625001,69.77783296257257L897.9701904062499,70.02798857912421L898.4903208125,69.57681666500866L898.5089884062501,69.54609896056354L899.45005475,70.17446068301797L899.956642,70.4613694474101L901.18614096875,67.3321271687746L901.4515136250001,69.47443933039904L901.9793306875,69.40088799409568L902.41930025,72.066392024979L903.0378930625,69.23788598179817L903.6451389062499,70.98433611355722L905.1184146874999,69.63595500215888L905.5166566875,69.78945344313979L906.3208273437499,69.13262604735792L907.7318778125,70.03415914438665L908.136708375,69.74504338949919L909.2066177187501,69.2299137916416L909.41964790625,69.38372751697898L910.608151375,70.32967066764832L910.69929315625,68.64542163535953L915.37131603125,70.48803349584341L915.4917403124999,69.52614596486092L916.2640662499999,74.40863950923085L918.0305330625,70.01663834229112L918.58214215625,70.5537928044796L919.89253403125,82.67566557973623L921.13191584375,74.02912722527981L922.76148696875,69.90200995840132L923.08286240625,70.96740083955228L924.71682590625,68.94570746459067L925.07700065625,69.18771072849631L925.65203575,69.39710458181798L927.0034231249999,69.37728670798242L930.6758146562499,69.95605870522559L932.70911825,89.94544723071158L934.19081275,70.05663441494107L936.3108657500001,69.43642504513264L938.0158393125,69.75828533247113L938.50668721875,67.63124194182456L939.6476066250001,69.07303730398417L941.30096978125,69.52979425527155L941.3749080937499,69.43174082040787L941.66956325,70.76854649186134L942.2969408124999,70.42173369973898L942.697379,69.54848611354828L943.5136286874999,69.1596053801477L944.22555946875,72.68646627292037L944.558281875,69.16140700504184L947.867204375,69.13150003179908L948.0026359375,69.30346512794495L948.10622278125,70.27927021123469L950.76580584375,70.0024955868721L952.2727565,69.09785468690097L953.1036474375001,69.94124034047127L954.51872425,69.01358368247747L956.22186765625,69.1406883187592L957.7698138124999,68.66235690936446L959.9572165625,69.08258591592312L960.74235359375,69.53137067705393L962.25186646875,69.19320568442345L962.2723642187499,69.13447271287441L964.72843390625,69.35075778141618L965.46854909375,69.21946436725557L969.7888159375,213.03088357672095L970.3404250312501,201.7015005517751L970.69693946875,191.16514776460826L971.81845921875,166.52774717472494L971.9864675624999,165.1705381013453L972.107257875,165.09446449019015L972.599203875,157.0548034813255L975.2540285312499,149.31353659555316L975.419108625,148.2308951560408L978.2807409375,119.81823464110494L979.9791259374999,91.2035669349134L981.96484546875,85.08218603208661L982.6998362187501,84.29933497495949L983.27377321875,82.09283992648125L983.7796284062499,81.50523996725678L984.49046109375,81.5015466362238L986.15297503125,78.87266063131392L986.9622701249999,79.23122902587056L987.16468540625,78.98611795902252L988.7711965625,77.72299874573946L991.1606485625,76.63706934079528L991.2309265625,77.75849075615406L992.5954910625,76.76070584915578L993.8421934999999,75.97001772373915L996.2770333750001,75.21896534599364L996.48969753125,75.04137017205358L997.7762973749999,74.88206149078906L997.8776880312499,74.12627984769642L997.93478890625,74.28968722559512L998.56655884375,74.13645902834833L1000.6657480625,73.55543499998748L1000.711868,73.58173872344196L1000.7312676562499,73.42459199205041L1002.3300921562501,72.91275035962462L1005.5881363125,72.77105256170034L1005.618150875,72.62557135149837L1007.2037982500001,73.11881120689213L1007.4087757499999,72.26988555677235L1009.4889313437501,72.006262794137L1011.7407555937499,72.4530207272619L1012.65802990625,71.30191754177213L1012.7045158750001,71.29097267054021L1013.51820334375,71.4561366327107L1014.27735215625,67.57723823562264L1015.2312295937501,71.52040960080922L1016.35860584375,71.50234831124544L1016.49184121875,72.6374620757997L1019.640076,70.67486199736595L1021.4640097187499,70.4777642339468L1021.662032625,70.70382311753929L1021.673745625,70.91200087405741L1024.0814991875,70.58243864029646L1024.20851203125,69.75328582338989L1024.3578527812501,70.2869271170348L1025.0609988125,70.26332583092153L1026.50059971875,70.22972552664578L1029.050007375,70.012674767524L1029.21215921875,69.79819132387638L1031.9702046875,69.63018980249763L1033.1620024375,69.41953481175005L1035.9668999062499,70.13329355418682L1036.1180708125,69.70180439203978L1036.2106767187502,70.07014660164714L1037.1371018125,70.1983772534877L1037.46616390625,70.11703388951719L1039.1583263750001,69.25144320912659L1039.915279,69.16244293935597L1040.03277503125,69.4543962534517L1040.0591292812499,69.23657980374992L1040.824500625,69.4156162776053L1041.635625875,69.51736304350197L1041.6700328125,69.43601967953146L1042.1751559375,68.85958979465067L1042.40831784375,68.91620585694909L1044.026542,69.23797606304288L1045.40391759375,68.70658680051565L1045.7560396562499,71.13963617943227L1045.85633221875,68.79356024228036L1046.83876009375,69.35165859386325L1048.3398542500001,69.36508069932461L1048.4247735000001,69.4460637383163L1048.536047,69.0798834785819L1049.5016374375,68.25991894863546L1049.79263228125,70.90574022755027L1050.1571994062501,68.52610902674496L1050.34021503125,68.83216005563736L1051.4474595625,68.55804282799363L1051.94453,68.81968380324543L1054.6886662812499,69.20221380889416L1054.861067,68.58623825758696L1056.60154559375,68.19091671518981L1059.15717578125,68.59934507869184L1061.4294977812501,68.14132698997855L1061.7344018125,68.15182145498693L1062.6985281250002,69.51033670641482L1063.06895175,68.23118303157389L1063.15423703125,68.07412638142705L1064.6509388125,68.46363768354058L1065.58175628125,68.82414282485843L1067.33431390625,68.31257143616676L1067.6538591874998,68.801667554304L1068.05027103125,67.79924346320331L1069.37237590625,68.43927070684731L1070.91190334375,68.00395309180021L1071.00414321875,68.12713919393718L1071.03415778125,69.05065211467445L1075.8280690625,68.67631950229406L1076.62674925,68.4436396472156L1076.78487475,67.90896241925657L1078.8529513125,67.32113725692034L1078.8990712500001,67.5012547057122L1080.32256678125,68.02417633123696L1084.95359415625,66.86816371791065L1085.44993253125,68.46111540868878L1086.6303833125,67.86856098100543L1088.75812296875,67.0690448936075L1089.12708246875,66.99851127900183L1090.83461825,67.46355570480227L1092.08388290625,67.69483930058777L1095.629627625,294.61602560803294L1097.30714884375,294.40172232687473L1099.33422990625,185.23073048517108L1099.59045178125,84.91895881667733L1101.93231971875,73.60835773125291L1102.12192390625,74.43215071409941L1102.17682859375,73.11944177560508L1103.606180625,72.76596297137439L1105.24856284375,72.30582797341049L1105.609103625,72.35586810484529L1106.75661159375,71.0056853685528L1108.4063144375,70.57397100329399L1110.35909115625,71.29989071376622L1110.59481528125,69.78535474650562L1110.61824128125,69.78729149326682L1111.3155308125001,70.2268879674375L1111.36933740625,69.81985586322844L1111.891664,70.17301938310266L1111.8923960625,70.15495809353888L1113.43485175,70.50776128843427L1114.78514103125,69.77269833162427L1116.1383585625,69.70486715435982L1117.21815075,69.77224792540073L1117.50511925,66.72673616372049L1118.35614190625,68.9631381854415L1118.63542375,68.21514857001603L1120.75730690625,68.86103109456599L1121.28146365625,68.88994717411697L1123.2353384687501,68.68672388605773L1123.4706965625,68.89940570481122L1123.69946609375,69.03506805934012L1123.7781628125,67.8809021115303L1123.8440484375,68.26311683282256L1124.494852,68.53038788586855L1125.0940451562499,68.71145118772984L1125.25290271875,68.7458171825856L1125.59990034375,68.6064614970237L1126.28437878125,68.55479990318418L1130.4805610312499,68.50759733095765L1130.83707546875,67.59313757531345L1131.99812659375,67.38698664680123L1132.76093571875,67.65668989345431L1134.147828125,68.06484801322222L1135.1880889375,67.81960182450712L1135.4457749375001,67.15691914781928L1136.9633405,67.26123322919011L1138.5325164687501,67.45963717065752L1138.9113588125,67.80509874410927L1141.518233375,66.77533499523997L1142.36413159375,67.01747338101268L1144.4237894375,67.19295164570212L1146.58593603125,67.68610141985118L1146.679274,67.71069359965622L1147.0621426875,67.093186667189L1147.4753919687498,66.99490802921355L1148.04493659375,66.72862786985934L1149.25723209375,66.43766544945538L1149.5511551875002,66.86068697459996L1150.6726749375,66.2396218329668L1150.90510478125,66.9131142590195L1152.3699618437502,67.60728033073246L1152.630942125,67.0684593655169L1153.7429450625,69.26130710542202L1154.3143198437501,66.43181016854942L1154.81139028125,66.91279897466302L1155.4354735625,66.77294784225523L1155.90509165625,67.00391615368426L1156.4193655625002,66.565265532583L1156.70011153125,66.77614572644234L1159.898858625,66.46851827576756L1161.201929875,66.50689288601279L1161.5976096562501,66.79758506268263L1163.2696404062501,66.31492975354195L1165.5218306875,66.89843101613224L1166.8776104375,66.15323391929269L1167.42482715625,66.15643180347979L1168.70886478125,66.94279602915049L1168.9907088437499,66.60913509875536L1169.3578381875,66.19764397293329L1170.396634875,65.98311548866332L1171.83477165625,66.22948769293725L1172.010100625,66.01113075576723L1173.761194125,65.82966208830476L1174.8351298125,66.0195983927697L1174.950063625,65.96185631491244L1177.4840979687501,65.94703795015812L1177.6389291875,66.13769490458071L1177.90283771875,65.70431403629482L1180.4485850625001,65.8567765429616L1181.12903715625,66.37123053148389L1181.5393581875,66.06684600561857L1181.56241815625,64.48929820768535L1182.75641209375,66.29119334556162L1185.08583496875,65.10140026547015L1185.9002545,66.57170634157956L1187.60120171875,65.92816592939198L1189.4492935,65.86866726726294L1191.4405035,68.00904268212616L1192.1601209375,65.74818360246718L1192.542989625,65.86461361125112L1193.08325175,65.51820618472993L1193.553235875,65.271833980456L1193.7900580937498,65.87997246347368L1194.53163740625,66.69070366583765L1195.34056646875,65.57094875350595L1195.781634125,65.41763047501445L1196.103741625,66.07103478349745L1198.099344,66.57783186621964L1198.5305288125,65.32696370221674L1199.33543153125,65.50167627632618L1199.5693255,65.14211698807776L1200.36544346875,65.5494643766433L1201.2845479375,65.90983439609408L1202.26514565625,65.24926862865686L1202.35079696875,65.53865462727845L1202.7442805625,65.37218448705971L1203.91887484375,64.87570170685649L1204.8965443125,65.43771859258413L1206.75781321875,65.76638001389802L1207.1512968125,66.16580025292933L1208.5213517812501,64.87799877859652L1210.036355125,66.01919302716851L1210.4005562187501,65.77237041667104L1210.60406959375,65.89519619382918L1212.332103125,63.67712570540607L1212.48327403125,64.22342341393232L1213.7588929375,65.23985513858497L1215.19117321875,65.25985317490995L1215.3342914375,64.97645757906139L1215.5714796875,65.51563886925578L1216.27975015625,65.65170658938587L1216.97301334375,64.85273098945618L1217.1388255000002,64.60050350427628L1218.302804875,65.63778903707862L1218.7193484375,65.27719381451607L1218.914809125,65.74210311844945L1219.3357450624999,65.41731519065797L1220.29584503125,65.07541182637215L1220.475566375,64.83489490300417L1221.29584240625,64.31017165258527L1224.35586365625,65.14630576595664L1224.69700478125,65.36169002205133L1226.55314925,65.68580234050751L1228.31558971875,64.95200052112341L1230.3602402812498,65.33439540490508L1230.36902503125,65.20431808754802L1231.17648996875,65.31250566244125L1231.91367690625,64.67936963401735L1232.1029150625,65.80124145559967L1232.82070234375,64.66824460029602L1232.8232645624998,64.6040617134422L1232.9019612812501,64.53762679547071L1234.7588378125,64.38354282639921L1235.151955375,65.52302553132176L1235.5326278750001,64.75584861077368L1235.8056871875,65.20562426559627L1236.16952225,64.45578798465431L1237.73650203125,65.07153833284974L1237.9956521562501,66.01045514643192L1238.9389146875,64.64730071090162L1239.134375375,65.44681679829955L1239.58422778125,65.21697450242937L1239.9491609375,65.61454807594419L1240.4799062499999,73.29865841194987L1240.7866404375,66.45721307955682L1245.702440125,65.34880840405822L1247.61495340625,64.44799595698714L1248.279300125,64.48020000196993L1248.91290021875,63.68293594568968L1249.96414196875,64.88119666278362L1250.4249753125,64.10262446478009L1250.75842978125,64.39664964750409L1250.83236809375,64.53942842036486L1254.0589335625,64.80323134548962L1258.706798375,64.33507911674678L1259.6207784062499,64.69598962366581L1260.34259203125,64.57167750597L1260.93849090625,64.95091954618692L1263.10027146875,64.51321477815509L1263.327576875,65.25386277213693L1265.2448485625,64.49452291987836L1265.55560909375,64.31111750565469L1269.10245190625,65.2116146683693L1270.8195045,64.11856884509325L1271.6606443125,64.42070133984089L1272.0998818125,63.82463374361396L1272.949806375,64.61338512226939L1274.08194103125,64.22229739837348L1274.2510474687501,64.44547368213534L1274.47139828125,64.33287212625146L1276.68735146875,64.26035672426224L1276.759459625,64.43101564235985L1276.77153865625,64.71945578791201L1276.9373508125,63.63050866127014L1277.31326490625,63.65622685663402L1278.22761096875,64.0241637006402L1278.293862625,64.11338917352259L1279.10681803125,63.596322828903794L1279.66830996875,65.18715761043131L1280.2638428125,63.4379600007087L1281.10900896875,64.01011102646589" fill="none"></path></g></g></g></g></g></g><g transform="translate(48, 377)" clip-path="url(#clip_1)"><clipPath id="clip_1"><rect width="1464" height="22"></rect></clipPath><g><g><line x1="0" y1="0" x2="0" y2="5" style="visibility: inherit;" fill="rgb(0, 0, 0)" stroke="rgb(204, 204, 204)" stroke-width="1px"></line><line x1="183.015625" y1="0" x2="183.015625" y2="5" style="visibility: inherit;" fill="rgb(0, 0, 0)" stroke="rgb(204, 204, 204)" stroke-width="1px"></line><line x1="366.03125" y1="0" x2="366.03125" y2="5" style="visibility: inherit;" fill="rgb(0, 0, 0)" stroke="rgb(204, 204, 204)" stroke-width="1px"></line><line x1="549.046875" y1="0" x2="549.046875" y2="5" style="visibility: inherit;" fill="rgb(0, 0, 0)" stroke="rgb(204, 204, 204)" stroke-width="1px"></line><line x1="732.0625" y1="0" x2="732.0625" y2="5" style="visibility: inherit;" fill="rgb(0, 0, 0)" stroke="rgb(204, 204, 204)" stroke-width="1px"></line><line x1="915.078125" y1="0" x2="915.078125" y2="5" style="visibility: inherit;" fill="rgb(0, 0, 0)" stroke="rgb(204, 204, 204)" stroke-width="1px"></line><line x1="1098.09375" y1="0" x2="1098.09375" y2="5" style="visibility: inherit;" fill="rgb(0, 0, 0)" stroke="rgb(204, 204, 204)" stroke-width="1px"></line><line x1="1281.109375" y1="0" x2="1281.109375" y2="5" style="visibility: inherit;" fill="rgb(0, 0, 0)" stroke="rgb(204, 204, 204)" stroke-width="1px"></line><line x1="1464.125" y1="0" x2="1464.125" y2="5" style="visibility: inherit;" fill="rgb(0, 0, 0)" stroke="rgb(204, 204, 204)" stroke-width="1px"></line></g><g transform="translate(0, 8)"><text style="text-anchor: middle; visibility: hidden; font-family: &quot;Helvetica Neue&quot;, sans-serif; font-size: 12px; font-weight: 200;" x="0" y="0" dx="0em" dy="0.95em" fill="rgb(50, 49, 63)" stroke="none" stroke-width="1px">-500k</text><text style="text-anchor: middle; visibility: inherit; font-family: &quot;Helvetica Neue&quot;, sans-serif; font-size: 12px; font-weight: 200;" x="183.015625" y="0" dx="0em" dy="0.95em" fill="rgb(50, 49, 63)" stroke="none" stroke-width="1px">0</text><text style="text-anchor: middle; visibility: inherit; font-family: &quot;Helvetica Neue&quot;, sans-serif; font-size: 12px; font-weight: 200;" x="366.03125" y="0" dx="0em" dy="0.95em" fill="rgb(50, 49, 63)" stroke="none" stroke-width="1px">500k</text><text style="text-anchor: middle; visibility: inherit; font-family: &quot;Helvetica Neue&quot;, sans-serif; font-size: 12px; font-weight: 200;" x="549.046875" y="0" dx="0em" dy="0.95em" fill="rgb(50, 49, 63)" stroke="none" stroke-width="1px">1M</text><text style="text-anchor: middle; visibility: inherit; font-family: &quot;Helvetica Neue&quot;, sans-serif; font-size: 12px; font-weight: 200;" x="732.0625" y="0" dx="0em" dy="0.95em" fill="rgb(50, 49, 63)" stroke="none" stroke-width="1px">1.5M</text><text style="text-anchor: middle; visibility: inherit; font-family: &quot;Helvetica Neue&quot;, sans-serif; font-size: 12px; font-weight: 200;" x="915.078125" y="0" dx="0em" dy="0.95em" fill="rgb(50, 49, 63)" stroke="none" stroke-width="1px">2M</text><text style="text-anchor: middle; visibility: inherit; font-family: &quot;Helvetica Neue&quot;, sans-serif; font-size: 12px; font-weight: 200;" x="1098.09375" y="0" dx="0em" dy="0.95em" fill="rgb(50, 49, 63)" stroke="none" stroke-width="1px">2.5M</text><text style="text-anchor: middle; visibility: inherit; font-family: &quot;Helvetica Neue&quot;, sans-serif; font-size: 12px; font-weight: 200;" x="1281.109375" y="0" dx="0em" dy="0.95em" fill="rgb(50, 49, 63)" stroke="none" stroke-width="1px">3M</text><text style="text-anchor: middle; visibility: hidden; font-family: &quot;Helvetica Neue&quot;, sans-serif; font-size: 12px; font-weight: 200;" x="1464.125" y="0" dx="0em" dy="0.95em" fill="rgb(50, 49, 63)" stroke="none" stroke-width="1px">3.5M</text></g><line x1="0" y1="0" x2="1464.125" y2="0" fill="rgb(0, 0, 0)" stroke="rgb(204, 204, 204)" stroke-width="1px"></line></g></g></g></g></svg>