<svg viewBox="0 0 1513 400" xmlns="http://www.w3.org/2000/svg"><g><g><g><g><g><line x1="48.875" y1="377.828125" x2="43.875" y2="377.828125" style="visibility: inherit;" fill="rgb(0, 0, 0)" stroke="rgb(204, 204, 204)" stroke-width="1px"></line><line x1="48.875" y1="330.59960937500006" x2="43.875" y2="330.59960937500006" style="visibility: inherit;" fill="rgb(0, 0, 0)" stroke="rgb(204, 204, 204)" stroke-width="1px"></line><line x1="48.875" y1="283.37109375" x2="43.875" y2="283.37109375" style="visibility: inherit;" fill="rgb(0, 0, 0)" stroke="rgb(204, 204, 204)" stroke-width="1px"></line><line x1="48.875" y1="236.14257812500006" x2="43.875" y2="236.14257812500006" style="visibility: inherit;" fill="rgb(0, 0, 0)" stroke="rgb(204, 204, 204)" stroke-width="1px"></line><line x1="48.875" y1="188.9140625" x2="43.875" y2="188.9140625" style="visibility: inherit;" fill="rgb(0, 0, 0)" stroke="rgb(204, 204, 204)" stroke-width="1px"></line><line x1="48.875" y1="141.68554687499997" x2="43.875" y2="141.68554687499997" style="visibility: inherit;" fill="rgb(0, 0, 0)" stroke="rgb(204, 204, 204)" stroke-width="1px"></line><line x1="48.875" y1="94.45703125" x2="43.875" y2="94.45703125" style="visibility: inherit;" fill="rgb(0, 0, 0)" stroke="rgb(204, 204, 204)" stroke-width="1px"></line><line x1="48.875" y1="47.22851562499994" x2="43.875" y2="47.22851562499994" style="visibility: inherit;" fill="rgb(0, 0, 0)" stroke="rgb(204, 204, 204)" stroke-width="1px"></line><line x1="48.875" y1="0" x2="43.875" y2="0" style="visibility: inherit;" fill="rgb(0, 0, 0)" stroke="rgb(204, 204, 204)" stroke-width="1px"></line></g><g transform="translate(38.875, 0)"><text style="text-anchor: end; visibility: hidden; font-family: &quot;Helvetica Neue&quot;, sans-serif; font-size: 12px; font-weight: 200;" x="0" y="377.828125" dx="0em" dy="0.3em" fill="rgb(50, 49, 63)" stroke="none" stroke-width="1px">0.55</text><text style="text-anchor: end; visibility: inherit; font-family: &quot;Helvetica Neue&quot;, sans-serif; font-size: 12px; font-weight: 200;" x="0" y="330.59960937500006" dx="0em" dy="0.3em" fill="rgb(50, 49, 63)" stroke="none" stroke-width="1px">0.6</text><text style="text-anchor: end; visibility: inherit; font-family: &quot;Helvetica Neue&quot;, sans-serif; font-size: 12px; font-weight: 200;" x="0" y="283.37109375" dx="0em" dy="0.3em" fill="rgb(50, 49, 63)" stroke="none" stroke-width="1px">0.65</text><text style="text-anchor: end; visibility: inherit; font-family: &quot;Helvetica Neue&quot;, sans-serif; font-size: 12px; font-weight: 200;" x="0" y="236.14257812500006" dx="0em" dy="0.3em" fill="rgb(50, 49, 63)" stroke="none" stroke-width="1px">0.7</text><text style="text-anchor: end; visibility: inherit; font-family: &quot;Helvetica Neue&quot;, sans-serif; font-size: 12px; font-weight: 200;" x="0" y="188.9140625" dx="0em" dy="0.3em" fill="rgb(50, 49, 63)" stroke="none" stroke-width="1px">0.75</text><text style="text-anchor: end; visibility: inherit; font-family: &quot;Helvetica Neue&quot;, sans-serif; font-size: 12px; font-weight: 200;" x="0" y="141.68554687499997" dx="0em" dy="0.3em" fill="rgb(50, 49, 63)" stroke="none" stroke-width="1px">0.8</text><text style="text-anchor: end; visibility: inherit; font-family: &quot;Helvetica Neue&quot;, sans-serif; font-size: 12px; font-weight: 200;" x="0" y="94.45703125" dx="0em" dy="0.3em" fill="rgb(50, 49, 63)" stroke="none" stroke-width="1px">0.85</text><text style="text-anchor: end; visibility: inherit; font-family: &quot;Helvetica Neue&quot;, sans-serif; font-size: 12px; font-weight: 200;" x="0" y="47.22851562499994" dx="0em" dy="0.3em" fill="rgb(50, 49, 63)" stroke="none" stroke-width="1px">0.9</text><text style="text-anchor: end; visibility: hidden; font-family: &quot;Helvetica Neue&quot;, sans-serif; font-size: 12px; font-weight: 200;" x="0" y="0" dx="0em" dy="0.3em" fill="rgb(50, 49, 63)" stroke="none" stroke-width="1px">0.95</text></g><line x1="48.875" y1="0" x2="48.875" y2="377.828125" fill="rgb(0, 0, 0)" stroke="rgb(204, 204, 204)" stroke-width="1px"></line></g></g><g transform="translate(48, 0)" clip-path="url(#clip_0)"><clipPath id="clip_0"><rect width="1464" height="377"></rect></clipPath><g><g><g><line x1="0" y1="0" x2="0" y2="377.828125" fill="rgb(0, 0, 0)" stroke="rgb(60, 60, 60)" stroke-width="1px" opacity="0.25"></line><line x1="146.4125" y1="0" x2="146.4125" y2="377.828125" fill="rgb(0, 0, 0)" stroke="rgb(60, 60, 60)" stroke-width="1px" opacity="0.25"></line><line x1="292.825" y1="0" x2="292.825" y2="377.828125" fill="rgb(0, 0, 0)" stroke="rgb(60, 60, 60)" stroke-width="1px" opacity="0.25"></line><line x1="439.2375" y1="0" x2="439.2375" y2="377.828125" fill="rgb(0, 0, 0)" stroke="rgb(60, 60, 60)" stroke-width="1px" opacity="0.25"></line><line x1="585.65" y1="0" x2="585.65" y2="377.828125" fill="rgb(0, 0, 0)" stroke="rgb(60, 60, 60)" stroke-width="1px" opacity="0.25"></line><line x1="732.0625" y1="0" x2="732.0625" y2="377.828125" fill="rgb(0, 0, 0)" stroke="rgb(60, 60, 60)" stroke-width="1px" opacity="0.25"></line><line x1="878.475" y1="0" x2="878.475" y2="377.828125" fill="rgb(0, 0, 0)" stroke="rgb(60, 60, 60)" stroke-width="1px" opacity="0.25"></line><line x1="1024.8875" y1="0" x2="1024.8875" y2="377.828125" fill="rgb(0, 0, 0)" stroke="rgb(60, 60, 60)" stroke-width="1px" opacity="0.25"></line><line x1="1171.3" y1="0" x2="1171.3" y2="377.828125" fill="rgb(0, 0, 0)" stroke="rgb(60, 60, 60)" stroke-width="1px" opacity="0.25"></line><line x1="1317.7125" y1="0" x2="1317.7125" y2="377.828125" fill="rgb(0, 0, 0)" stroke="rgb(60, 60, 60)" stroke-width="1px" opacity="0.25"></line><line x1="1464.125" y1="0" x2="1464.125" y2="377.828125" fill="rgb(0, 0, 0)" stroke="rgb(60, 60, 60)" stroke-width="1px" opacity="0.25"></line></g><g><line x1="0" y1="377.828125" x2="1464.125" y2="377.828125" fill="rgb(0, 0, 0)" stroke="rgb(60, 60, 60)" stroke-width="1px" opacity="0.25"></line><line x1="0" y1="330.59960937500006" x2="1464.125" y2="330.59960937500006" fill="rgb(0, 0, 0)" stroke="rgb(60, 60, 60)" stroke-width="1px" opacity="0.25"></line><line x1="0" y1="283.37109375" x2="1464.125" y2="283.37109375" fill="rgb(0, 0, 0)" stroke="rgb(60, 60, 60)" stroke-width="1px" opacity="0.25"></line><line x1="0" y1="236.14257812500006" x2="1464.125" y2="236.14257812500006" fill="rgb(0, 0, 0)" stroke="rgb(60, 60, 60)" stroke-width="1px" opacity="0.25"></line><line x1="0" y1="188.9140625" x2="1464.125" y2="188.9140625" fill="rgb(0, 0, 0)" stroke="rgb(60, 60, 60)" stroke-width="1px" opacity="0.25"></line><line x1="0" y1="141.68554687499997" x2="1464.125" y2="141.68554687499997" fill="rgb(0, 0, 0)" stroke="rgb(60, 60, 60)" stroke-width="1px" opacity="0.25"></line><line x1="0" y1="94.45703125" x2="1464.125" y2="94.45703125" fill="rgb(0, 0, 0)" stroke="rgb(60, 60, 60)" stroke-width="1px" opacity="0.25"></line><line x1="0" y1="47.22851562499994" x2="1464.125" y2="47.22851562499994" fill="rgb(0, 0, 0)" stroke="rgb(60, 60, 60)" stroke-width="1px" opacity="0.25"></line><line x1="0" y1="0" x2="1464.125" y2="0" fill="rgb(0, 0, 0)" stroke="rgb(60, 60, 60)" stroke-width="1px" opacity="0.25"></line></g></g></g><g><g><line x1="0" y1="897.3417968750001" x2="1464.125" y2="897.3417968750001" fill="rgb(0, 0, 0)" stroke="rgb(153, 153, 153)" stroke-width="1.5px"></line></g></g><g><g><line x1="146.4125" y1="0" x2="146.4125" y2="377.828125" fill="rgb(0, 0, 0)" stroke="rgb(153, 153, 153)" stroke-width="1.5px"></line></g></g><g><g><g><g><g><path style="fill: none;" stroke="rgb(204, 51, 17)" stroke-width="2px" d="M146.657008875,307.6915322202258L147.10649525,303.5800271590706L147.197271,301.9970991898575L147.27047725,301.1698467421777L149.790236375,299.5650085817174L149.91029462499998,298.6717314988244L150.05231475,298.0808642986922L152.9893495,296.0062923217368L153.92931775,289.4792400887947L156.238242875,283.64931154415086L157.339264875,280.20258935290974L159.9702975,278.01643584529717L160.2748355,276.5059729666887L161.63793587499998,275.6710744356876L162.378783125,275.0123647581703L162.46809475,274.56962574644564L163.936612125,274.24144522588153L167.34070275000002,273.88394129614596L167.8882855,273.58649229466835L168.05080337500002,273.48836738149134L170.0083385,272.9036339279411L175.167915,273.08410823979597L175.78577575,273.1015661743699L176.48416337499998,273.208315633344L176.54126425,273.2573664151178L176.946826875,273.3134158481503L177.626180875,273.2890105454786L179.10641124999998,273.31708843639905L180.615924125,272.8197737459931L181.113726625,272.5718080368942L181.766726375,272.22280053328717L182.02294825,271.7916385389444L182.615918875,271.2019152945054L183.386048625,269.655428172083L188.8662685,265.8473457201431L190.085884625,261.8062272853287L191.2322945,252.9285637262763L191.36992224999997,247.5174919384693L192.448982375,242.5352310126944L193.170796,239.37300855550947L193.901394375,237.1022883242934L194.99363162499998,235.19547270439116L195.825254625,234.0134366086932L195.87796312499998,233.28955422891423L195.95702587500003,232.8732185297593L196.0111985,232.58330843608573L196.961415625,232.35605680333566L199.052186125,231.6892398939101L200.041934625,231.25205879575577L200.08585837500002,230.95961796051213L201.70371649999998,230.42209441657667L201.8676985,230.06212901273L203.10342000000003,229.16123954660216L203.279115,228.62457936044888L204.54119075,223.4315750630844L206.838402875,216.5921741534534L210.305450875,204.03346293884312L210.823751125,196.49172784014863L211.126825,191.38843275084642L212.2454165,187.9216981444853L212.8427795,185.42730617532703L214.25126774999998,183.64328930290537L214.36693362499997,182.4530035630583L216.31568399999998,180.94145546131398L216.64657624999998,180.10224517597595L216.955506625,179.39779278845384L221.27906775,170.3514185970176L222.25124674999998,164.35493370463092L223.87349724999999,160.02107899994186L225.27320075,155.07011861680758L229.166309125,145.97102254545712L232.42398725,138.520521671197L234.52207837499998,132.61367301698536L234.530863125,129.0043675236017L234.955459375,126.59108332493815L237.391763375,124.26160026534743L239.63480287500002,121.99597763684002L240.879309125,120.12296080241572L242.52205737500003,118.53090839177355L244.19701637499998,116.97996967414014L244.539621625,116.53032768874016L245.15309000000002,115.48649688204307L247.707988125,114.4712050630684L248.48983087500002,113.75992288080812L249.861716,113.06187390301642L250.9920205,112.07701901522444L251.69187225000002,111.61881827631396L251.766542625,111.33304304298048L251.8470695,110.26749902895119L252.88806237499998,110.44340788513284L253.306802125,110.38126696181956L258.00517925,109.84565296211196L259.01249725,109.43969827350736L260.918788,109.41666686769872L261.961245,108.9549190349075L264.11350875,108.1635739888888L264.440008625,107.79456738318595L265.0007685,107.65304296350831L270.27893912499997,107.19854748497966L270.993432125,106.68794563059095L273.4692675,106.39957824658802L273.593718125,106.18563841077804L273.803088,105.35644242547085L274.366776125,105.05575235397146L275.456085125,105.12022417480813L276.24232025000003,105.10877705463065L277.227676375,105.09364382832223L277.251102375,105.1254832979455L278.144218625,105.03919192341203L278.530747625,104.9897366907432L280.561489,104.69590030103825L280.595163875,104.51995879219413L281.28769500000004,104.52911235202214L283.265727875,104.26478863970999L283.895301625,104.23523579536567L286.056350125,103.9562909994196L286.207155,103.77556957732412L287.409201625,103.51516966424606L290.59074525,103.2766179790479L292.6551615,103.00433298333036L294.08121925,102.859090836397L294.77960687499996,102.60545288770714L295.640512375,102.46047661806983L295.66979487500004,102.38162068862226L297.218839125,101.40318234503872L298.60390137499996,101.67110295271482L299.17051775,101.45576612066833L299.993356,101.50922626539534L300.0343515,101.56163819322421L301.27885775000004,101.54586025738388L302.43844475,101.43523225807343L304.299347625,101.41968380081317L305.39597725,101.1572489491412L309.403287375,100.8187697768991L309.95233425,100.79314232562695L311.71514075,100.57571362298557L314.927431,99.75640512312555L315.54529175,99.83082300401543L317.291992875,99.68932084036203L317.397409875,99.54550640813159L317.783938875,99.53150794767083L318.644844375,99.25493700590124L319.45743375,99.4737764776059L323.852737,99.36129779214008L323.854201125,99.29261700436825L324.0577145,99.22006025854711L324.161667375,99.19276335541286L324.794169375,99.11927370438798L325.33589562500003,98.6116218285103L325.96400525,98.64292114418532L329.85272125,98.23214831820451L336.852702875,97.43366675505081L339.20848,97.36906414436714L339.4954485,97.24080686134045L343.155761,97.2802149393749L343.174794625,97.34604032902962L343.29924524999996,97.43481000367728L343.889287625,97.35101319464405L344.969811875,97.1188610761605L346.518856125,96.73578743658169L346.52617675,96.5071593496379L347.078151875,96.283527022864L350.515917375,96.25059894585041L350.583267125,96.2602761463503L351.353396875,96.3384627467725L351.47052687499996,96.60062384125342L352.48809374999996,96.42921403600576L352.838019625,96.28180045703834L353.17916075,95.97344147101666L355.6242495,95.90014934315161L357.57739225,95.94407084095548L357.663775625,96.12340421346164L360.631557,95.72868869616735L361.193781,95.64806026411287L362.357760375,95.53626600860645L363.9873315,95.22597009459338L364.088356125,94.9831990041983L367.14105674999996,95.06186116959316L367.294789875,95.01985551625881L367.55686825,93.9617355318241L367.8994735,94.1254788161142L370.08101975,94.09436811928884L373.628594625,93.96102827668153L375.7706095,93.85276138059032L376.47046125,94.53633134582935L376.90969874999996,94.7661982340025L377.192274875,94.723415390024L381.0414595,94.34746476359334L382.6695665,93.90973053613851L384.45433487500003,93.64859886051448L384.755944625,93.51284122422328L385.49825599999997,93.45390695362528L387.43968575,93.4757479816555L388.671014875,93.22367593436707L388.86720762500005,93.12715706215363L389.164425,93.12892456344406L391.26398025000003,93.08201680141173L391.5011685,92.97725804556893L391.8642715,93.125845993702L394.32253737499997,92.89892619521572L395.259577375,92.69832118553614L395.5890055,92.87885205736131L397.68563249999994,92.69436149453588L397.742733375,92.56569594852164L397.757374625,92.49146930198839L399.6651295,92.40817585853324L399.842288625,92.58943834762323L400.52017850000004,92.543638945471L402.117538875,92.16898618707847L406.70025012499997,92.16246138796828L407.307862,92.30114511887348L407.99453662499997,92.27497420603095L408.05310162499995,92.26641059696851L408.7778435,92.11696227751031L410.41619937499996,91.99123826764134L411.49086712499997,91.91359687122474L411.57725050000005,91.78431745073362L413.01062887499995,91.20297043741436L414.265384,91.30609983411841L414.272704625,91.36363105208375L414.744152875,91.59085608560264L415.22292175,91.38598587107458L417.36054425,91.1082140827063L419.07942699999995,91.531222837538L420.33564625,91.47255877285926L420.4088525,91.41871351639764L421.584544875,91.48599117854434L423.60357325,91.0194480915543L425.09112424999995,90.97188681008231L427.839286875,90.76156608938021L432.351720125,90.55650752721778L432.502525,90.52249518000218L432.823168375,90.55136221252758L434.44395475,90.46907509570792L436.603539125,90.30903801649345L437.555220375,90.43846660415545L438.193578875,90.5308970808847L439.546430375,90.34694193880188L441.28873912499995,90.0450786476161L442.04862,90.0471634043277L448.18330375,89.58361755597707L449.55958125,89.65716722630322L450.378027125,89.6664130664862L452.04566550000004,89.44362713557462L452.31799275,89.38697504125219L453.8611805,89.33217501713148L454.158397875,89.27492802596566L458.416073375,89.33622359283407L459.540521375,89.34444517838295L461.68253625,89.14579451667424L462.59468612499995,89.1401965692246L462.697174875,88.62213608880967L462.7396345,88.33269409617867L465.397021375,88.51214737985191L467.80843525,88.69942865006567L468.316486625,88.61364119414958L468.907993125,88.37948395633384L469.745472625,88.44417216877599L470.37943875,88.3743245948134L473.698610125,88.23199798289858L475.613685625,88.40592339895011L477.666388875,88.34245728969182L477.80987312499997,88.25442757394666L477.827442625,88.17679236158284L479.370630375,88.05361965585234L480.483365375,88.15118568171408L481.086584875,88.06728432903782L481.09097725,88.02588408096938L482.12172125000006,87.65414105876107L484.659049875,88.17759852032407L486.17734750000005,88.16474563990852L486.34425775000005,87.90169862353696L486.370612,87.87237130928861L488.738102125,87.68958843825811L489.68831924999995,87.82667376520368L490.360352625,87.80010681776491L490.56825837499997,87.29919174810965L490.796661875,87.7197430701969L494.943063875,87.48018522672612L495.774686875,87.21321937788434L496.83324924999994,87.2348013000871L497.94012775,87.52900661969551L500.044075375,87.44123143948985L500.187559625,87.32663547563027L500.82445399999995,86.6841729700862L501.230016625,86.67656376799482L503.030890375,86.67814629169123L504.97671249999996,86.81941986485168L506.66045625000004,87.35857632736173L507.962063375,87.11390527418877L508.793686375,86.86490547016484L510.92106,86.87204427074028L511.96937349999996,86.82358498230963L512.478889,86.70321206774042L513.716074625,86.70568819117227L514.374930875,86.34484457870826L515.0733185,86.38335841499571L515.46863225,86.64207421229952L517.478875875,86.26456320948392L518.91811075,86.28704116816516L519.180189125,86.17290533993508L521.221179375,86.17335851550916L522.612098125,86.22168876490485L524.459823875,86.01656575954848L524.66919375,85.9477433859596L525.783392875,86.04276540535926L528.4803111250001,85.86448640582404L530.762882,85.7211937441748L530.88879675,85.74000515509078L531.262148625,85.85574120487826L532.8639013750001,85.82438192192348L533.2518944999999,86.03698506980322L534.34706,86.21661391797176L534.803867,85.97974038462354L535.2855641250001,85.88234160261158L535.4217277500001,85.76638545865904L538.6471951249999,85.69307340063216L539.803853875,85.69297825229955L540.660367,85.6245945391895L542.225516625,85.54235214187008L542.594476125,85.40220480881362L542.986861625,85.2737288756503L543.2665095,85.7419276102757L544.761381125,85.474184509851L545.1581590000001,85.44762458234283L545.754057875,85.30125098350197L546.02784925,85.27783491416301L549.6354532500001,84.77896801354598L549.81700475,84.56047326998925L552.617875875,84.73051802491096L554.726215875,84.8960746756938L554.973653,85.3894015102012L555.607619125,85.48744407566176L555.636901625,85.52278093038075L557.030748625,85.40075386412786L557.6910690000001,85.4557232355944L558.2371876249999,85.30243936473107L558.85944075,85.11570357278129L560.24743125,85.07788904324997L561.79354725,84.87747002972412L562.667629875,84.85892034688288L563.52121475,84.87199987169322L564.474360125,84.73193418277037L566.825744875,84.86573373942952L569.193235,84.80460843954614L569.9135845,84.91118495901162L570.0775665,84.89079230533378L572.203476,84.88869085315673L576.61049225,84.68481474219294L576.8667141249999,86.55341970550882L578.926738,85.57150090394379L579.168318625,85.08756451682274L581.0833941249999,84.73133077435807L583.235657875,84.50887516845376L584.4318480000001,84.18312338808397L584.895975625,84.26998694077406L586.869616125,84.21297164442552L588.327884625,84.26319111321811L589.209287875,83.89390255546232L589.30152775,83.69511997571982L591.540174875,82.8928994711273L593.415719,83.29976824118398L597.964755375,83.26835349597002L598.6148268750001,83.24819847079351L598.840302125,82.44212936483916L599.9208263749999,82.87297017722193L600.1682635,83.14521205446943L600.209259,83.32119107538801L602.690950875,83.29708401587214L604.3249143749999,83.67591449455387L605.761221,83.2272206011695L606.573810375,83.4502081862185L607.859312125,83.35812201614482L612.01303475,82.65921730035723L612.6030771249999,83.04788071559625L613.2165454999999,83.2668459280759L613.630892875,83.50720084134821L614.105269375,83.53239394474218L614.846116625,83.33879156279221L615.3453832499999,83.67082936666259L616.18871925,83.6670764843484L616.957384875,83.70180310591223L618.4288305,83.617987192812L619.396617125,83.34409347527765L621.234094,83.39457849307229L621.797782125,83.29875576115916L622.34390075,83.64074992197624L628.1828312499999,83.47778437134838L629.6425638750001,83.00495177863377L630.0583753750001,82.86475164582328L630.992487125,82.76392149524389L631.97198675,83.00064647180733L632.4273296250001,83.10032075242196L632.466861,83.16724173912252L634.342405125,83.12578072343825L636.086178,83.19267438207311L636.128637625,83.23118911484926L638.932437,83.00607908472443L639.4185265,82.93391229576633L642.3233505,82.8696007720635L642.3643460000001,82.80536322341158L642.58982125,82.71209633806069L646.793324125,82.54650733204164L648.702543125,82.46307578843226L648.8255296250001,82.5211819168486L650.807954875,82.63115083167298L650.851878625,82.67983658158386L651.127134125,82.69308113090602L651.944115875,82.55221364424318L654.626392875,82.1945668182936L656.197399,82.3548518225723L656.720091625,82.3266206261992L657.91042525,82.93432777948556L662.7039705,82.4878380238033L662.711291125,82.22525896383172L663.5487706250001,82.29203634748063L670.690772375,82.10773291741583L670.80643825,82.08700690097231L670.8562185,81.93951698497898L671.750798875,82.01361968207931L672.59267075,81.85172768902663L673.19003375,81.72826624942945L674.154892125,81.61581477542592L675.138784125,81.45526744493026L679.8430177500001,81.39841715212566L680.48137625,81.57669603115107L680.5223717499999,81.69289668614886L683.5531105,81.64999300295244L685.6731635,81.4607983745135L688.140214125,77.28914404370613L689.364222625,79.06888406233173L689.785890625,79.9009629357974L690.667293875,80.57683706043628L694.561866375,80.7084469903765L695.2470768750001,80.86319379545051L695.534045375,80.10725135024222L696.263179625,80.18084132714324L698.80050825,80.56167396537666L698.930815375,80.84647432625871L702.39054275,80.8092668675144L702.5281705,80.74579778374783L703.337831625,81.14958735908743L703.727288875,81.31148611370133L705.1987345,81.23220124871074L707.0420678749999,81.2056868206667L707.34807,80.43223993647592L710.842936375,80.85162109311511L711.2045752500001,81.06584355023409L711.961527875,80.78489020637812L713.97469975,80.58364122854698L714.066939625,80.45088851599104L714.46664575,80.43611790495783L714.633556,80.5757094296153L715.71993675,80.74803672826789L716.857561875,80.95554450602987L719.2089466250001,80.97600533505027L720.705282375,80.9053845670208L724.614496125,80.8271147301873L725.6291347499999,80.78134640457961L727.463683375,80.65538156812778L728.41682875,80.64598986080523L729.0390818750001,80.59049486746625L729.4212185,80.47083247809991L731.01125825,80.5925520784221L732.35239675,80.37180637931448L736.61592875,80.07092955255871L737.052238,79.94825813591837L738.213289125,80.37163351298341L740.4943958749999,80.2649959557263L740.6232388750001,80.19596887166847L743.0683276249999,80.12356467305449L743.700829625,80.15531747290538L744.58076875,80.31376987900018L748.544155125,80.37042167178947L749.7432735,79.9284009301195L751.308423125,79.99583600150964L751.98924125,80.01258315667468L754.047801,79.78956874940519L754.2234960000001,79.69294113879641L754.9555584999999,79.78726943691959L755.6422331250001,79.96779568819932L757.18981325,79.82579818023731L757.7783915,79.55973905639951L758.1356380000001,79.40989991745857L758.8720928749999,79.26288492494979L760.1546663749999,79.28484529172118L761.1517355,79.46759945494529L762.1122015,79.94262148141166L763.5865753749999,79.81166202954529L765.0140972500001,79.51308543853958L766.421121375,79.92237269467415L766.838397,80.0486324397404L768.711012875,79.46447560836697L768.7183335,79.23243834633274L769.57045425,79.44426259973574L770.971621875,79.57782048108538L771.6758659999999,78.68086646886832L772.30543975,79.02335083010593L773.4372083750001,79.35502275037197L773.8984077499999,79.46491303120507L776.178050375,79.35354478981026L777.056525375,79.35505046908366L779.019917,78.90962382943513L779.30981375,79.16531199148193L783.17510375,79.3007762007021L784.0711482500001,79.48013068140915L784.289302875,79.55810664032464L785.0784662499999,79.09924366882183L788.1502005,79.31155818383087L788.907153125,79.12562180343383L792.207290875,79.41886256859817L793.92178125,79.27868941970831L793.978882125,79.01032434432602L794.4869335,78.95870897079345L795.09893775,79.37656954842703L796.248275875,79.53155205219468L797.765109375,79.4856587954281L798.4620328750001,79.40706929593046L801.612829875,79.45916260758793L802.9173652500001,79.20837421740453L803.27754,78.96550034653603L803.8002326249999,78.89909255997964L804.128196625,78.80537930371088L804.435662875,78.6506475088625L805.901252,78.87804725688716L805.9495681249999,79.04752440219835L808.08865475,79.13770281037358L808.9993405,78.97739397256476L811.1530683750001,79.83431327950308L811.70797175,79.6252701108462L813.577659375,79.41793783790206L817.6391421249999,79.25029947667616L819.8821816249999,79.32145635297474L820.44586975,79.35721422291147L821.3799814999999,75.60383690573337L821.8441091249999,76.38128781554883L822.344839875,77.0039141991378L824.789928625,78.02089531961178L826.532237375,78.32456003646905L829.0900637500001,78.33914019049462L830.248186625,78.97019204165792L832.501475,78.81867250694341L837.71376,78.33881249178057L838.1998495,78.44380835178413L838.428253,78.44476241049426L838.5834502499999,78.41767990359517L842.576119125,78.3526514054468L843.811840625,78.09642590525789L843.9787508750001,78.08637019045227L844.306714875,78.3754429192295L844.649320125,78.51609698342236L844.9787482500001,78.55601180736397L844.9933894999999,78.74958368551239L846.978743,78.78672556079329L847.3433101249999,78.78065761419032L847.785475875,78.3523062977456L847.96556325,78.4837708756782L848.892354375,78.51360038469471L849.78693475,78.14241467390343L850.868923125,78.30315658583572L851.1061113750001,78.46283876677944L856.4252775,78.45100098792062L856.467737125,78.45182547013962L856.628790875,78.13989588251565L858.7473797499999,78.4104409342981L861.539466125,78.19496722506585L864.5116398749999,77.97607468135408L864.587774375,77.8715158051163L867.436961625,77.93739397650427L869.9889314999999,77.96845324233448L876.83810825,78.03888551753914L877.1836417500001,77.8458751917982L879.469140875,77.99479525423658L880.5072055,77.8786269319005L880.89666275,77.8283834873555L882.74731675,77.82841463760548L883.6594666249999,78.14907751829031L884.5057308749999,78.51114327110707L890.256813875,78.33103435239411L891.2597395,78.02485782374424L892.7751088749999,77.83381028511064L892.776573,77.72661346461882L893.83952775,78.03187619904583L894.3856463750001,78.09475285770685L894.857094625,77.63511778056431L895.7633880000001,77.73391707008221L897.30657575,77.84765075621834L899.6462475,77.50658431226213L901.2084688750001,77.73001052073653L901.436872375,77.81744920168524L902.8146139999999,77.73452029945958L903.27434925,77.7755198121668L905.426613,77.6775189457448L906.0591149999999,77.58248324520798L906.303623875,77.62585737211202L908.871699125,77.45052774602294L912.959536125,77.6309100364021L913.518831875,77.70382756270442L915.3768064999999,77.49287335907644L916.0634811250001,77.50385489756752L919.492461875,77.71091963075776L920.736968125,77.49625030777264L920.927304375,77.39089235791653L921.366541875,77.61251448376674L921.539308625,77.76370669101897L921.758927375,77.71060730819534L922.9931847500001,77.81175263631121L923.1762003749999,77.7124330222698L925.0693140000001,77.70535861950913L926.3035713749999,77.77730019056372L926.654961375,77.75812891185927L927.4221628749999,77.61614346167829L928.62713775,77.70034997224144L929.27135275,77.64626703316327L931.5217128749999,77.45500403529775L932.12054,77.12718157253482L932.59198825,77.04556688499042L933.27719875,77.29269512381615L935.518774125,77.14338867522156L936.9448318750001,77.0609437447078L939.451413875,76.91108123917354L940.731059125,76.82659113084657L942.57146425,76.9678601983212L944.564138375,76.71893818809968L945.627093125,76.99983552699916L947.64904975,76.9584846301712L948.0707177500001,77.04033028580773L949.4001432499999,77.06281867137864L950.895014875,77.28180954220932L951.283008,77.26806065917333L952.6783191249999,76.90108529261687L956.5216472500001,77.14520132821463L958.5231061249999,76.8651812965075L961.261019875,77.03488386389017L961.8305644999999,77.12265273014549L961.978441125,78.13562515909877L962.637297375,77.78616026959065L963.7573530000001,77.48730090362568L963.851057,77.34681030051547L964.7397808750001,77.16248071640217L965.07799375,77.27138843897427L965.2302627500001,77.30146626521463L965.4132783750001,77.24226829362254L966.24343725,77.13209467911628L970.0091667500001,76.70818780643594L971.47622,76.98217018303484L972.991589375,76.84503516264834L973.55234925,76.83993125681928L973.805642875,77.26669157244169L974.14971225,77.05403252529288L975.0516132500001,77.02365728035386L975.9300882499999,76.83772337605689L977.4879172500001,76.90303755746118L977.518663875,76.94810386752084L977.6972871249999,77.05027141164243L979.395672125,76.840427391547L979.7836652499999,76.52426939066834L981.310747625,76.5986477589999L981.7631622499999,76.49378495440749L985.520107,76.29103865955545L986.88759975,77.1938398380758L988.5479175,76.56759468724914L991.8802659999999,76.9294103081038L992.42199225,76.91111738819689L995.2609306249999,76.91550048847535L997.5610710000001,76.9042803572687L998.2814205,76.83917563197451L1000.183318875,76.91420069321958L1000.897811875,76.68145021191225L1002.487851625,76.69324901579165L1003.2184500000001,76.36475314127404L1003.828990125,76.24710727439532L1004.02957525,76.19370275169592L1004.38975,74.43115428663032L1005.5361598750001,75.34084194981597L1006.449773875,75.6248559302972L1008.09984275,76.20540422573754L1009.073485875,76.46786325648463L1009.12473025,76.64139565680199L1009.23600375,76.74612314539411L1009.88607525,76.95232393950073L1010.9475658749999,76.98956642104599L1010.982704875,76.99182379240341L1011.335559,76.9402554839524L1015.099824375,76.86244973132295L1015.518564125,76.83126025383484L1019.4936635,76.63490635277964L1024.06466175,76.60791842712234L1024.596139125,76.51004450308994L1024.622493375,76.46330095421638L1025.351627625,76.08380284866757L1026.95777275,76.41332404478527L1029.9753343749999,76.47460871734705L1030.919695,76.26714674617193L1031.0075425,76.23702966729752L1034.84062175,76.41353490854027L1037.7176273750001,76.6454617146311L1038.263746,76.44298467773388L1039.317916,76.46907405473695L1040.2022474999999,76.28308081466207L1040.637092625,76.28361349996624L1043.105607375,76.13971303837275L1046.7263885,76.17196472007339L1048.689780125,76.23462228748679L1050.399878125,76.30228144335592L1055.9840508749999,75.50509884078997L1058.69414625,75.55588147003772L1059.161202125,75.86130152674349L1059.392533875,76.11819497831516L1060.900582625,76.06169857882173L1062.14362475,76.20339160537094L1062.8449406250002,76.22100412994843L1064.0996957500001,76.30550582628831L1066.27831375,76.23876342130535L1067.702907375,76.20054212352079L1070.2007046249998,76.19808030770992L1070.748287375,76.2035169537545L1072.7526745,76.12915142875505L1073.374927625,75.40423855372717L1077.25925125,75.61659213286464L1079.307562125,75.87534273512995L1082.871242375,75.61432766469761L1082.9283432500001,75.44771960427573L1083.111358875,75.37131101351355L1085.702860125,75.9440087258377L1086.12599225,76.05251530454655L1087.755563375,75.84183552110107L1087.975182125,75.17217018451635L1090.9473558749999,75.45172299721884L1091.445158375,75.55148838570886L1092.5725346250001,75.47895070939461L1092.6076736250002,75.48981465509803L1094.205034,75.24635756845788L1094.825823,75.3927320774153L1096.716008375,75.81957754724505L1099.005899875,75.8129403586434L1100.970755625,75.64440213171366L1102.563723625,76.3741435561119L1103.307499125,75.79769611565985L1103.4905147499999,75.51348826339074L1103.587147,75.39345408968762L1105.190363875,75.3359591861747L1105.566644,74.74989478272539L1106.84043275,75.1124652893161L1107.77747275,75.33746181627009L1109.588595375,75.498268009051L1110.3982565,75.51924112134378L1110.68815325,75.53103677782826L1111.5212403750002,75.24348094059326L1112.9033743749999,75.39578040666606L1116.3894559999999,75.48409732398972L1117.48754975,75.28542299698347L1117.8286908750001,75.40506882112055L1118.089305125,75.57058585072053L1120.197645125,75.91095347931673L1120.478757125,75.94115961201152L1121.30013125,75.86197302703363L1123.260594625,75.73388340265632L1123.450930875,75.79266946224766L1123.62516175,75.85228555438448L1123.7159374999999,75.86794457178581L1123.866742375,75.81757107636344L1124.5475605,75.95992012365758L1125.080502,76.2158083076423L1126.250337875,75.86324226495748L1130.953107375,75.55187009989987L1131.5636475,75.44731349759417L1136.805215,75.43466470826786L1138.199062,75.56280535013445L1140.131707,75.63345160905845L1142.382067125,75.86203729722234L1144.083380375,75.92284485523152L1144.794945125,75.80150704931015L1144.841797125,75.74372541331223L1147.035056375,75.72862658212614L1148.0745851249999,75.56377177069356L1148.48014775,75.53392867821321L1148.9223135,75.51982875531377L1149.35276625,75.68927925987072L1149.783219,75.67697426773913L1150.240026,75.54523411414209L1151.219525625,75.6194407395418L1152.59141075,75.52947341643392L1153.28833425,75.37313820827069L1154.011612,75.44387047683034L1154.806631875,75.50858242571996L1155.219515125,76.46337821154685L1159.83004475,75.72237568836744L1159.90617925,75.31186992558133L1160.0028115,75.220889054096L1161.67484225,75.51770746680717L1162.080404875,75.54653389195414L1162.5840638749999,75.295995686217L1163.30294925,75.5230230968528L1163.5825971250001,75.71686901953564L1163.827106,75.79604058001479L1166.540129625,75.37521112507011L1168.2429069999998,75.34525916715216L1168.642613125,75.3440205836057L1170.504980125,75.30330388113907L1170.727527125,75.29078710427166L1171.827085,75.02100549418657L1172.1404077500001,75.03200243672825L1177.046690625,75.15667459375322L1177.822676875,75.14657631483175L1177.9017396250001,75.08543266634047L1180.127209625,75.53444202839523L1182.446383625,75.46198932196455L1185.509333125,75.3675091932908L1185.75677025,75.42499909375289L1186.16086875,75.37015495959173L1188.646953,75.40064315505776L1190.528353625,75.40799120110535L1191.726007875,75.35961241933563L1191.85338675,75.05063516203518L1192.9749064999999,75.09216346307221L1193.941229,74.90225919537914L1194.737713,75.856094668899L1195.87680225,75.43725453780974L1197.090561875,75.53080398420622L1198.021745375,74.99658621485611L1199.0656665000001,74.96485602377697L1199.207686625,75.17834012202968L1199.687919625,75.00580694708259L1200.542968625,75.03173379075844L1205.27062825,75.16786364300441L1205.6483725,74.96470465858795L1206.595661375,74.823036434725L1207.79477975,74.83280096983907L1209.898727375,74.85190163387949L1210.791843625,74.85824992166664L1212.1022355,74.8276253385497L1212.209116625,74.79938669238402L1213.163726125,74.84304566206146L1213.9411765,75.24573560612112L1213.9646025,75.26757385578287L1214.087589,74.9186177627908L1216.970451125,74.83932142435265L1217.327697625,74.90348940534886L1218.197387875,75.61701400115942L1220.43310675,75.01761704089404L1220.9806895,74.7328814197088L1221.116853125,74.93810672333859L1223.668823,75.05901239471001L1223.828412625,75.12671393062988L1225.359887375,74.98823081739289L1225.54583125,74.5820645653086L1228.352558875,74.60187497513743L1230.917705875,74.79908086170849L1232.67612,74.5989671936116L1232.888418125,74.7932825367813L1235.182702,74.9018995525264L1236.377428,74.89777476448262L1236.750779875,74.94680384331753L1237.2266205,74.68361488749866L1237.92647225,74.59166350544416L1242.534073625,74.57847053624482L1244.6102028750001,74.88306911292551L1244.6292365,75.28943242860811L1244.76686425,75.66249448386111L1245.3905815,75.38743926351384L1246.1167874999999,74.5743616568825L1246.168031875,73.72182117370704L1246.8693477499999,73.81821016370759L1247.857632125,74.07942448794546L1249.22951725,73.94620407608721L1249.289546375,74.08192632880105L1249.3334701249998,74.24078451025508L1252.2324376249999,74.39942653415665L1253.56332725,74.7309398939866L1253.87372175,75.02202354353113L1254.3276005,75.1763604125764L1254.648243875,75.1753906410641L1254.74048375,75.12774132779725L1255.731696375,75.04226543380463L1256.299776875,73.61615994068916L1258.374442,74.21479077968257L1259.447645625,74.06622634728694L1261.2148445,74.42886765036695L1263.172379625,74.81204428029787L1263.2880455,74.92040813883523L1264.15187925,74.65692267482206L1265.964466,74.67122437847246L1267.339279375,74.71225716906832L1269.04791325,74.66875290211613L1269.913211125,74.94298121179833L1271.233851875,74.75282329657335L1273.8414585,76.3360168398986L1274.596947,75.77889626225493L1275.7126102500001,75.38508021291739L1277.52226875,74.95480062283815L1278.293862625,74.91818769014776L1279.4739473749999,74.58784930958984L1280.0390996249998,74.47574143088389L1285.3363038749999,74.51225029756296L1285.514927125,72.75730306572274L1285.696478625,73.53325423790693L1286.9219512500001,74.04503661975218L1287.239666375,74.11064327242195L1289.137172375,74.01817336239503L1289.29383375,74.05079087370234L1289.68621925,74.10357883947256L1290.897050625,74.3784259390215L1297.61006375,74.219784888074L1299.263060875,74.51442684397557L1302.2630530000001,74.59327118420873L1302.4094655,74.65683745301828L1303.330400125,74.74186450217411L1304.08735275,74.7727926140978L1304.132740625,74.76081193929633L1304.856018375,74.9240572494013L1305.011215625,74.87424867383356L1305.620291625,74.802092904414L1305.847231,74.68628404077305L1306.6700692499999,74.58461719791683L1308.039026125,74.39473335133835L1309.0273104999999,74.14248329214365L1310.522182125,74.26673682480816L1311.725692875,74.22103048272282L1311.790114375,74.1794864423639L1313.611485875,74.69765984248772L1313.8018221250002,74.87952249951894L1314.280591,74.82800271411378L1315.44310625,74.55941147871101L1315.795960375,74.61638847152756L1321.371348375,74.47831680702643L1324.1971096250002,74.47951960963746L1324.7403000000002,74.28868352433426L1325.063871625,73.71406939549973L1325.318629375,73.64121115534743L1326.756400125,74.08409257485266L1327.31716,74.09777410386528L1327.470893125,74.05020021048796L1328.640729,73.9146843963718L1329.163421625,73.88816682499538L1329.219058375,73.89416854494448L1329.7007555,73.98460789681161L1330.6290107500001,74.07713351662119L1333.6011845,73.96399427810411L1336.81933125,74.08309687869456L1338.044803875,74.45723142126468L1340.141430875,74.54589215009975L1341.462071625,74.55961048190778L1342.836885,74.01861613201345L1345.623114875,74.50044934500602L1345.87348025,74.27439715463282L1347.7417037500002,74.2221585526965L1351.235106,74.2271406534627L1351.7782963749999,74.32153985698909L1352.63773775,74.41527033161304L1354.9495911249999,74.1134807092991L1355.160425125,74.05818287383295L1357.86173575,74.20561706819103L1358.9129775,74.17082392173523L1358.9554371250001,74.13044544438281L1359.61868575,74.05899326543363L1359.75924175,74.00898301942095L1361.005212125,74.00829831696569L1361.38734875,74.01160334683658L1362.11941125,74.15607237357472L1362.3170681249999,74.19028146457572L1363.24971575,73.89820247973137L1363.82950925,73.9394428401672L1364.510327375,73.93819861733061L1365.359519875,73.8310210930074L1370.7196815,74.10611818815858L1375.555686375,73.97235443624459L1378.299456625,73.81167615388387L1379.3492342499999,73.77744776362658L1379.391693875,73.90826974089134L1384.782602125,74.06612450383716L1386.451704625,74.15144639184388L1386.920224625,74.30233694222756L1389.543936625,74.77107737836047L1389.946571,74.38436921053716L1390.615676125,74.2972625122656L1392.7503703749999,74.12091157871868L1394.3096635000002,74.08331504114494L1394.759149875,74.04046631823036L1396.999261125,74.17652047966453L1398.344792,74.10071348108818L1398.999255875,74.12749696050867L1403.494119625,73.88357005562506L1405.866002125,73.89645503302586L1407.51314275,74.06471079753447L1407.526319875,74.19280123120751L1408.671265625,74.15538743250039L1410.507278375,74.0381962041555L1413.32864725,73.82408928028485L1418.357916625,73.6581062875419L1418.5482528750001,73.62177604599174L1419.1778266249999,73.90438494723816L1420.677090625,73.99634529567072L1421.349124,73.89016347514871L1421.3637652500001,73.79708789706103L1422.48235675,73.78749926936553L1423.0606861249998,73.84606410146904L1426.097281375,74.35036864347688L1426.128028,74.71001783720362L1426.182200625,75.08038676935695" fill="none"></path></g></g></g></g><g opacity="0.20000000298023224"><g><g><g><path style="fill: none;" stroke="rgb(204, 51, 17)" stroke-width="2px" d="M146.657008875,307.6915322202258L147.10649525,301.1131241223775L147.197271,300.47748833941296L147.27047725,300.1969978637062L149.790236375,297.4697318794206L149.91029462499998,297.43600771343336L150.05231475,297.2359147486277L152.9893495,292.98154646344483L153.92931775,279.853105859831L156.238242875,274.9925470985472L157.339264875,275.0637675826438L159.9702975,274.74910253472626L160.2748355,274.2452105721459L161.63793587499998,274.42036229232326L162.378783125,274.0250745303929L162.46809475,273.90582948271185L163.936612125,273.74931332003325L167.34070275000002,273.3477761717513L167.8882855,273.1403641058132L168.05080337500002,273.3411889807321L170.0083385,272.02656581578776L175.167915,273.35481376899406L175.78577575,273.1277527315542L176.48416337499998,273.368438557256L176.54126425,273.3309422391467L176.946826875,273.39748975867406L177.626180875,273.25240265391767L179.10641124999998,273.35920522967353L180.615924125,272.07380216848105L181.113726625,272.19985961029306L181.766726375,271.69928939361125L182.02294825,271.14489563321695L182.615918875,270.31733049824834L183.386048625,267.335697599221L188.8662685,260.1352222058922L190.085884625,255.7445497373119L191.2322945,239.61206852504986L191.36992224999997,239.40088430698964L192.448982375,235.06183965178207L193.170796,234.62967488029972L193.901394375,233.69620798202232L194.99363162499998,232.33524927683175L195.825254625,232.24038246599957L195.87796312499998,232.20373065955937L195.95702587500003,232.24871498113498L196.0111985,232.14844329562038L196.961415625,232.0151793542318L199.052186125,230.68901452980936L200.041934625,230.59628714853898L200.08585837500002,230.52095670765266L201.70371649999998,229.61580910068005L201.8676985,229.5221809069626L203.10342000000003,227.80990534741431L203.279115,227.81958908122033L204.54119075,215.64206861704588L206.838402875,206.33307278901339L210.305450875,185.19539611693472L210.823751125,185.1791251921095L211.126825,183.73349011689425L212.2454165,182.72159623494372L212.8427795,181.68571822158992L214.25126774999998,180.9672639942728L214.36693362499997,180.66757495328784L216.31568399999998,178.6741333086975L216.64657624999998,178.8434297479689L216.955506625,178.3411142071709L221.27906775,156.78185730986297L222.25124674999998,155.360206366051L223.87349724999999,153.52029694290832L225.27320075,147.64367804210633L229.166309125,132.32237843843177L232.42398725,127.34477035980672L234.52207837499998,123.75340003566816L234.530863125,123.59040928352624L234.955459375,122.97115702694282L237.391763375,120.76737567596138L239.63480287500002,118.59754369407892L240.879309125,117.3134355507791L242.52205737500003,116.14282977581024L244.19701637499998,114.65356159768999L244.539621625,115.85586471064016L245.15309000000002,113.92075067199767L247.707988125,112.9482673346065L248.48983087500002,112.69299960741773L249.861716,112.0148004363291L250.9920205,110.59973668353632L251.69187225000002,110.93151716794819L251.766542625,110.90438019298017L251.8470695,108.66918300790712L252.88806237499998,110.70727116940543L253.306802125,110.28805557684973L258.00517925,109.04223196255043L259.01249725,108.8307662406005L260.918788,109.38211975898594L261.961245,108.2622972857207L264.11350875,106.97655641986057L264.440008625,107.24105747463182L265.0007685,107.44075633399189L270.27893912499997,106.51680426718667L270.993432125,105.922042849008L273.4692675,105.9670271705836L273.593718125,105.8647286570631L273.803088,104.11264844750986L274.366776125,104.60471724672243L275.456085125,105.21693190606311L276.24232025000003,105.09160637436435L277.227676375,105.07094398885965L277.251102375,105.17324250238016L278.144218625,104.90975486161187L278.530747625,104.9155538417399L280.561489,104.25514571648091L280.595163875,104.25604652892798L281.28769500000004,104.54284269176424L283.265727875,103.86830307124183L283.895301625,104.19090652884915L286.056350125,103.53787380550057L286.207155,103.504487444181L287.409201625,103.12456979462877L290.59074525,102.91879045125097L292.6551615,102.59590548975393L294.08121925,102.6412276159972L294.77960687499996,102.22499596467242L295.640512375,102.24301221361384L295.66979487500004,102.26333679445088L297.218839125,99.93552482966334L298.60390137499996,102.07298386422917L299.17051775,101.13276087259874L299.993356,101.58941648248583L300.0343515,101.6402560849674L301.27885775000004,101.52219335362315L302.43844475,101.26929025910795L304.299347625,101.39636111492291L305.39597725,100.76359667163342L309.403287375,100.31105101853609L309.95233425,100.7547011487186L311.71514075,100.24957056902349L314.927431,98.52744237333536L315.54529175,99.9424498253502L317.291992875,99.4770675948821L317.397409875,99.32978475978598L317.783938875,99.51051025697961L318.644844375,98.84008059324697L319.45743375,99.80203568516299L323.852737,99.19257976394147L323.854201125,99.18959582271054L324.0577145,99.11122513981536L324.161667375,99.1518180007115L324.794169375,99.00903922785074L325.33589562500003,97.8501440146938L325.96400525,98.68987011769786L329.85272125,97.61598907923326L336.852702875,96.23594441032037L339.20848,97.27216022834182L339.4954485,97.04842093680054L343.155761,97.33932705642655L343.174794625,97.44477841351181L343.29924524999996,97.56796451564878L343.889287625,97.22531798109412L344.969811875,96.770632898435L346.518856125,96.16117697721347L346.52617675,96.16421721922234L347.078151875,95.94807853270322L350.515917375,96.2012068303302L350.583267125,96.27479194710031L351.353396875,96.45574264740571L351.47052687499996,96.9938654829748L352.48809374999996,96.17209932813421L352.838019625,96.0606800885871L353.17916075,95.51090299198404L355.6242495,95.79021115135401L357.57739225,96.00995308766142L357.663775625,96.39240427222103L360.631557,95.13661542022601L361.193781,95.52711761603132L362.357760375,95.36857462534681L363.9873315,94.76052622357383L364.088356125,94.61904236860573L367.14105674999996,95.17985441768542L367.294789875,94.95684703625739L367.55686825,92.37455555517221L367.8994735,94.37109374254936L370.08101975,94.04770207405085L373.628594625,93.76101851277048L375.7706095,93.69036103645334L376.47046125,95.56168629368767L376.90969874999996,95.11099856626242L377.192274875,94.65924112405628L381.0414595,93.78353882394725L382.6695665,93.25312919495622L384.45433487500003,93.25690134707833L384.755944625,93.30920476978639L385.49825599999997,93.36550554772833L387.43968575,93.50850952370087L388.671014875,92.8455678634345L388.86720762500005,92.98237875383342L389.164425,93.13157581537956L391.26398025000003,93.01165515836323L391.5011685,92.82011991180474L391.8642715,93.34872791590163L394.32253737499997,92.55854649748647L395.259577375,92.39741367101664L395.5890055,93.14964836509893L397.68563249999994,92.4176256502978L397.742733375,92.37269762950012L397.757374625,92.38012933218846L399.6651295,92.28323569335038L399.842288625,92.86133208125824L400.52017850000004,92.47493984224269L402.117538875,91.60700704948971L406.70025012499997,92.15267418930301L407.307862,92.50917071523139L407.99453662499997,92.23571783676738L408.05310162499995,92.25356518337497L408.7778435,91.89278979832301L410.41619937499996,91.80265225283796L411.49086712499997,91.79713477659965L411.57725050000005,91.59039831999684L413.01062887499995,90.33094991743559L414.265384,91.46079392917449L414.272704625,91.44992787903169L414.744152875,91.93169363588089L415.22292175,91.07868054928252L417.36054425,90.69155640015373L419.07942699999995,92.16573596978554L420.33564625,91.3845626758411L420.4088525,91.33794563170517L421.584544875,91.58690767176444L423.60357325,90.31963346106926L425.09112424999995,90.90054488787422L427.839286875,90.44608500832686L432.351720125,90.24891968397418L432.502525,90.47147665917868L432.823168375,90.59466276131565L434.44395475,90.34564442047844L436.603539125,90.06898239767173L437.555220375,90.63260948564852L438.193578875,90.66954279597843L439.546430375,90.07100922567764L441.28873912499995,89.59228371083731L442.04862,90.05029053939501L448.18330375,88.88829878345126L449.55958125,89.76749173179263L450.378027125,89.68028182676056L452.04566550000004,89.10944823920721L452.31799275,89.30199689976865L453.8611805,89.2499749809503L454.158397875,89.18905753921712L458.416073375,89.42816694313655L459.540521375,89.35677755670616L461.68253625,88.847818524111L462.59468612499995,89.13179964805016L462.697174875,87.84504536818707L462.7396345,87.89853110723192L465.397021375,88.78132730536157L467.80843525,88.98035055538634L468.316486625,88.48496001027519L468.907993125,88.02824809961015L469.745472625,88.54120448743919L470.37943875,88.26955323386932L473.698610125,88.0185080650262L475.613685625,88.66681152302766L477.666388875,88.24725812580431L477.80987312499997,88.12238300032908L477.827442625,88.06033954303706L479.370630375,87.86886059725651L480.483365375,88.29753472050646L481.086584875,87.94143230002368L481.09097725,87.96378370886663L482.12172125000006,87.09652652544895L484.659049875,88.96278471266845L486.17734750000005,88.14546631928528L486.34425775000005,87.50712809897954L486.370612,87.82838033791626L488.738102125,87.41541413171211L489.68831924999995,88.03230175562197L490.360352625,87.76025639660651L490.56825837499997,86.54781914362678L490.796661875,88.35057005332777L494.943063875,87.12084846151987L495.774686875,86.81277060462156L496.83324924999994,87.26717418339098L497.94012775,87.9703145991079L500.044075375,87.30956866918126L500.187559625,87.15474152984092L500.82445399999995,85.72047921176994L501.230016625,86.66514996485779L503.030890375,86.68052007723594L504.97671249999996,87.03133022459218L506.66045625000004,88.16731102112675L507.962063375,86.74689869442949L508.793686375,86.49140576412896L510.92106,86.8827524716034L511.96937349999996,86.75089604966337L512.478889,86.52265269588673L513.716074625,86.70940237632016L514.374930875,85.80357916001225L515.0733185,86.4411291694268L515.46863225,87.0301479082554L517.478875875,85.69829670526082L518.91811075,86.32075810618693L519.180189125,86.00170159758994L521.221179375,86.17403827887023L522.612098125,86.29418413899833L524.459823875,85.7088812515139L524.66919375,85.84450982557604L525.783392875,86.18529843445862L528.4803111250001,85.5970679065212L530.762882,85.50625475170085L530.88879675,85.76822227146471L531.262148625,86.02934527955944L532.8639013750001,85.7773429974913L533.2518944999999,86.3558897916227L534.34706,86.48605719022447L534.803867,85.62443008460099L535.2855641250001,85.73624342959369L535.4217277500001,85.59245124272996L538.6471951249999,85.5831053135916L539.803853875,85.69283552980045L540.660367,85.5220189695246L542.225516625,85.41898854589084L542.594476125,85.19198380922893L542.986861625,85.08101497590536L543.2665095,86.44422571221361L544.761381125,85.07256985921407L545.1581590000001,85.4077846910804L545.754057875,85.08169058524066L546.02784925,85.24271081015462L549.6354532500001,84.03066766262049L549.81700475,84.23273115465412L552.617875875,84.98558515729377L554.726215875,85.14440965186799L554.973653,86.12939176196227L555.607619125,85.6345079238526L555.636901625,85.57578621245915L557.030748625,85.2177132647484L557.6910690000001,85.53817729279393L558.2371876249999,85.07251355843613L558.85944075,84.83559988485644L560.24743125,85.02116724895308L561.79354725,84.57684150943527L562.667629875,84.83109582262108L563.52121475,84.89161915890867L564.474360125,84.52183564938599L566.825744875,85.0664330744184L569.193235,84.71292048972094L569.9135845,85.07104973820964L570.0775665,84.86020332481706L572.203476,84.88553867489094L576.61049225,84.37900057574728L576.8667141249999,89.35632715048263L578.926738,84.09862270159641L579.168318625,84.36165993614117L581.0833941249999,84.19698016066098L583.235657875,84.17519175959745L584.4318480000001,83.69449571752915L584.895975625,84.40028226980934L586.869616125,84.12744869990269L588.327884625,84.33852031640703L589.209287875,83.33996971882874L589.30152775,83.39694610610599L591.540174875,81.68956871423865L593.415719,83.91007139626885L597.964755375,83.22123137814918L598.6148268750001,83.21796593302855L598.840302125,81.23302570590744L599.9208263749999,83.51923139579588L600.1682635,83.55357487034047L600.209259,83.5851596067659L602.690950875,83.26092342659825L604.3249143749999,84.24416021257633L605.761221,82.55417976109305L606.573810375,83.78468956379214L607.859312125,83.21999276103446L612.01303475,81.61086022667581L612.6030771249999,83.63087583845476L613.2165454999999,83.59529374679545L613.630892875,83.8677332112565L614.105269375,83.57018359983334L614.846116625,83.04838798986742L615.3453832499999,84.16888607246796L616.18871925,83.66144716087723L616.957384875,83.7538930382579L618.4288305,83.4922633231617L619.396617125,82.93325289897615L621.234094,83.47030601976434L621.797782125,83.15502166328946L622.34390075,84.15374116320157L628.1828312499999,83.2333360454067L629.6425638750001,82.2957028895616L630.0583753750001,82.65445144660765L630.992487125,82.61267626937473L631.97198675,83.35573393665248L632.4273296250001,83.24983217334369L632.466861,83.26762321917334L634.342405125,83.06358919991175L636.086178,83.29301487002516L636.128637625,83.28896121401334L638.932437,82.66841403953725L639.4185265,82.8256621123291L642.3233505,82.77313348650927L642.3643460000001,82.7090069004334L642.58982125,82.57219601003447L646.793324125,82.2981238230131L648.702543125,82.33792847301805L648.8255296250001,82.6083411094732L650.807954875,82.79610420390958L650.851878625,82.75286520645017L651.127134125,82.71294795488933L651.944115875,82.34091241424898L654.626392875,81.6580965793691L656.197399,82.59527932899067L656.720091625,82.28427383163938L657.91042525,83.84588850941503L662.7039705,81.8181033902801L662.711291125,81.8313903738744L663.5487706250001,82.39220242295409L670.690772375,81.83127777231851L670.80643825,82.05591787630686L670.8562185,81.71828211098904L671.750798875,82.12477372772986L672.59267075,81.60888969944784L673.19003375,81.54307409003371L674.154892125,81.44713756442064L675.138784125,81.2144464491866L679.8430177500001,81.31314171291882L680.48137625,81.84411434968928L680.5223717499999,81.86719766864547L683.5531105,81.58563747815782L685.6731635,81.1770064318552L688.140214125,71.03166254749516L689.364222625,81.7384940902702L689.785890625,81.149081245996L690.667293875,81.59064824739465L694.561866375,80.90586188528681L695.2470768750001,81.09531400306145L695.534045375,78.97333768242964L696.263179625,80.29122629249463L698.80050825,81.13292292272666L698.930815375,81.27367486758152L702.39054275,80.75345567939797L702.5281705,80.65059415809804L703.337831625,81.7552717220969L703.727288875,81.5543342456221L705.1987345,81.11327395122493L707.0420678749999,81.16591517860064L707.34807,79.27206961018959L710.842936375,81.48069282807404L711.2045752500001,81.38717723591247L711.961527875,80.36346019059414L713.97469975,80.28176776180038L714.066939625,80.25175944715733L714.46664575,80.41396198840806L714.633556,80.78509671660134L715.71993675,81.006527676247L716.857561875,81.2668061726726L719.2089466250001,81.00669657858083L720.705282375,80.79945341497654L724.614496125,80.70970997493708L725.6291347499999,80.712693916168L727.463683375,80.46643431344995L728.41682875,80.63190229982132L729.0390818750001,80.50725237745786L729.4212185,80.29133889405051L731.01125825,80.77513147890562L732.35239675,80.04068783065298L736.61592875,79.6196143124252L737.052238,79.76425101095805L738.213289125,81.00669657858083L740.4943958749999,80.10503961984062L740.6232388750001,80.09242824558163L743.0683276249999,80.01495837513352L743.700829625,80.20294667268166L744.58076875,80.55144848814228L748.544155125,80.45539936097333L749.7432735,79.2653698176145L751.308423125,80.09698860859493L751.98924125,80.03770388942206L754.047801,79.4550471385009L754.2234960000001,79.54799972288305L754.9555584999999,79.9287618841044L755.6422331250001,80.23858506511891L757.18981325,79.61280191829422L757.7783915,79.16065037064249L758.1356380000001,79.18514120904723L758.8720928749999,79.04236243618647L760.1546663749999,79.31778584187845L761.1517355,79.74173069978127L762.1122015,80.65515452111134L763.5865753749999,79.61522285174573L765.0140972500001,79.0652205520309L766.421121375,80.5363035788759L766.838397,80.23802205733949L768.711012875,78.58824036130676L768.7183335,78.88438245328138L769.57045425,79.76199897984037L770.971621875,79.77815730310971L771.6758659999999,77.33543545054266L772.30543975,79.53707737196231L773.4372083750001,79.85253063077101L773.8984077499999,79.62974845245475L776.178050375,79.18649242771784L777.056525375,79.35730898799369L779.019917,78.24148386996234L779.30981375,79.54884423455218L783.17510375,79.50397251453245L784.0711482500001,79.74916240246961L784.289302875,79.67507057869801L785.0784662499999,78.41094921156758L788.1502005,79.63002995634446L788.907153125,78.84671723283822L792.207290875,79.85872371634463L793.92178125,79.06842969637358L793.978882125,78.60777673125261L794.4869335,78.88128591049457L795.09893775,80.00336041487748L796.248275875,79.76402580784628L797.765109375,79.41681891027832L798.4620328750001,79.28918504668394L801.612829875,79.53730257507408L802.9173652500001,78.8321916321292L803.27754,78.6011895402334L803.8002326249999,78.79948088014493L804.128196625,78.6648094193078L804.435662875,78.41854981658975L805.901252,79.21914687892416L805.9495681249999,79.301740120165L808.08865475,79.27297042263666L808.9993405,78.73693071585143L811.1530683750001,81.11969223991031L811.70797175,79.31170535786072L813.577659375,79.10693942848587L817.6391421249999,78.99884193483734L819.8821816249999,79.4281916674226L820.44586975,79.41085102781648L821.3799814999999,69.97377092996607L821.8441091249999,77.54746418027202L822.344839875,77.93785377452144L824.789928625,79.54636700032273L826.532237375,78.78005711175496L829.0900637500001,78.36101042153308L830.248186625,79.91676981840277L832.501475,78.59139320487151L837.71376,77.61902246903622L838.1998495,78.60130214178929L838.428253,78.44619349855924L838.5834502499999,78.37705614324653L842.576119125,78.25510865822429L843.811840625,77.71208765497425L843.9787508750001,78.07128661824385L844.306714875,78.80905201239506L844.649320125,78.72707807971159L844.9787482500001,78.61588404327625L844.9933894999999,79.03994150273496L846.978743,78.84243837371463L847.3433101249999,78.77155569428572L847.785475875,77.70977932307864L847.96556325,78.68096774257714L848.892354375,78.55834464821959L849.78693475,77.58563610771665L850.868923125,78.5442694537341L851.1061113750001,78.70236203819508L856.4252775,78.43324431963259L856.467737125,78.45306219346816L856.628790875,77.67200150107959L858.7473797499999,78.81625851197163L861.539466125,77.8717566612176L864.5116398749999,77.64773586578661L864.587774375,77.71467749075958L867.436961625,78.03621123358602L869.9889314999999,78.01504214107985L876.83810825,78.14453393034631L877.1836417500001,77.55635970318684L879.469140875,78.21817534789437L880.5072055,77.70437444839621L880.89666275,77.75301832053805L882.74731675,77.82846136298025L883.6594666249999,78.63007183931762L884.5057308749999,79.05424190033222L890.256813875,78.06087097432459L891.2597395,77.56559303076932L892.7751088749999,77.54723897716025L892.776573,77.56581823388109L893.83952775,78.4897703006863L894.3856463750001,78.18906784569839L894.857094625,76.9456651648506L895.7633880000001,77.88211600435892L897.30657575,78.01825128542254L899.6462475,76.99498464632774L901.2084688750001,78.06514983344817L901.436872375,77.94860722310835L902.8146139999999,77.6101269461214L903.27434925,77.83701908122742L905.426613,77.53051764611149L906.0591149999999,77.4399296944029L906.303623875,77.69091856246808L908.871699125,77.18753330688918L912.959536125,77.90148347197095L913.518831875,77.81320385215798L915.3768064999999,77.17644205363462L916.0634811250001,77.520327205304L919.492461875,78.02151673054317L920.736968125,77.17424632329488L920.927304375,77.23285543313244L921.366541875,77.94494767254213L921.539308625,77.99049500189716L921.758927375,77.63095823395992L922.9931847500001,77.96347062848503L923.1762003749999,77.56345360120753L925.0693140000001,77.69474701536814L926.3035713749999,77.88521254714573L926.654961375,77.72937199380243L927.4221628749999,77.40316528640682L928.62713775,77.82665973808611L929.27135275,77.56514262454579L931.5217128749999,77.16810953849921L932.12054,76.6354478783905L932.59198825,76.92314485367382L933.27719875,77.66338748205447L935.518774125,76.91942900232965L936.9448318750001,76.93727634893725L939.451413875,76.68628748087207L940.731059125,76.69985596835608L942.57146425,77.17976379953319L944.564138375,76.34555517276743L945.627093125,77.42118153534824L947.64904975,76.89645828492934L948.0707177500001,77.16309876926238L949.4001432499999,77.096551249735L950.895014875,77.61029584845522L951.283008,77.2474373346194L952.6783191249999,76.35062224278221L956.5216472500001,77.51137538161123L958.5231061249999,76.44515124894673L961.261019875,77.2894377149641L961.8305644999999,77.25430602952832L961.978441125,79.65508380252862L962.637297375,77.26196293532843L963.7573530000001,77.03901185467834L963.851057,77.13607439585024L964.7397808750001,76.88598634023214L965.07799375,77.43475002283225L965.2302627500001,77.34658300457517L965.4132783750001,77.1534713362343L966.24343725,76.96683425735677L970.0091667500001,76.07232749741519L971.47622,77.39314374793315L972.991589375,76.63933263206849L973.55234925,76.83227539807552L973.805642875,77.90683204587543L974.14971225,76.73504395456979L975.0516132500001,76.97809441294515L975.9300882499999,76.55882251961151L977.4879172500001,77.00100882956752L977.518663875,77.01570333261037L977.6972871249999,77.20352272782469L979.395672125,76.5256613614037L979.7836652499999,76.05003238935018L981.310747625,76.7102153114974L981.7631622499999,76.33649074751878L985.520107,75.98691921727726L986.88759975,78.54804160585621L988.5479175,75.62822696100915L991.8802659999999,77.4721337393857L992.42199225,76.88367800833652L995.2609306249999,76.92207513889292L997.5610710000001,76.88745016045863L998.2814205,76.74151854403311L1000.183318875,77.02673828508699L1000.897811875,76.33232448995108L1002.487851625,76.71094722161064L1003.2184500000001,75.87200932949776L1003.828990125,76.07063847407693L1004.02957525,76.11359596764663L1004.38975,71.78733158903191L1005.5361598750001,76.70537344459439L1006.449773875,76.05087690101931L1008.09984275,77.07622666889796L1009.073485875,76.86155180260533L1009.12473025,76.90169425727794L1009.23600375,76.90321437828237L1009.88607525,77.26162513066078L1010.9475658749999,77.04543014336372L1010.982704875,76.9952098494395L1011.335559,76.86290302127594L1015.099824375,76.74574110237876L1015.518564125,76.78447603760281L1019.4936635,76.34037550119677L1024.06466175,76.56743653863663L1024.596139125,76.3632336170412L1024.622493375,76.39318563090632L1025.351627625,75.51455569034437L1026.95777275,76.90760583896184L1029.9753343749999,76.56653572618956L1030.919695,75.9559537894092L1031.0075425,76.19185404898593L1034.84062175,76.67829277040431L1037.7176273750001,76.99335192376742L1038.263746,76.13926912238816L1039.317916,76.5082081202417L1040.2022474999999,76.00409095454955L1040.637092625,76.28441252792248L1043.105607375,75.92386234598229L1046.7263885,76.22034224262455L1048.689780125,76.32860863860691L1050.399878125,76.4037701771594L1055.9840508749999,74.30932493694121L1058.69414625,75.6320554139092L1059.161202125,76.31943161180237L1059.392533875,76.50353515567252L1060.900582625,75.97695397958154L1062.14362475,76.41593114519486L1062.8449406250002,76.24742291681463L1064.0996957500001,76.43225837079802L1066.27831375,76.1386498138308L1067.702907375,76.1432101768441L1070.2007046249998,76.19438758399332L1070.748287375,76.2116719228215L1072.7526745,76.01760314125562L1073.374927625,74.31686924118543L1077.25925125,75.93512250157067L1079.307562125,76.26346863852808L1082.871242375,75.22280505904922L1082.9283432500001,75.197807513643L1083.111358875,75.25669812737027L1085.702860125,76.80305529432366L1086.12599225,76.21527517260978L1087.755563375,75.52581584593275L1087.975182125,74.16767217963928L1090.9473558749999,75.87105221627274L1091.445158375,75.70113646844396L1092.5725346250001,75.37014419492328L1092.6076736250002,75.50611057365307L1094.205034,74.88117193849752L1094.825823,75.61229384085158L1096.716008375,76.45984575198958L1099.005899875,75.80298457574094L1100.970755625,75.39159479131916L1102.563723625,77.46875569270918L1103.307499125,74.93302495498205L1103.4905147499999,75.08717648498708L1103.587147,75.21340282913292L1105.190363875,75.24971683090547L1105.566644,73.87079817755142L1106.84043275,75.65632104920218L1107.77747275,75.67495660670096L1109.588595375,75.73947729822243L1110.3982565,75.5507007897831L1110.68815325,75.54873026255513L1111.5212403750002,74.8121471847407L1112.9033743749999,75.62422960577527L1116.3894559999999,75.61657269997517L1117.48754975,74.98741150647396L1117.8286908750001,75.5845375573262L1118.089305125,75.81886139512056L1120.197645125,76.42150492221111L1120.478757125,75.98646881105373L1121.30013125,75.7431931495666L1123.260594625,75.54174896609032L1123.450930875,75.88084855163464L1123.62516175,75.94170969258988L1123.7159374999999,75.89143309788773L1123.866742375,75.74201083322981L1124.5475605,76.17344369459892L1125.080502,76.59964058361942L1126.250337875,75.33439320093015L1130.953107375,75.08481185231352L1131.5636475,75.29047859413544L1136.805215,75.41569152427832L1138.199062,75.7550163129344L1140.131707,75.73942099744448L1142.382067125,76.20491582946846L1144.083380375,76.01405619224528L1144.794945125,75.61950034042815L1144.841797125,75.65705295931542L1147.035056375,75.70597833534697L1148.0745851249999,75.31648955354461L1148.48014775,75.48916403949255L1148.9223135,75.49867887096474L1149.35276625,75.94345501670608L1149.783219,75.65851677954191L1150.240026,75.34762388374651L1151.219525625,75.73075067764142L1152.59141075,75.39452243177215L1153.28833425,75.13863539602602L1154.011612,75.54996887966985L1154.806631875,75.60565034905443L1155.219515125,77.89557189028704L1159.83004475,74.61087190359825L1159.90617925,74.69611128140235L1160.0028115,75.08441774686793L1161.67484225,75.962935085874L1162.080404875,75.5897735296748L1162.5840638749999,74.92018837761128L1163.30294925,75.86356421280647L1163.5825971250001,76.0076379035599L1163.827106,75.91479792073363L1166.540129625,74.743966942653L1168.2429069999998,75.30033123027528L1168.642613125,75.34216270828614L1170.504980125,75.24222882743919L1170.727527125,75.27201193897048L1171.827085,74.61633307905862L1172.1404077500001,75.04849785054097L1177.046690625,75.34368282929057L1177.822676875,75.13142889644945L1177.9017396250001,74.99371719360346L1180.127209625,76.20795607147733L1182.446383625,75.35331026231864L1185.509333125,75.22578900028014L1185.75677025,75.51123394444579L1186.16086875,75.2878887583501L1188.646953,75.44637544825667L1190.528353625,75.41901327017689L1191.726007875,75.28704424668098L1191.85338675,74.5871692760847L1192.9749064999999,75.1544559146277L1193.941229,74.61740279383952L1194.737713,77.28684787917877L1195.87680225,74.80899434117595L1197.090561875,75.67112815380091L1198.021745375,74.19525956083083L1199.0656665000001,74.9172607371583L1199.207686625,75.49856626940885L1199.687919625,74.74700718466187L1200.542968625,75.07062405627215L1205.27062825,75.37205842137331L1205.6483725,74.65996618196363L1206.595661375,74.6105340989306L1207.79477975,74.8474477725103L1209.898727375,74.88055262994015L1210.791843625,74.86777235334733L1212.1022355,74.7816884638741L1212.209116625,74.75702872313553L1213.163726125,74.9085341165773L1213.9411765,75.84977052221069L1213.9646025,75.30033123027528L1214.087589,74.39518362330267L1216.970451125,74.72037691669533L1217.327697625,74.99974137684325L1218.197387875,76.68730089487502L1220.43310675,74.11852160049597L1220.9806895,74.30577798793087L1221.116853125,75.24594467878336L1223.668823,75.24037090176711L1223.828412625,75.22826623450959L1225.359887375,74.78050614753732L1225.54583125,73.97281518718222L1228.352558875,74.63159058988089L1230.917705875,75.09488969156513L1232.67612,74.29879669146607L1232.888418125,75.08475555153558L1235.182702,75.06482507614413L1236.377428,74.89158758241678L1236.750779875,75.02034746157L1237.2266205,74.28883145377034L1237.92647225,74.45373643236229L1242.534073625,74.55868108244607L1244.6102028750001,75.3399669779464L1244.6292365,75.89897740213195L1244.76686425,76.22208756674075L1245.3905815,74.97485643299291L1246.1167874999999,73.35474524693558L1246.168031875,72.44301044894377L1246.8693477499999,73.96279364870855L1247.857632125,74.47124597430224L1249.22951725,73.74637345829973L1249.289546375,74.28550970787177L1249.3334701249998,74.47907178243616L1252.2324376249999,74.6373895700089L1253.56332725,75.22820993373165L1253.87372175,75.45864901784802L1254.3276005,75.40786571614439L1254.648243875,75.17393598379562L1254.74048375,75.05626735789696L1255.731696375,74.91405159281561L1256.299776875,71.47700170101592L1258.374442,75.11273703817272L1259.447645625,73.8433796986937L1261.2148445,74.972829604987L1263.172379625,75.3868092251941L1263.2880455,75.08295392664144L1264.15187925,74.26169447880233L1265.964466,74.6926769339479L1267.339279375,74.77380635496223L1269.04791325,74.60349650168786L1269.913211125,75.3543236763216L1271.233851875,74.46758642373601L1273.8414585,78.71080715488637L1274.596947,74.94321539578954L1275.7126102500001,74.79435613891104L1277.52226875,74.30938123771915L1278.293862625,74.86326829111198L1279.4739473749999,74.09234173875296L1280.0390996249998,74.30757961282501L1285.3363038749999,74.56701359758148L1285.514927125,70.12488221796224L1285.696478625,74.69718099618325L1286.9219512500001,74.81271019252011L1287.239666375,74.20905325142661L1289.137172375,73.87946849735448L1289.29383375,74.09971714066336L1289.68621925,74.18276078812772L1290.897050625,74.79069658834482L1297.61006375,73.98182331165293L1299.263060875,74.95638977782795L1302.2630530000001,74.71153769455844L1302.4094655,74.75218685623253L1303.330400125,74.86940507590765L1304.08735275,74.81918478198344L1304.132740625,74.74284092709416L1304.856018375,75.16892521455878L1305.011215625,74.7995358104817L1305.620291625,74.69385925028467L1305.847231,74.51257074531162L1306.6700692499999,74.43211693363259L1308.039026125,74.10990758147085L1309.0273104999999,73.76410820335144L1310.522182125,74.45311712380493L1311.725692875,74.15247096959496L1311.790114375,74.11717038182536L1313.611485875,75.47491994267324L1313.8018221250002,75.15231648506591L1314.280591,74.75072303600604L1315.44310625,74.15652462560678L1315.795960375,74.70185396075243L1321.371348375,74.27120931027451L1324.1971096250002,74.48132381355384L1324.7403000000002,74.00242939637968L1325.063871625,72.85214820224786L1325.318629375,73.53192379511887L1326.756400125,74.74841470411042L1327.31716,74.1182963973842L1327.470893125,73.97883937042201L1328.640729,73.71141067519778L1329.163421625,73.84839046793053L1329.219058375,73.90317112486804L1329.7007555,74.12026692461217L1330.6290107500001,74.21592194633553L1333.6011845,73.79428542032832L1336.81933125,74.26175077958027L1338.044803875,75.01843323511997L1340.141430875,74.67888324335212L1341.462071625,74.5801879796199L1342.836885,73.2071246071718L1345.623114875,75.22319916449482L1345.87348025,73.93531886907289L1347.7417037500002,74.1438006497919L1351.235106,74.23461380461225L1351.7782963749999,74.4631386622786L1352.63773775,74.55586604354897L1354.9495911249999,73.66079627582798L1355.160425125,73.97523612063372L1357.86173575,74.4267683597281L1358.9129775,74.11863420205185L1358.9554371250001,74.06987772835413L1359.61868575,73.95181499700988L1359.75924175,73.93396765040228L1361.005212125,74.00727126328269L1361.38734875,74.01656089164311L1362.11941125,74.37277591368178L1362.3170681249999,74.24159510107705L1363.24971575,73.46008400246495L1363.82950925,74.00130338082084L1364.510327375,73.93633228307584L1365.359519875,73.67025480652222L1370.7196815,74.51876383088523L1375.555686375,73.7717088083736L1378.299456625,73.57065873034293L1379.3492342499999,73.72610517824063L1379.391693875,74.10450270678842L1384.782602125,74.30290664825583L1386.451704625,74.27942922385404L1386.920224625,74.52867276780302L1389.543936625,75.47418803256L1389.946571,73.80430695880199L1390.615676125,74.16660246485839L1392.7503703749999,73.85638517839828L1394.3096635000002,74.02692023478443L1394.759149875,73.97619323385874L1396.999261125,74.38060172181571L1398.344792,73.98700298322359L1398.999255875,74.16767217963928L1403.494119625,73.51767969829956L1405.866002125,73.91578249912703L1407.51314275,74.3170944442972L1407.526319875,74.38493688171724L1408.671265625,74.09926673443982L1410.507278375,73.86240936163807L1413.32864725,73.50292889447877L1418.357916625,73.4091317984275L1418.5482528750001,73.56728068366641L1419.1778266249999,74.32829829910764L1420.677090625,74.13428581831971L1421.349124,73.7308907443657L1421.3637652500001,73.6574745299294L1422.48235675,73.77311632782215L1423.0606861249998,73.93391134962434L1426.097281375,75.10682545648882L1426.128028,75.2494916277937L1426.182200625,75.6359401675872" fill="none"></path></g></g></g></g></g></g><g transform="translate(48, 377)" clip-path="url(#clip_1)"><clipPath id="clip_1"><rect width="1464" height="22"></rect></clipPath><g><g><line x1="0" y1="0" x2="0" y2="5" style="visibility: inherit;" fill="rgb(0, 0, 0)" stroke="rgb(204, 204, 204)" stroke-width="1px"></line><line x1="146.4125" y1="0" x2="146.4125" y2="5" style="visibility: inherit;" fill="rgb(0, 0, 0)" stroke="rgb(204, 204, 204)" stroke-width="1px"></line><line x1="292.825" y1="0" x2="292.825" y2="5" style="visibility: inherit;" fill="rgb(0, 0, 0)" stroke="rgb(204, 204, 204)" stroke-width="1px"></line><line x1="439.2375" y1="0" x2="439.2375" y2="5" style="visibility: inherit;" fill="rgb(0, 0, 0)" stroke="rgb(204, 204, 204)" stroke-width="1px"></line><line x1="585.65" y1="0" x2="585.65" y2="5" style="visibility: inherit;" fill="rgb(0, 0, 0)" stroke="rgb(204, 204, 204)" stroke-width="1px"></line><line x1="732.0625" y1="0" x2="732.0625" y2="5" style="visibility: inherit;" fill="rgb(0, 0, 0)" stroke="rgb(204, 204, 204)" stroke-width="1px"></line><line x1="878.475" y1="0" x2="878.475" y2="5" style="visibility: inherit;" fill="rgb(0, 0, 0)" stroke="rgb(204, 204, 204)" stroke-width="1px"></line><line x1="1024.8875" y1="0" x2="1024.8875" y2="5" style="visibility: inherit;" fill="rgb(0, 0, 0)" stroke="rgb(204, 204, 204)" stroke-width="1px"></line><line x1="1171.3" y1="0" x2="1171.3" y2="5" style="visibility: inherit;" fill="rgb(0, 0, 0)" stroke="rgb(204, 204, 204)" stroke-width="1px"></line><line x1="1317.7125" y1="0" x2="1317.7125" y2="5" style="visibility: inherit;" fill="rgb(0, 0, 0)" stroke="rgb(204, 204, 204)" stroke-width="1px"></line><line x1="1464.125" y1="0" x2="1464.125" y2="5" style="visibility: inherit;" fill="rgb(0, 0, 0)" stroke="rgb(204, 204, 204)" stroke-width="1px"></line></g><g transform="translate(0, 8)"><text style="text-anchor: middle; visibility: hidden; font-family: &quot;Helvetica Neue&quot;, sans-serif; font-size: 12px; font-weight: 200;" x="0" y="0" dx="0em" dy="0.95em" fill="rgb(50, 49, 63)" stroke="none" stroke-width="1px">-100k</text><text style="text-anchor: middle; visibility: inherit; font-family: &quot;Helvetica Neue&quot;, sans-serif; font-size: 12px; font-weight: 200;" x="146.4125" y="0" dx="0em" dy="0.95em" fill="rgb(50, 49, 63)" stroke="none" stroke-width="1px">0</text><text style="text-anchor: middle; visibility: inherit; font-family: &quot;Helvetica Neue&quot;, sans-serif; font-size: 12px; font-weight: 200;" x="292.825" y="0" dx="0em" dy="0.95em" fill="rgb(50, 49, 63)" stroke="none" stroke-width="1px">100k</text><text style="text-anchor: middle; visibility: inherit; font-family: &quot;Helvetica Neue&quot;, sans-serif; font-size: 12px; font-weight: 200;" x="439.2375" y="0" dx="0em" dy="0.95em" fill="rgb(50, 49, 63)" stroke="none" stroke-width="1px">200k</text><text style="text-anchor: middle; visibility: inherit; font-family: &quot;Helvetica Neue&quot;, sans-serif; font-size: 12px; font-weight: 200;" x="585.65" y="0" dx="0em" dy="0.95em" fill="rgb(50, 49, 63)" stroke="none" stroke-width="1px">300k</text><text style="text-anchor: middle; visibility: inherit; font-family: &quot;Helvetica Neue&quot;, sans-serif; font-size: 12px; font-weight: 200;" x="732.0625" y="0" dx="0em" dy="0.95em" fill="rgb(50, 49, 63)" stroke="none" stroke-width="1px">400k</text><text style="text-anchor: middle; visibility: inherit; font-family: &quot;Helvetica Neue&quot;, sans-serif; font-size: 12px; font-weight: 200;" x="878.475" y="0" dx="0em" dy="0.95em" fill="rgb(50, 49, 63)" stroke="none" stroke-width="1px">500k</text><text style="text-anchor: middle; visibility: inherit; font-family: &quot;Helvetica Neue&quot;, sans-serif; font-size: 12px; font-weight: 200;" x="1024.8875" y="0" dx="0em" dy="0.95em" fill="rgb(50, 49, 63)" stroke="none" stroke-width="1px">600k</text><text style="text-anchor: middle; visibility: inherit; font-family: &quot;Helvetica Neue&quot;, sans-serif; font-size: 12px; font-weight: 200;" x="1171.3" y="0" dx="0em" dy="0.95em" fill="rgb(50, 49, 63)" stroke="none" stroke-width="1px">700k</text><text style="text-anchor: middle; visibility: inherit; font-family: &quot;Helvetica Neue&quot;, sans-serif; font-size: 12px; font-weight: 200;" x="1317.7125" y="0" dx="0em" dy="0.95em" fill="rgb(50, 49, 63)" stroke="none" stroke-width="1px">800k</text><text style="text-anchor: middle; visibility: hidden; font-family: &quot;Helvetica Neue&quot;, sans-serif; font-size: 12px; font-weight: 200;" x="1464.125" y="0" dx="0em" dy="0.95em" fill="rgb(50, 49, 63)" stroke="none" stroke-width="1px">900k</text></g><line x1="0" y1="0" x2="1464.125" y2="0" fill="rgb(0, 0, 0)" stroke="rgb(204, 204, 204)" stroke-width="1px"></line></g></g></g></g></svg>