<svg viewBox="0 0 1513 400" xmlns="http://www.w3.org/2000/svg"><g><g><g><g><g><line x1="48.875" y1="377.828125" x2="43.875" y2="377.828125" style="visibility: inherit;" fill="rgb(0, 0, 0)" stroke="rgb(204, 204, 204)" stroke-width="1px"></line><line x1="48.875" y1="330.59960937500006" x2="43.875" y2="330.59960937500006" style="visibility: inherit;" fill="rgb(0, 0, 0)" stroke="rgb(204, 204, 204)" stroke-width="1px"></line><line x1="48.875" y1="283.37109375" x2="43.875" y2="283.37109375" style="visibility: inherit;" fill="rgb(0, 0, 0)" stroke="rgb(204, 204, 204)" stroke-width="1px"></line><line x1="48.875" y1="236.14257812500006" x2="43.875" y2="236.14257812500006" style="visibility: inherit;" fill="rgb(0, 0, 0)" stroke="rgb(204, 204, 204)" stroke-width="1px"></line><line x1="48.875" y1="188.9140625" x2="43.875" y2="188.9140625" style="visibility: inherit;" fill="rgb(0, 0, 0)" stroke="rgb(204, 204, 204)" stroke-width="1px"></line><line x1="48.875" y1="141.68554687499997" x2="43.875" y2="141.68554687499997" style="visibility: inherit;" fill="rgb(0, 0, 0)" stroke="rgb(204, 204, 204)" stroke-width="1px"></line><line x1="48.875" y1="94.45703125" x2="43.875" y2="94.45703125" style="visibility: inherit;" fill="rgb(0, 0, 0)" stroke="rgb(204, 204, 204)" stroke-width="1px"></line><line x1="48.875" y1="47.22851562499994" x2="43.875" y2="47.22851562499994" style="visibility: inherit;" fill="rgb(0, 0, 0)" stroke="rgb(204, 204, 204)" stroke-width="1px"></line><line x1="48.875" y1="0" x2="43.875" y2="0" style="visibility: inherit;" fill="rgb(0, 0, 0)" stroke="rgb(204, 204, 204)" stroke-width="1px"></line></g><g transform="translate(38.875, 0)"><text style="text-anchor: end; visibility: hidden; font-family: &quot;Helvetica Neue&quot;, sans-serif; font-size: 12px; font-weight: 200;" x="0" y="377.828125" dx="0em" dy="0.3em" fill="rgb(50, 49, 63)" stroke="none" stroke-width="1px">0.55</text><text style="text-anchor: end; visibility: inherit; font-family: &quot;Helvetica Neue&quot;, sans-serif; font-size: 12px; font-weight: 200;" x="0" y="330.59960937500006" dx="0em" dy="0.3em" fill="rgb(50, 49, 63)" stroke="none" stroke-width="1px">0.6</text><text style="text-anchor: end; visibility: inherit; font-family: &quot;Helvetica Neue&quot;, sans-serif; font-size: 12px; font-weight: 200;" x="0" y="283.37109375" dx="0em" dy="0.3em" fill="rgb(50, 49, 63)" stroke="none" stroke-width="1px">0.65</text><text style="text-anchor: end; visibility: inherit; font-family: &quot;Helvetica Neue&quot;, sans-serif; font-size: 12px; font-weight: 200;" x="0" y="236.14257812500006" dx="0em" dy="0.3em" fill="rgb(50, 49, 63)" stroke="none" stroke-width="1px">0.7</text><text style="text-anchor: end; visibility: inherit; font-family: &quot;Helvetica Neue&quot;, sans-serif; font-size: 12px; font-weight: 200;" x="0" y="188.9140625" dx="0em" dy="0.3em" fill="rgb(50, 49, 63)" stroke="none" stroke-width="1px">0.75</text><text style="text-anchor: end; visibility: inherit; font-family: &quot;Helvetica Neue&quot;, sans-serif; font-size: 12px; font-weight: 200;" x="0" y="141.68554687499997" dx="0em" dy="0.3em" fill="rgb(50, 49, 63)" stroke="none" stroke-width="1px">0.8</text><text style="text-anchor: end; visibility: inherit; font-family: &quot;Helvetica Neue&quot;, sans-serif; font-size: 12px; font-weight: 200;" x="0" y="94.45703125" dx="0em" dy="0.3em" fill="rgb(50, 49, 63)" stroke="none" stroke-width="1px">0.85</text><text style="text-anchor: end; visibility: inherit; font-family: &quot;Helvetica Neue&quot;, sans-serif; font-size: 12px; font-weight: 200;" x="0" y="47.22851562499994" dx="0em" dy="0.3em" fill="rgb(50, 49, 63)" stroke="none" stroke-width="1px">0.9</text><text style="text-anchor: end; visibility: hidden; font-family: &quot;Helvetica Neue&quot;, sans-serif; font-size: 12px; font-weight: 200;" x="0" y="0" dx="0em" dy="0.3em" fill="rgb(50, 49, 63)" stroke="none" stroke-width="1px">0.95</text></g><line x1="48.875" y1="0" x2="48.875" y2="377.828125" fill="rgb(0, 0, 0)" stroke="rgb(204, 204, 204)" stroke-width="1px"></line></g></g><g transform="translate(48, 0)" clip-path="url(#clip_0)"><clipPath id="clip_0"><rect width="1464" height="377"></rect></clipPath><g><g><g><line x1="0" y1="0" x2="0" y2="377.828125" fill="rgb(0, 0, 0)" stroke="rgb(60, 60, 60)" stroke-width="1px" opacity="0.25"></line><line x1="122.01041666666666" y1="0" x2="122.01041666666666" y2="377.828125" fill="rgb(0, 0, 0)" stroke="rgb(60, 60, 60)" stroke-width="1px" opacity="0.25"></line><line x1="244.02083333333331" y1="0" x2="244.02083333333331" y2="377.828125" fill="rgb(0, 0, 0)" stroke="rgb(60, 60, 60)" stroke-width="1px" opacity="0.25"></line><line x1="366.03125" y1="0" x2="366.03125" y2="377.828125" fill="rgb(0, 0, 0)" stroke="rgb(60, 60, 60)" stroke-width="1px" opacity="0.25"></line><line x1="488.04166666666663" y1="0" x2="488.04166666666663" y2="377.828125" fill="rgb(0, 0, 0)" stroke="rgb(60, 60, 60)" stroke-width="1px" opacity="0.25"></line><line x1="610.0520833333334" y1="0" x2="610.0520833333334" y2="377.828125" fill="rgb(0, 0, 0)" stroke="rgb(60, 60, 60)" stroke-width="1px" opacity="0.25"></line><line x1="732.0625" y1="0" x2="732.0625" y2="377.828125" fill="rgb(0, 0, 0)" stroke="rgb(60, 60, 60)" stroke-width="1px" opacity="0.25"></line><line x1="854.0729166666667" y1="0" x2="854.0729166666667" y2="377.828125" fill="rgb(0, 0, 0)" stroke="rgb(60, 60, 60)" stroke-width="1px" opacity="0.25"></line><line x1="976.0833333333333" y1="0" x2="976.0833333333333" y2="377.828125" fill="rgb(0, 0, 0)" stroke="rgb(60, 60, 60)" stroke-width="1px" opacity="0.25"></line><line x1="1098.09375" y1="0" x2="1098.09375" y2="377.828125" fill="rgb(0, 0, 0)" stroke="rgb(60, 60, 60)" stroke-width="1px" opacity="0.25"></line><line x1="1220.1041666666667" y1="0" x2="1220.1041666666667" y2="377.828125" fill="rgb(0, 0, 0)" stroke="rgb(60, 60, 60)" stroke-width="1px" opacity="0.25"></line><line x1="1342.1145833333333" y1="0" x2="1342.1145833333333" y2="377.828125" fill="rgb(0, 0, 0)" stroke="rgb(60, 60, 60)" stroke-width="1px" opacity="0.25"></line><line x1="1464.125" y1="0" x2="1464.125" y2="377.828125" fill="rgb(0, 0, 0)" stroke="rgb(60, 60, 60)" stroke-width="1px" opacity="0.25"></line></g><g><line x1="0" y1="377.828125" x2="1464.125" y2="377.828125" fill="rgb(0, 0, 0)" stroke="rgb(60, 60, 60)" stroke-width="1px" opacity="0.25"></line><line x1="0" y1="330.59960937500006" x2="1464.125" y2="330.59960937500006" fill="rgb(0, 0, 0)" stroke="rgb(60, 60, 60)" stroke-width="1px" opacity="0.25"></line><line x1="0" y1="283.37109375" x2="1464.125" y2="283.37109375" fill="rgb(0, 0, 0)" stroke="rgb(60, 60, 60)" stroke-width="1px" opacity="0.25"></line><line x1="0" y1="236.14257812500006" x2="1464.125" y2="236.14257812500006" fill="rgb(0, 0, 0)" stroke="rgb(60, 60, 60)" stroke-width="1px" opacity="0.25"></line><line x1="0" y1="188.9140625" x2="1464.125" y2="188.9140625" fill="rgb(0, 0, 0)" stroke="rgb(60, 60, 60)" stroke-width="1px" opacity="0.25"></line><line x1="0" y1="141.68554687499997" x2="1464.125" y2="141.68554687499997" fill="rgb(0, 0, 0)" stroke="rgb(60, 60, 60)" stroke-width="1px" opacity="0.25"></line><line x1="0" y1="94.45703125" x2="1464.125" y2="94.45703125" fill="rgb(0, 0, 0)" stroke="rgb(60, 60, 60)" stroke-width="1px" opacity="0.25"></line><line x1="0" y1="47.22851562499994" x2="1464.125" y2="47.22851562499994" fill="rgb(0, 0, 0)" stroke="rgb(60, 60, 60)" stroke-width="1px" opacity="0.25"></line><line x1="0" y1="0" x2="1464.125" y2="0" fill="rgb(0, 0, 0)" stroke="rgb(60, 60, 60)" stroke-width="1px" opacity="0.25"></line></g></g></g><g><g><line x1="0" y1="897.3417968750001" x2="1464.125" y2="897.3417968750001" fill="rgb(0, 0, 0)" stroke="rgb(153, 153, 153)" stroke-width="1.5px"></line></g></g><g><g><line x1="122.01041666666666" y1="0" x2="122.01041666666666" y2="377.828125" fill="rgb(0, 0, 0)" stroke="rgb(153, 153, 153)" stroke-width="1.5px"></line></g></g><g><g><g><g><g><path style="fill: none;" stroke="rgb(204, 51, 17)" stroke-width="2px" d="M123.03530416666666,296.70049435039994L123.10851041666666,296.78860506787896L123.74296458333333,295.56538449243027L124.3042125,296.45035020099215L126.08556458333332,296.9808560102392L127.59849375,297.09484108504176L127.72050416666666,297.13229856350927L128.23294791666666,290.7171821911468L128.67218541666665,286.48705939209225L129.52625833333335,283.40848399582876L129.5750625,281.02173150482633L129.77027916666665,279.41260199526107L133.57700416666665,277.7293550409979L135.08993333333333,276.62847689693575L136.13922291666668,276.37457689282326L136.3100375,275.9928792198813L137.4813375,275.5155560310078L137.79856458333333,275.21006962286765L138.38421458333332,274.5072449173248L139.43350416666667,274.0793841924674L139.62872083333335,273.7659028195171L141.16605208333334,274.6105458995419L141.5808875,274.53361607729164L141.72729999999999,274.81668456185935L142.41055833333334,274.61129030254426L145.70483958333332,273.4175493028048L146.75412916666664,273.5327567458255L148.0230375,273.7380390211617L148.95031666666665,273.323310475034L150.80487499999998,273.3650981251413L152.78144375,273.13582628112545L154.12355833333334,273.2952160409897L154.19676458333333,273.46667578014274L154.53839375,273.2723285429678L154.63600208333332,273.1557202042264L155.80730208333335,273.79104631497347L155.97811666666666,274.5423182530859L157.05180833333333,273.1740032709191L157.78387083333334,271.87927701790073L159.17478958333334,269.54286467623683L159.88245,268.15349352563936L160.27288333333334,266.86867640135017L160.66331666666667,266.1307108221222L163.27433958333333,263.83304604432533L164.32362916666668,261.1707444000699L164.39683541666668,259.867771441726L167.00785833333333,249.61531852444674L167.54470416666666,243.92395925198792L167.81312708333334,240.6434773447656L168.78921041666666,237.77998331086505L169.52127291666667,235.840399630115L171.69305833333334,233.91172453223845L173.15718333333334,232.5821715320798L175.3777729166667,231.92287208478993L175.67059791666665,231.54026411565437L176.45146458333332,229.94295075516217L177.20792916666667,229.51264151565164L178.30602291666665,227.46875293780505L180.30699375,219.22560879557L181.45389166666666,214.1510637724765L181.86872708333334,210.98592065475825L181.91753125,209.03093937178673L182.03954166666668,202.3443703775269L182.64959375,202.5350343309142L182.67399583333332,202.7008916139855L182.96682083333334,202.63076047973357L183.08883125,202.70846733433166L183.79649166666667,196.8884377839843L184.16252291666666,193.5961301732915L187.53001041666667,188.1257284341071L188.872125,184.998224448692L194.41139791666666,175.2567060617544L196.14394583333336,167.82699569145956L196.21715208333333,163.45884534838873L199.14540208333335,159.22228045779062L200.8291458333333,151.7719721415197L201.170775,145.5308799620602L201.21957916666665,141.0349020329048L201.24398125,138.1780741550806L202.65930208333333,136.1050487088507L206.92966666666666,131.08295579436242L210.29715416666667,129.0083015748952L210.34595833333333,127.28549291817663L211.5660625,123.08459620086589L213.29861041666666,122.46006568876348L214.56751875000003,120.49944454812226L215.0799625,118.99922978901537L215.25077708333333,118.39055880080116L217.8618,117.60882053234707L218.54505833333332,116.94668842324478L219.22831666666667,116.69831345528434L220.49722500000001,115.38503342729109L222.01015416666667,114.9681100574436L224.40155833333333,113.6838909072311L225.15802291666665,112.49180171218552L225.28003333333336,111.69867295910882L227.35421041666666,111.53256258749951L227.40301458333332,111.48059438360622L229.37958333333336,111.92547031923613L231.62457500000002,110.74382190479031L232.03941041666667,110.28947001459852L232.55185416666666,110.04561731785634L235.82173333333333,109.03932257690337L235.91934166666664,108.57309979299941L236.11455833333335,108.12610777154708L238.84759166666666,108.00359645167828L239.18922083333334,107.97531044459987L240.1165,107.78756732069934L240.40932500000002,107.13186666264221L241.4342125,105.90929345090132L243.31317291666664,106.51043828605964L245.2409375,105.23378596304718L245.28974166666669,104.55024142845787L246.60745416666666,104.85258979240405L247.29071249999998,105.91488078245129L249.85293124999998,104.12010681001016L252.43955208333333,105.64521665959916L252.78118125,105.9079141951836L254.26970833333334,104.92591488974466L257.41757708333336,104.83905336759051L260.58984791666666,104.60053583868779L261.6635395833333,104.15139681276497L263.7377166666667,104.16605216332863L264.2257583333333,103.52337781194501L265.1042333333333,103.25866223151183L265.27504791666667,102.80132615860373L266.15352291666665,102.0922149482135L266.6659666666667,102.15329954495365L268.17889583333334,102.9627122607177L268.6669375,101.77244337302267L271.37556874999996,103.98475143720555L271.6195895833333,105.47585893797037L273.30333333333334,104.24929028806633L273.6205604166667,103.30611719467521L273.76697291666665,102.65308225469755L275.47511875000004,102.72675612273491L276.03636666666665,102.1973455975737L277.5981,102.94173463726258L281.112,102.69580093145646L282.4297125,103.3253941263722L283.13737291666666,101.85610168153596L284.4550854166667,101.77577636599278L285.40676666666667,101.6380854600502L285.47997291666667,101.73538568247608L285.77279791666666,101.54730353041299L286.5292625,100.67590259780769L289.2622958333333,99.82057216403058L291.99532916666664,99.6182667995597L292.6297833333333,99.71539816022545L295.41162083333336,99.43681816204264L295.6068375,99.40528747703962L296.60732291666665,99.88186095254912L298.85231458333334,100.57398137023927L300.4140479166667,99.77802120452156L301.58534791666665,99.14582064855114L302.1465958333333,96.51464935978072L303.80593749999997,98.56309042496127L304.04995833333334,98.60470409634053L304.12316458333333,98.70252550582501L304.4891958333333,99.4146677006209L305.2944645833333,97.94797232722033L309.73564375,97.21010330732787L311.37058333333334,96.98686484812117L312.0538416666667,96.61031046028984L312.2978625,96.3509576858047L313.1519354166667,96.3846067162433L317.00746458333333,96.28106954490107L318.83762083333335,97.73445158273694L321.61945833333334,96.86248538759776L322.61994375,100.13197379610637L326.08503958333336,98.73730722435835L326.20705,98.17171938881148L326.42666875000003,98.06193873961945L328.6960625,96.40014597825069L329.37932083333334,96.43281154998755L329.62334166666665,96.20076893594046L331.89273541666665,95.94979758345295L332.72240625,95.96800450423041L334.18653125000003,95.98973840606169L338.6521125,96.01448930897243L339.28656666666666,95.39149707725892L339.35977291666666,94.9205491158142L339.87221666666665,94.77832691820112L340.04303125,94.69837595400446L341.4583520833333,95.4134610790893L341.60476458333335,95.71097101655664L342.97128125,95.30656124453719L347.9737083333333,95.25461737637062L349.34022500000003,95.70901148475309L350.12109166666664,95.20512510009621L352.2440729166667,95.24593525070259L353.0493416666667,94.89644905366481L354.97710625,95.53300306853197L355.14792083333333,96.30158670004624L355.46514791666664,96.60009519163611L356.92927291666666,95.95876283010898L357.66133541666665,95.41278554610045L358.2225833333333,94.78579163860024L358.6618208333333,94.72017290553896L362.20012291666666,93.14138075459118L363.76185625,91.77849312125511L367.44657083333334,92.8305318970165L368.081025,93.9345240550075L372.76622499999996,92.71221702772885L372.93703958333333,92.72375966446697L375.694475,92.72363638911162L375.76768125,92.60089428891848L377.71984791666665,92.565015590646L378.7691375,94.0380488229294L380.8433145833333,93.70187594491989L381.5997791666667,93.3834944859073L381.99021250000004,93.36814655798963L382.40504791666666,93.24277803618929L383.38113125000007,92.32106346659646L384.50362708333336,92.0755495739595L384.52802916666667,91.85885615964179L385.06487500000003,92.51477645080945L385.9189479166667,91.46865017260114L386.55340208333337,91.71404182937732L386.7730208333333,91.61107616626919L388.0419291666667,91.99028950186778L388.11513541666665,92.21146677547523L388.94480625,91.44725670640224L389.0424145833333,91.17763103510919L389.6036625,91.60831997877193L389.750075,91.7725759239396L389.79887916666667,91.84890194390863L390.921375,92.31344022191104L392.9223458333333,92.41522110379651L393.38598541666664,92.30454973989384L393.60560416666664,92.20024523784167L395.26494583333334,91.7621588680488L395.31375,91.67528075770832L396.77787500000005,92.10972773478954L400.65780625,93.30557436296516L401.9511166666667,93.45226001247266L402.4391583333333,93.43742114103276L403.19562291666665,93.58077764203506L403.4152416666667,93.22212799845101L403.8300770833333,92.48689918660654L404.2449125,91.63179353944827L406.24588333333327,87.85850974271375L406.80713125,89.22274175774112L407.1487604166667,90.0745434663657L408.9545145833333,89.94343529802347L411.7363520833333,90.363505208339L414.0789520833333,91.16970445165526L414.2009625,91.39648976742916L415.0794375,91.2193034284245L415.8359020833333,91.18658800194748L418.2029041666667,92.27205293581682L418.8373583333334,92.13514352526238L419.3254,93.45684651675651L420.35028750000004,92.5417477495169L421.9120208333334,91.95953859112086L421.98522708333337,91.57316718419742L424.7182604166667,90.89999128160088L426.01157083333334,90.7223698267473L431.20921458333333,90.66714326331817L431.89247291666663,89.89723282480128L436.23604374999996,90.13028588491755L437.7489729166667,88.7250216914598L439.6523354166667,89.11043623132309L440.0671708333333,89.25414850569689L440.7260270833333,89.2878359843458L441.23847083333334,91.10363792228202L441.53129583333333,91.0848044907898L441.8973270833333,90.50425852627893L445.0695979166667,89.97709715651774L449.04713749999996,89.1604215406241L449.1447458333334,88.95613135898776L451.53615,88.94996473847868L452.5610375,89.40995797330305L453.80554375,89.05045325310027L454.3667916666667,90.91083034743218L455.80651458333335,89.63666069448345L455.87972083333335,89.49934956898755L458.17351666666667,88.89275761042813L459.0031875,90.52768273503199L459.85726041666663,90.07558032837125L460.8089416666666,89.39796238950117L463.0539333333333,88.78341655246152L463.59077916666666,88.07001568767714L465.59175,88.52004210158913L469.03244375,84.39618759716876L470.64298125000005,84.13217587558375L470.81379583333336,84.54429840598522L471.44825000000003,84.85275960969341L471.88748749999996,85.01096960068435L473.3272104166666,86.63707407249927L474.54731458333333,86.49998566003234L475.69421250000005,87.10493990811165L477.23154375,86.47431632783974L479.0617,86.72747926600698L479.20811249999997,86.84791615419346L479.94017499999995,86.27483625002355L480.15979375,85.87284086406316L480.4038145833333,86.10756536858582L482.64880625,86.09224423359962L482.868425,86.1549589061953L483.38086875,86.57405926077615L484.9426020833333,86.53948900126852L485.4062416666667,86.60249988283033L488.70052291666667,85.90125735987903L490.23785416666664,86.16931808376125L491.36035000000004,88.78209843808452L492.43404166666664,90.59868365011539L494.53262083333334,89.08021973528366L495.9479416666667,89.27227630906788L499.58385208333334,89.44863037787223L499.63265625,89.47379758483078L500.41352291666664,88.87087300938168L501.1699875,88.41827132882503L506.09920833333337,88.70354753464801L506.68485833333335,88.15694590031552L506.90447708333335,87.68233265333282L508.2465916666667,87.03647403573484L511.93130625000003,86.92161227259334L512.2729354166667,87.0953966082605L514.7619479166667,88.31149497245838L515.2743916666667,88.57216851072064L518.51986875,88.16646566670562L520.27681875,91.74061955005033L520.8136645833333,89.97457244576572L521.2284999999999,89.51533567916778L522.3509958333334,87.69134206331631L523.1806666666666,86.01481837019679L524.7668020833333,87.27586623831309L526.71896875,86.8524982144533L528.5735270833333,86.87169381533397L529.4520020833332,86.47178761097388L532.1606333333333,83.63743647985956L532.1850354166667,82.17693735895784L533.01470625,84.04917430460893L533.3563354166666,85.18969946942747L534.3812229166666,85.93824249579461L538.4563708333334,85.852938807079L539.2128354166667,85.69609129380802L540.04250625,85.64889259402679L542.6779312499999,84.7591264310239L543.4832,84.780167200618L543.9224375,85.35350237005372L543.9712416666666,85.68164917264676L544.5568916666667,85.59324995221527L544.58129375,85.4479672253762L544.6545,85.26963536962921L545.1181395833333,85.34264110341701L545.9722125000001,87.24391980955028L546.7286770833333,86.57758970347197L547.6803583333333,85.98130192480767L547.9243791666667,85.49714527128509L550.0961645833333,85.01943993235892L550.43779375,84.75369305746409L551.1454541666667,84.4033627749929L551.3406708333333,84.46518744421451L552.04833125,84.94811684611403L554.4641375,85.80790860376038L560.10101875,86.59037910205888L560.7842770833333,86.26102092297526L561.0038958333333,85.95969998255612L561.6871541666667,86.60646129311766L562.5412270833333,85.97401017847886L562.8340520833334,83.49828138442774L564.3957854166666,82.87933560083474L567.6900666666667,84.74169023536984L569.0077791666666,83.99048019619784L572.2532562499999,84.90416974565096L572.2776583333333,85.46454444335819L575.69395,85.05228419971115L578.6466020833333,85.9174989865893L578.8174166666666,86.31069427861564L581.8676770833333,85.31236327947704L584.6251125,84.7949107267649L585.7720104166667,84.67448810115849L586.30885625,82.39112281352521L586.8213,81.81845777847013L588.4806416666667,82.4543121311375L589.7739520833334,84.20253738743423L591.1892729166667,83.60307584431683L592.2629645833333,85.36283044391524L597.9242479166667,84.35323286409613L598.46109375,84.40139659184473L598.60750625,84.29116434604373L601.2673333333333,84.29136983529003L601.6089625,83.82802512481976L601.8773854166667,84.1140845325823L603.4879229166667,84.12132190564932L603.6343354166667,84.10731027588042L605.0740583333334,84.09507484511909L605.7329145833334,84.52453754224706L606.2941625000001,84.41056246517337L608.0023083333333,84.24520495900202L608.5391541666667,82.82557957038244L609.3444229166666,82.94132194598745L609.9300729166667,82.49415143295516L610.90615625,83.39845920779942L611.34539375,83.35272326352373L611.4918062500001,83.72145901118017L611.5650125000001,83.88257122893214L613.4195708333333,84.36120555745259L613.4439729166667,84.42099857261303L614.5908708333334,85.25605266443955L615.3473354166666,84.86892908734558L616.0061916666667,85.19792865654813L616.0793979166667,84.92357291953851L616.2014083333333,84.5602402515089L617.9339562499999,85.24902098022409L618.2023791666667,85.59909742429113L619.39808125,84.82128984096204L620.789,84.73510846860734L621.8870937500001,84.13063860736048L622.8875791666667,81.8273139155761L623.2048062499999,82.2470340758922L623.2292083333334,83.0648916731991L623.7660541666667,83.40764778715169L624.1564875,83.17307441263972L626.86511875,84.06556226472304L627.3775625,84.86978984924548L629.0613062499999,84.94907770802769L629.1345125,84.85569579564157L629.1589145833334,84.79829290922805L630.3302145833334,84.20341071343466L630.9158645833334,84.01020405821379L634.1369395833333,83.68333231028834L636.4063333333334,82.49451394486078L637.9680666666666,82.83625446361395L639.5542020833334,82.02871802342435L640.11545,82.17809787831447L642.165225,82.78688652480685L642.23843125,83.35927901459507L642.3604416666666,83.45789620566529L643.99538125,83.82895030979455L644.43461875,83.85757029148425L646.264775,86.1628734569922L647.21645625,84.56878013748224L651.0719854166666,84.11380643506078L652.1212750000001,84.77507732277638L653.7074104166667,83.64541316384384L653.8538229166667,82.784366896439L654.4882770833333,82.48769501525953L655.0007208333334,87.47693224544105L655.1471333333334,86.25559566401563L659.0026625,86.32703906790539L664.8347604166667,84.46356076912497L665.1519875,83.3224805521453L665.9816583333333,83.63622537735756L666.5673083333334,83.54726976221002L666.9089375,83.50090020989745L667.5921958333333,83.22929611002127L670.3740333333333,83.38796873432233L671.22810625,84.77408158617811L672.1309833333333,84.28123971574058L674.3515729166667,84.65828384926203L677.52384375,84.09035407603704L679.354,82.77417397410227L681.5501875,80.44031573648334L681.62339375,79.28927811832773L685.2105,79.63918400504616L685.3081083333334,80.5252548395377L686.6258208333333,80.95949699439302L686.8698416666667,81.11827300109832L687.6995125,81.13789287987873L687.9435333333333,81.33624558524644L688.5779875,81.66127301511233L689.67608125,81.97085029598804L690.2373291666667,79.36558693944204L691.4818354166666,80.94901184375607L692.0674854166667,82.49150861247193L692.531125,83.0276079731438L693.6780229166667,81.84558641227352L696.4354583333334,82.4425965646268L697.6311604166666,82.14012428704558L699.6077291666667,82.5670721675599L699.8761520833333,82.82869081117332L700.36419375,86.72437145735393L702.1455458333332,83.73187527854338L703.5364645833333,82.58120164118168L706.1474875,81.72173748276055L709.58818125,82.18368821620294L710.5398625,82.2132703551909L711.2475229166666,82.91149336110112L713.3705041666667,81.96258850439222L714.5418041666667,80.70423666991331L714.5906083333333,80.0795055693838L715.5178875,80.810324106601L716.0791354166666,81.13711448549452L717.8116833333333,82.16182356258014L721.2523770833333,81.7651267120155L722.8141104166666,80.17149847039059L725.2055145833334,80.21576382913275L725.40073125,79.73478279138709L729.64669375,79.27616581935501L730.4519625,80.47344114180703L732.2577166666666,80.47811515377481L733.2093979166667,80.12158547581896L735.3079770833333,80.59136179606116L737.0893291666666,78.19245478634537L737.69938125,78.13824483975463L738.0166083333334,78.01597543176081L738.2362270833333,78.13014041813352L740.1639916666666,79.27830816839423L741.6037145833333,80.96699803324361L744.3855520833333,77.72333265227422L744.7515833333334,77.20568684288025L746.6793479166666,78.37457120000221L748.8023291666666,82.45421873452602L750.9741145833334,82.55768790236021L751.8769916666666,81.27217650255358L752.7310645833334,81.10225205233422L754.53681875,86.44415472327614L757.5626770833333,84.96423834955806L758.0751208333334,84.25541508042727L758.2947395833334,83.84829501006851L758.6851729166667,82.95913133699509L760.2225041666667,81.34267640928215L760.2469062499999,80.46220908802627L760.5885354166666,80.4078236033655L763.5899916666666,81.63306429334801L763.8584145833335,81.82569441108899L766.2986229166667,82.19316216224576L767.9335625,83.18302672398323L772.8139791666667,83.12455456654561L775.91304375,82.37591521244696L775.9374458333334,81.98465384033437L776.6451062499999,80.96614514749268L776.6939104166667,80.33236197843257L779.1097166666667,81.21079730928898L782.7700291666666,81.34697346670742L784.3317625,80.86114479919257L784.4781750000001,80.78582006566955L784.6245875000001,80.40768494511832L784.7221958333333,80.4084391781625L784.7465979166667,80.35290622440345L787.5528375,80.91223096107609L788.8949520833335,80.49143611158536L791.8232020833333,79.92160297678771L793.1897187499999,78.78374521767722L795.5811229166667,78.02545239790157L795.8251437499999,77.60286091350832L795.9959583333333,77.77392649011051L796.4351958333334,78.38255218759167L797.8261145833334,78.34729395304623L798.89980625,78.99530753862553L800.9983854166667,78.40538296623049L803.218975,80.79883862542675L803.2677791666666,81.45773608223396L804.0486458333334,80.99448769270361L804.4878833333333,81.52650417076933L811.3936729166667,80.84529427420279L812.0281270833333,80.35389627393289L813.10181875,77.53180563320194L814.4439333333333,78.73389757551683L815.9568625,78.47583448907255L816.2740895833333,78.05480655909628L818.5190812500001,78.19262443598245L819.2267416666666,79.50179382911256L820.1784229166667,80.14197189696688L827.0110062499999,80.73425649419755L828.9387708333334,80.31443310120898L829.573225,80.88635456857355L830.1100708333332,81.45518348729462L830.5737104166667,81.71811015563219L831.1837625,80.0062074024276L831.5741958333333,79.68703677296901L831.8670208333334,79.24751820830414L832.9163104166666,79.63279739699749L834.5756520833332,79.7835223586901L836.08858125,80.31524283321471L841.1642145833333,79.28440766599346L841.3350291666667,78.5127684496585L841.5546479166667,78.9855488898749L842.7747520833333,79.1708709550959L842.8479583333333,79.62871934417251L843.3604020833333,80.69506235610464L844.1168666666666,81.02652006263139L844.58050625,80.18817671467872L847.8991895833333,79.91343657999494L849.8757583333334,80.77711763093919L849.9001604166667,81.33732664185038L850.72983125,80.14495348820691L854.0729166666667,88.13676018909882L854.1949270833334,86.25686901745962L854.82938125,84.48347967583834L855.9518770833333,83.13292015176359L856.3179083333333,82.77598586224076L858.3188791666668,81.60099621216989L859.36816875,81.17939801797587L860.0026229166667,82.71216465591078L861.0031083333333,81.72757468649695L862.0523979166667,81.06556644028541L865.2734729166666,79.74592954675774L865.4442875,79.37933088565865L865.5418958333332,79.03325794640921L868.0309083333333,79.1163063595294L869.0069916666667,76.77763120399254L871.3007875,77.66264736840918L871.6424166666667,77.5795056609573L872.0816541666667,78.51594270509548L879.7439083333334,78.52655275459318L881.03721875,77.73745635290584L883.9410666666666,78.01126747736112L888.3822458333334,78.35400509779913L889.2851229166668,82.52824446656712L891.57891875,80.9403070595393L895.4588500000001,78.67485819713949L896.0933041666666,77.85994984146458L897.0693875000001,78.69008701461712L898.1918833333334,78.56539263322588L899.7780187500001,78.72566553276567L899.9488333333334,77.98700133716636L900.14405,77.97213913838914L901.3153500000001,77.57850734328991L901.5349687500001,78.0521684745222L902.9746916666667,78.21218815743293L903.29191875,78.34272360421335L906.8302208333332,82.11845208159599L907.1230458333334,82.89272928376647L907.9283145833333,81.95808615134456L908.9532020833334,80.71594825723787L910.5393375,79.94690659248238L913.4919895833333,80.13812021153211L915.7857854166666,80.06223646916169L916.1030125000001,80.2677176121158L917.78675625,79.8556985012163L918.9092520833334,79.85249460627699L920.1049541666666,78.56954940864478L921.4714708333332,77.97251307679136L924.6925458333334,78.73264993071808L924.8877625,79.17427400329865L927.3279708333333,78.839104674297L927.6207958333332,77.60024461755893L928.1088375,76.95047795614437L930.8906750000001,77.74628982244172L930.9882833333334,78.33495971850004L931.6471395833333,78.7007505100828L931.69594375,80.01592820502731L933.89213125,79.51570196650124L935.6002770833334,79.14111407463514L936.2591333333332,77.74449442712074L936.4299479166666,77.7891837148747L937.11320625,77.9130373083878L940.4318895833333,77.86826205899285L942.6768812500001,78.44908498614996L942.8476958333333,78.87676015654188L945.0438833333333,80.40700145737964L945.2635020833333,80.45194369231399L945.5563270833334,80.62333178885126L946.0199666666666,79.96659959140328L946.4348020833332,81.5311066953563L947.7525145833333,80.48493829154069L948.0453395833333,80.09149352611217L948.6553916666667,79.46161398530671L949.5582687499999,78.15150302028314L950.9735895833333,78.12468621228282L952.0960854166666,77.82544825505698L952.559725,79.14404666144543L952.7305395833334,79.10434134472246L953.8530354166667,78.53518881954295L955.12194375,78.7075432445559L955.19515,80.71520585173823L956.0492229166667,79.87574737208752L959.22149375,78.98292130716243L960.4904020833334,79.1920849603793L960.5148041666667,79.26686741153935L961.0272479166666,79.25989512590638L962.3693625,79.22434096105746L964.4923437499999,77.74923229444227L964.5167458333333,76.83101719642104L965.444025,79.10566654033619L966.2980979166667,78.69090115749634L966.5177166666667,78.62517709828194L970.0072145833333,78.8622920840042L970.78808125,78.90038211593361L973.1062791666666,78.75167640454674L976.8153958333334,77.48909972478208L978.0110979166667,78.19701792612966L978.8895729166667,77.15391748474707L980.4025020833333,77.81160235543786L982.2814625000001,78.39862681654677L982.3546687500001,79.03126440798542L984.2092270833333,78.63015785559446L984.7216708333333,76.83005245641266L984.9168874999999,75.39121813954654L985.2341145833334,75.44417892996518L985.28291875,75.56434762558519L985.42933125,76.22089595861684L987.8207354166666,77.64184122934171L987.8695395833333,78.02670656925721L989.9925208333334,77.87793332676608L990.0657270833334,77.91856653613905L990.7245833333333,77.86977797074951L994.8973395833333,78.79946472204523L995.0681541666667,77.91160791714066L996.6786916666666,78.81096042192911L996.8007020833332,78.88811733478724L999.3385187499999,77.47275320588449L999.7533541666666,77.49968743487534L1001.3882937499999,78.04647154421707L1001.8763354166667,78.41170052326385L1004.4873583333334,77.30684629629798L1005.7562666666666,77.26799410313816L1006.1222979166668,77.40374374508389L1006.4883291666666,79.32408953939091L1006.8787625,79.18745960732826L1007.1959895833332,78.98974976895317L1008.0500625,78.99401720401983L1008.5137020833333,77.87454820129932L1008.6845166666666,77.30634762952428L1014.3702020833333,77.07352478010768L1015.8343270833333,77.05978717086947L1016.5663895833334,77.07420003837035L1017.0300291666666,78.80137270477064L1019.2018145833334,78.40441614038735L1020.1534958333333,77.81186258507967L1020.2511041666667,78.04440333765416L1020.4707229166665,78.06547095240899L1020.6171354166668,77.86389832134842L1021.2271875,78.62077395207172L1022.61810625,79.55232992745329L1026.1808104166666,79.1044704812133L1029.0114520833333,78.34886568582738L1029.8167208333334,78.24310381160944L1032.4765479166667,78.13120549773731L1032.6229604166667,78.04564489487154L1032.8425791666666,76.16842926387244L1035.9904479166667,77.05133952815385L1036.82011875,77.16132960669876L1043.5306916666666,79.30991195020925L1044.57998125,80.91038213802341L1046.263725,79.48369142846292L1051.5101729166665,78.09374294503647L1053.9747833333333,78.1358364800684L1055.3168979166667,77.9011856897963L1055.6829291666666,77.34302628859393L1057.3666729166666,77.78298699453183L1058.19634375,77.99464873523095L1060.0020979166666,78.94239852048798L1060.3925312499998,79.07870345767043L1060.6609541666667,77.112128996585L1061.490625,76.70364009960542L1063.4427916666668,76.70183368306044L1064.9313187500002,76.77630547713147L1064.9557208333333,76.04014180414168L1066.3710416666668,74.3390177180977L1066.8590833333333,76.47051122188486L1067.9083729166668,78.33775045365041L1068.0303833333335,79.39510468234823L1069.7873333333334,79.7848340386314L1073.2280270833332,79.49331783326943L1073.789275,79.01037529377624L1073.8136770833335,78.53925370417375L1077.1323604166666,79.12214891049172L1079.4749604166666,78.84345675089452L1080.9146833333332,78.2216914943441L1081.18310625,76.13913803929591L1088.1132979166666,76.65085194246922L1090.8219291666667,77.03920112803257L1091.5051875000001,77.26038747600279L1092.74969375,75.90238980674928L1095.1166958333333,76.12420112866425L1095.8731604166667,75.50783448616124L1095.9951708333333,74.87605824105111L1096.41000625,75.86030457169358L1097.6545125,76.22868950032023L1098.5817916666665,73.39423219796458L1103.5598166666666,75.54437338560183L1105.3167666666666,76.25951455384109L1107.8789854166666,77.10171184301146L1110.0019666666667,77.45576128633923L1110.2947916666667,77.15310639510068L1111.0756583333334,76.22958180863861L1111.7589166666667,76.11513109186563L1113.8818979166667,76.63478127098386L1114.12591875,76.71222502034936L1114.27233125,77.02298964193932L1114.3699395833332,77.20514703545854L1115.1264041666668,77.29703327103039L1115.1752083333333,78.03662482996918L1115.5168375,78.46022408682927L1115.66325,78.52987473147408L1117.4446020833334,77.75838912073397L1123.4719166666666,71.74282226961031L1125.6193,74.59043821860809L1126.2537541666666,75.9560009284732L1128.4499416666667,76.24719221667442L1129.1087979166666,77.45680536941285L1130.81694375,80.932010491695L1132.4762854166665,80.38743682895205L1132.86671875,79.87120673306487L1134.47725625,79.05575256774688L1135.64855625,78.77051408781767L1136.0389895833334,78.39114820271965L1136.74665,79.25587636529048L1137.3567020833334,78.40948695867439L1137.8203416666668,77.6451469704013L1141.3342416666667,77.84800955732175L1141.5294583333332,76.75513916677693L1143.0911916666666,76.0012508960304L1143.7500479166667,76.29783088176617L1147.0443291666666,76.67425037560866L1147.21514375,77.56938319977672L1147.6543812500001,77.19765573673885L1150.1677958333332,77.7035116504635L1150.7534458333334,76.52672010442643L1150.9974666666667,76.32732965797055L1151.3390958333334,76.9798042587928L1152.852025,76.95819895137055L1155.1702229166667,76.38605644039791L1156.7807604166667,76.76425414298461L1157.8788541666668,77.1184575633078L1158.3180916666668,77.59534554840582L1158.5621125,77.76709767899791L1159.07455625,76.69003961106756L1161.7343833333334,77.91949896791198L1163.4425291666666,77.01771844866045L1165.8339333333333,77.26943265146565L1168.6889770833334,77.22041324896537L1169.6162562499999,77.21496321855733L1170.421525,79.2453673808202L1170.8363604166666,79.34660244380984L1171.7880416666667,79.79892665234536L1177.6933458333333,78.91162864711032L1178.0837791666665,78.44820703679261L1182.8665875,77.01017788250857L1183.9402791666666,76.90165569249308L1184.7943520833335,76.31407115918256L1185.5264145833332,77.11039411387947L1186.1120645833334,76.68769072398311L1186.89293125,77.07763162254406L1187.1613541666666,77.6136160548723L1187.18575625,77.85233196913879L1188.64988125,77.03209756493362L1189.3087375,76.34049452631791L1189.4063458333333,77.44110460472331L1189.7723770833334,76.58175501293528L1190.40683125,76.47756882275092L1190.9436770833333,74.22365066865046L1191.7489458333332,74.53955938754353L1193.8231229166668,77.36807972319639L1195.1164333333334,77.6837960370047L1195.2140416666666,77.13879343719253L1195.53126875,77.23278657444399L1197.4834354166667,77.75274054205761L1197.58104375,77.63356156514641L1198.2399,76.29253919734242L1198.45951875,76.15290552508787L1200.5825,75.81847425833763L1200.7533145833333,75.73938013801967L1201.8270062499998,75.46208136995881L1203.1203166666667,76.68232270889877L1203.9743895833333,77.82001327593423L1204.0719979166668,74.61350499779297L1205.560525,73.33190182598116L1207.9275270833332,75.12498564423129L1208.85480625,76.50274322681724L1209.9773020833334,75.92638239005561L1210.0017041666667,76.14911366396763L1211.4414270833333,77.17514227900563L1213.4912020833333,76.63208943798327L1214.0768520833335,76.92477807984017L1215.2725541666666,76.40219405754067L1215.6141833333334,76.10733550243765L1219.2256916666668,77.98231348162557L1219.9577541666667,78.35933317402396L1221.3974770833333,77.35100405106334L1222.6419833333332,77.32534158230948L1227.6688125,76.15431433302092L1227.88843125,76.54602746446096L1229.1329375,75.94778130947299L1229.1817416666668,76.06230063866076L1232.4760229166666,76.8136028679416L1233.3544979166668,79.63930866127936L1234.4281895833333,77.42419270299052L1235.8679124999999,77.07306764086894L1236.1607375,77.19756239483996L1238.9181729166667,76.76856996744266L1240.5775145833334,77.04555897491804L1241.4315875,76.69970806417695L1245.0919000000001,76.69947446180328L1245.31151875,77.09875453941038L1245.9703749999999,76.61082645372011L1246.7024375,76.70109505480053L1247.5321083333333,76.80777358111305L1248.6302020833334,76.87513622326594L1248.82541875,77.30186722648409L1249.5086770833334,78.34537354933326L1252.2661125,77.48450623666258L1252.6565458333334,77.3517094312013L1254.1694750000001,76.62837833418104L1254.5843104166668,76.22993924731713L1256.6828895833332,76.25891253882463L1256.9025083333333,76.53575301879681L1260.53841875,76.35450402718948L1261.4901,78.03033165080649L1262.7590083333334,79.41216514505174L1269.7868083333333,77.95043162776363L1270.2992520833334,76.98810709896435L1273.7399458333334,77.46153262150432L1274.7892354166668,76.95735452353L1276.0825458333334,77.54926434344225L1276.2533604166667,77.53208193070401L1276.7414020833332,76.97218680910294L1277.37585625,75.55944105722472L1279.57204375,76.10280566655376L1280.8409520833334,74.9811512687744L1282.3050770833333,74.83711569902692L1282.4758916666667,74.80174790261623L1283.1835520833333,74.77985161543455L1284.4768625,75.42459969353274L1284.5744708333332,75.68251975890456L1284.8916979166668,76.12692804048328L1285.2333270833333,76.16436128227332L1285.8189770833333,76.27751052045619L1286.1118020833333,78.00784943443551L1286.89266875,77.57185069288022L1287.0634833333334,77.80711707344022L1287.4051124999999,77.45100591068183L1290.1625479166667,77.12117944797706L1290.4309708333333,75.84406521814054L1290.5773833333333,74.60759510317877L1291.5778687499999,74.54346179906685L1291.6754770833334,74.61368735865011L1292.0171062499999,77.77150774570708L1292.5783541666667,78.38096581908263L1295.1649750000001,78.55278582449824L1296.2142645833333,77.69797639184338L1297.28795625,76.68703153026479L1297.72719375,70.57105064640865L1298.1176270833334,70.93162944335745L1298.8496895833334,72.19330200541913L1300.5334333333333,73.90282462418907L1303.58369375,72.45211469720795L1304.6817875,73.77469412310273L1305.5846645833335,75.22783917269618L1305.6090666666666,76.24556773763305L1305.8530875000001,76.62994331020201L1306.0483041666666,76.24639472733048L1306.65835625,75.61515631523793L1308.6837291666668,76.07311038913326L1308.8057395833334,76.21017113062436L1309.1717708333333,76.14793977931998L1313.905775,73.85962830548499L1317.2732625,74.87057400142407L1322.4465041666667,75.92074650854772L1324.3498666666667,78.13866707265174L1325.6675791666667,75.92199747423706L1326.27763125,76.65316719564271L1329.35229375,76.79086254929734L1331.3288625,76.11121226877856L1332.5245645833334,76.61400836258912L1332.8173895833334,76.63294351205104L1333.2810291666667,75.24354124653263L1334.7207520833333,75.84255200304347L1337.55139375,73.76708493282791L1339.4791583333333,74.06516665626555L1340.5040458333333,75.45123949127037L1342.2609958333333,75.42422876772503L1343.4811,74.82292212891417L1344.3839770833333,75.37468367482171L1345.75049375,74.86467454084726L1346.1409270833333,75.72438792790598L1346.8729895833335,75.79521461128809L1348.6543416666666,75.49981587242098L1351.4361791666668,75.96195078372062L1353.5835625,76.36671921207227L1355.2429041666667,75.79175516869856L1355.9749666666667,76.16395857240985L1356.9998541666666,76.2561448426543L1357.46349375,76.26709159178267L1357.5122979166667,76.27134004920856L1357.6587104166667,76.51280710493853L1362.0998895833334,75.71579784371903L1366.0042229166668,76.02978927325285L1366.8826979166668,75.67409341294211L1369.6889375,76.05663089142678L1369.7865458333333,75.20533608421056L1372.0559395833334,75.33686099495367L1373.3980541666667,75.73063241196195L1374.8621791666667,76.78933702634282L1377.1803770833333,76.8036297752052L1379.57178125,76.79959405026364L1382.1584020833332,75.47477994299851L1384.0129604166666,75.92542232889332L1384.8182291666667,75.21110715422572L1385.8919208333334,75.76600255882613L1385.9895291666667,76.67217180228005L1386.1847458333334,77.24269503896392L1386.7703958333334,76.3644306355041L1389.7962541666668,76.70439137217824L1390.9431520833332,75.61556683076873L1392.5536895833334,76.42681298237113L1392.6024937500001,76.84102275103214L1395.2135166666667,75.87746042407241L1396.70204375,75.84021586174026L1398.0441583333334,75.93646108299794L1398.7274166666666,76.24152627309587L1399.5326854166667,75.7667020570587L1400.1183354166667,75.89994214505566L1400.36235625,74.46271535418538L1401.6312645833334,74.70741021618005" fill="none"></path></g></g></g></g><g opacity="0.20000000298023224"><g><g><g><path style="fill: none;" stroke="rgb(204, 51, 17)" stroke-width="2px" d="M123.03530416666666,296.7004943503998L123.10851041666666,296.84147149836645L123.74296458333333,294.3910927399993L124.3042125,297.4910698742606L126.08556458333332,297.67348439479247L127.59849375,297.25252347812057L127.72050416666666,297.1858633570373L128.23294791666666,281.36388093512505L128.67218541666665,280.2484499225393L129.52625833333335,278.8371583218686L129.5750625,277.4632504377514L129.77027916666665,277.0076645426452L133.57700416666665,275.209980702959L135.08993333333333,274.97931641573086L136.13922291666668,275.9940253365785L136.3100375,275.4206019132398L137.4813375,274.799773234874L137.79856458333333,274.75191757362336L138.38421458333332,273.4531149272807L139.43350416666667,273.43763221334666L139.62872083333335,273.295697952155L141.16605208333334,275.87748272623867L141.5808875,274.41822286276147L141.72729999999999,275.2412839354947L142.41055833333334,274.3032003734261L145.70483958333332,271.62694289395586L146.75412916666664,273.70556761557236L148.0230375,274.04596211900935L148.95031666666665,272.70121803786606L150.80487499999998,273.4277795772068L152.78144375,272.7919185911305L154.12355833333334,273.534300649073L154.19676458333333,273.7238653684035L154.53839375,272.98080770112574L154.63600208333332,272.98080770112574L155.80730208333335,274.7440354647115L155.97811666666666,275.6692261486314L157.05180833333333,271.12153081037104L157.78387083333334,269.93718764558434L159.17478958333334,266.03824617154896L159.88245,266.0694368025288L160.27288333333334,264.941450716462L160.66331666666667,265.0237624538131L163.27433958333333,260.38654887862504L164.32362916666668,257.17729193437845L164.39683541666668,257.91331200441346L167.00785833333333,234.23663914948702L167.54470416666666,235.38692034361884L167.81312708333334,235.72275448404253L168.78921041666666,233.48474226007238L169.52127291666667,232.93102410901338L171.69305833333334,231.01871188543737L173.15718333333334,230.58784203184769L175.3777729166667,230.9339229138568L175.67059791666665,230.96635216195136L176.45146458333332,227.54698071442544L177.20792916666667,228.86717765638605L178.30602291666665,224.40292007103562L180.30699375,206.8608925822191L181.45389166666666,206.53924623783678L181.86872708333334,206.2382059781812L181.91753125,206.0984674473293L182.03954166666668,192.31451688613743L182.64959375,202.82103026099503L182.67399583333332,202.94967753859237L182.96682083333334,202.52556377835572L183.08883125,202.8250276162289L183.79649166666667,188.15839345846325L184.16252291666666,188.6576687572524L187.53001041666667,179.92012582533062L188.872125,180.3069684705697L194.41139791666666,160.64442848134786L196.14394583333336,156.6824301360175L196.21715208333333,156.90661983378232L199.14540208333335,152.86743312189355L200.8291458333333,140.59650966711342L201.170775,136.16924169287086L201.21957916666665,134.29093513917178L201.24398125,133.8928323383443L202.65930208333333,132.99551053950563L206.92966666666666,123.5498164226301L210.29715416666667,125.89632024569437L210.34595833333333,124.7012799330987L211.5660625,116.78325112489983L213.29861041666666,121.52326992060989L214.56751875000003,117.55851283716038L215.0799625,116.74890765035525L215.25077708333333,117.47755231847987L217.8618,116.4362131296657L218.54505833333332,115.95349025959149L219.22831666666667,116.32575100334361L220.49722500000001,113.41511338530108L222.01015416666667,114.34272500267252L224.40155833333333,111.75756218191236L225.15802291666665,110.70366791961715L225.28003333333336,110.50897982949391L227.35421041666666,111.28339703008533L227.40301458333332,111.40264207776636L229.37958333333336,112.59278422268108L231.62457500000002,108.97134928312153L232.03941041666667,109.60794217931107L232.55185416666666,109.67983827274293L235.82173333333333,107.52988046547398L235.91934166666664,107.87376561714336L236.11455833333335,107.45561973936856L238.84759166666666,107.81982947187498L239.18922083333334,107.9328814339824L240.1165,107.50595263484865L240.40932500000002,106.14831567555666L241.4342125,104.07543363329023L243.31317291666664,107.41215553879738L245.2409375,103.31880747852847L245.28974166666669,103.52492462657392L246.60745416666666,105.30611233832315L247.29071249999998,107.50831726752222L249.85293124999998,101.42794585134834L252.43955208333333,107.9328814339824L252.78118125,106.30196049856022L254.26970833333334,103.45291593158618L257.41757708333336,104.70876108435914L260.58984791666666,104.24275954533368L261.6635395833333,103.47768827388063L263.7377166666667,104.18803518917412L264.2257583333333,102.55936628486961L265.1042333333333,102.86158886086196L265.27504791666667,102.11532204924151L266.15352291666665,101.0285481326282L266.6659666666667,102.24492644006386L268.17889583333334,104.17683133436367L268.6669375,99.98704004148021L271.37556874999996,107.30321353347972L271.6195895833333,107.71252018911764L273.30333333333334,102.40943731321022L273.6205604166667,101.89135755458847L273.76697291666665,101.67352984473109L275.47511875000004,102.83726692479104L276.03636666666665,101.40322980983183L277.5981,104.05831819679588L281.112,102.32690037274733L282.4297125,104.26978391874582L283.13737291666666,99.65216301428154L284.4550854166667,101.6552883926779L285.40676666666667,101.43154910113662L285.47997291666667,101.8813360161148L285.77279791666666,101.26518030231819L286.5292625,99.36880119889975L289.2622958333333,98.53757651336491L291.99532916666664,99.31480875285342L292.6297833333333,99.86109520122409L295.41162083333336,99.01894816476852L295.6068375,99.3579914495349L296.60732291666665,100.5967211658135L298.85231458333334,101.61216199677438L300.4140479166667,98.58408095594496L301.58534791666665,98.19751981459558L302.1465958333333,92.56789242662484L303.80593749999997,101.63575202273205L304.04995833333334,98.66712460340932L304.12316458333333,98.8492576200515L304.4891958333333,100.4828809928149L305.2944645833333,95.74792926711962L309.73564375,96.10329977748916L311.37058333333334,96.65200715931132L312.0538416666667,96.04547887854278L312.2978625,95.96192852407694L313.1519354166667,96.43508026190102L317.00746458333333,96.12576378788799L318.83762083333335,99.91452463949099L321.61945833333334,95.55453609488904L322.61994375,105.03620640886948L326.08503958333336,96.64530736673623L326.20705,97.32333763549104L326.42666875000003,97.8972677658312L328.6960625,93.90745683619747L329.37932083333334,96.48180990759283L329.62334166666665,95.85270501486957L331.89273541666665,95.57334055472165L332.72240625,95.99531488539651L334.18653125000003,96.02233925880864L338.6521125,96.05161566333845L339.28656666666666,94.45700872968877L339.35977291666666,94.21412717364723L339.87221666666665,94.56499362178147L340.04303125,94.57844950770959L341.4583520833333,96.48608876671642L341.60476458333335,96.15723592275754L342.97128125,94.6999465865083L347.9737083333333,95.17670157412067L349.34022500000003,96.39060264732689L350.12109166666664,94.44929552311072L352.2440729166667,95.30715047661215L353.0493416666667,94.3722197581082L354.97710625,96.48783409083262L355.14792083333333,97.45446214731783L355.46514791666664,97.04785792902112L356.92927291666666,94.99676428781822L357.66133541666665,94.59381962008774L358.2225833333333,93.84530077734956L358.6618208333333,94.62174480594695L362.20012291666666,90.77319252816955L363.76185625,89.734161671251L367.44657083333334,94.4085900606587L368.081025,95.59051229199395L372.76622499999996,90.87875648681069L372.93703958333333,92.74107361957425L375.694475,92.72345147607842L375.76768125,92.41678113862866L377.71984791666665,92.5111975432373L378.7691375,96.24759867135435L380.8433145833333,93.19761662790546L381.5997791666667,92.90592229738826L381.99021250000004,93.34512466611335L382.40504791666666,93.05472525348881L383.38113125000007,90.93849161220709L384.50362708333336,91.70727873500431L384.52802916666667,91.53381603816518L385.06487500000003,93.49865688756103L385.9189479166667,89.89946075528854L386.55340208333337,92.08212931454176L386.7730208333333,91.45662767160678L388.0419291666667,92.5591095052659L388.11513541666665,92.54323268588627L388.94480625,90.30094160279253L389.0424145833333,90.77319252816955L389.6036625,92.25435339426616L389.750075,92.0189598416909L389.79887916666667,91.9633909738622L390.921375,93.01024763891468L392.9223458333333,92.56789242662484L393.38598541666664,92.13854269403959L393.60560416666664,92.0437884847633L395.26494583333334,91.10502931335935L395.31375,91.54496359219769L396.77787500000005,92.76139820041129L400.65780625,95.09934430522844L401.9511166666667,93.67228848673398L402.4391583333333,93.41516283387313L403.19562291666665,93.7958123935386L403.4152416666667,92.68415353307495L403.8300770833333,91.38405596883962L404.2449125,90.34913506871084L406.24588333333327,82.19858404761175L406.80713125,91.26908978028217L407.1487604166667,91.35224602930242L408.9545145833333,89.74677304551L411.7363520833333,90.99361007381225L414.0789520833333,92.37900331662962L414.2009625,91.73666774109L415.0794375,90.95352391991759L415.8359020833333,91.13751486223185L418.2029041666667,93.9002503366209L418.8373583333334,91.92977940943086L419.3254,95.43940100399777L420.35028750000004,91.16909959865728L421.9120208333334,91.08622485352674L421.98522708333337,90.99361007381225L424.7182604166667,89.89022742770607L426.01157083333334,90.4559376444667L431.20921458333333,90.58430341817433L431.89247291666663,88.74236716702575L436.23604374999996,90.47986547509203L437.7489729166667,86.61712540127331L439.6523354166667,89.68855804111803L440.0671708333333,89.4697169172577L440.7260270833333,89.33836720231915L441.23847083333334,93.82734082918608L441.53129583333333,91.05655434355134L441.8973270833333,89.63343957951287L445.0695979166667,89.1863551018759L449.04713749999996,87.93540811678389L449.1447458333334,88.64969608653331L451.53615,88.94071480771521L452.5610375,90.0999478255398L453.80554375,88.51119617279613L454.3667916666667,93.70139598892996L455.80651458333335,87.72540621506045L455.87972083333335,89.29338288074354L458.17351666666667,87.98286967258895L459.0031875,92.9800704219378L459.85726041666663,89.39742671838025L460.8089416666666,88.38153548119584L463.0539333333333,87.861597796902L463.59077916666666,86.99991439050058L465.59175,89.1950817224569L469.03244375,78.21040584053839L470.64298125000005,83.73615829320619L470.81379583333336,85.16248220158735L471.44825000000003,85.31545141525561L471.88748749999996,85.24828458717087L473.3272104166666,89.07623078022147L474.54731458333333,86.29435304133216L475.69421250000005,88.01237128023052L477.23154375,85.52838095743203L479.0617,87.10722367325792L479.20811249999997,87.02857148647303L479.94017499999995,85.41521639376873L480.15979375,85.26984778512264L480.4038145833333,86.4596521253697L482.64880625,86.06926253112027L482.868425,86.2490309150889L483.38086875,87.20270979264745L484.9426020833333,86.48763361200685L485.4062416666667,86.69701620517293L488.70052291666667,84.84939357545221L490.23785416666664,86.57140916958446L491.36035000000004,92.7012689695693L492.43404166666664,93.32356146816159L494.53262083333334,86.80252386303613L495.9479416666667,89.56036116974423L499.58385208333334,89.71316148107866L499.63265625,89.51154839526856L500.41352291666664,87.96648614620784L501.1699875,87.73936880799005L506.09920833333337,89.13146184338251L506.68485833333335,87.33704344881693L506.90447708333335,86.970412782859L508.2465916666667,86.0676861093379L511.93130625000003,86.749319627881L512.2729354166667,87.3560731117613L514.7619479166667,90.13564251875499L515.2743916666667,88.96317881811405L518.51986875,87.55791140068317L520.27681875,97.10185037506744L520.8136645833333,87.32550178933883L521.2284999999999,88.82648052927101L522.3509958333334,84.95535163953895L523.1806666666666,83.50003283051768L524.7668020833333,89.16743804048741L526.71896875,86.21744617866347L528.5735270833333,86.90048721665511L529.4520020833332,85.87192830443377L532.1606333333333,79.3859097831882L532.1850354166667,79.98618867760518L533.01470625,86.8575297230854L533.3563354166666,86.90048721665511L534.3812229166666,87.06105703534553L538.4563708333334,85.7249832740053L539.2128354166667,85.4608200239017L540.04250625,85.57809454435477L542.6779312499999,83.4244771865196L543.4832,84.81172835500905L543.9224375,86.21350512420753L543.9712416666666,86.1738693765364L544.5568916666667,85.46065112156788L544.58129375,85.23004313511768L544.6545,85.0021375860087L545.1181395833333,85.45214970409864L545.9722125000001,90.09583786875004L546.7286770833333,85.57809454435477L547.6803583333333,85.08687025681132L547.9243791666667,84.77091029100114L550.0961645833333,84.30288192396978L550.43779375,84.35507274512196L551.1454541666667,83.87786735128606L551.3406708333333,84.55792444804678L552.04833125,85.6725109489634L554.4641375,87.09759624022985L560.10101875,87.76408484950656L560.7842770833333,85.76698365434999L561.0038958333333,85.50771857192734L561.6871541666667,87.57660325895989L562.5412270833333,85.02533350652078L562.8340520833334,79.78468819335097L564.3957854166666,81.95091692544514L567.6900666666667,87.53522218717256L569.0077791666666,82.86366513743991L572.2532562499999,86.27470406983042L572.2776583333333,86.30510648991907L575.69395,84.43389383424068L578.6466020833333,87.21532116690645L578.8174166666666,86.90048721665511L581.8676770833333,83.81486678076902L584.6251125,84.0187318976968L585.7720104166667,84.49385416274885L586.30885625,78.96607488207513L586.8213,80.95946022588754L588.4806416666667,83.40809366013849L589.7739520833334,86.82487527187908L591.1892729166667,82.70388352964068L592.2629645833333,88.00246234331274L597.9242479166667,82.83883649436751L598.46109375,84.47364218346769L598.60750625,84.12581597734237L601.2673333333333,84.29167806915933L601.6089625,83.13300805911416L601.8773854166667,84.54317364422599L603.4879229166667,84.13217796524981L603.6343354166667,84.08629283122713L605.0740583333334,84.076721698977L605.7329145833334,85.16873158793891L606.2941625000001,84.23959984956304L608.0023083333333,83.99716869974503L608.5391541666667,80.69614148745308L609.3444229166666,83.1149355093948L609.9300729166667,81.82339566340664L610.90615625,84.75492087006563L611.34539375,83.28411934711033L611.4918062500001,84.27456263266498L611.5650125000001,84.12423955556L613.4195708333333,85.07915705023328L613.4439729166667,84.51068809535349L614.5908708333334,86.50863380217919L615.3473354166666,84.28824372170487L616.0061916666667,85.6914280103519L616.0793979166667,84.5120393140241L616.2014083333333,84.0152412494644L617.9339562499999,86.2821920732967L618.2023791666667,86.12421209039161L619.39808125,83.65457846596831L620.789,84.60583641007537L621.8870937500001,83.2239338154904L622.8875791666667,78.37232687789941L623.2048062499999,82.87661431636656L623.2292083333334,84.29167806915933L623.7660541666667,83.92178195808077L624.1564875,82.82121435087168L626.86511875,85.404294042848L627.3775625,86.07613122602919L629.0613062499999,85.06800949620077L629.1345125,84.71562292706216L629.1589145833334,84.7121885796077L630.3302145833334,83.31108741974452L630.9158645833334,83.72039407538244L634.1369395833333,83.19302468840027L636.4063333333334,80.71128639671946L637.9680666666666,83.34886524174357L639.5542020833334,80.81741336314002L640.11545,82.40216766064981L642.165225,83.7000694945454L642.23843125,84.21786774927745L642.3604416666666,83.60582199227059L643.99538125,84.38553146598855L644.43461875,83.90050026401872L646.264775,89.62082820525387L647.21645625,82.17764015821734L651.0719854166666,83.43134588142851L652.1212750000001,85.76698365434999L653.7074104166667,81.95091692544514L653.8538229166667,81.49279749533156L654.4882770833333,82.04268719349051L655.0007208333334,94.96078809071332L655.1471333333334,84.4235907918773L659.0026625,86.43420417373994L664.8347604166667,81.66834332095453L665.1519875,81.61086022667581L665.9816583333333,84.10684261517594L666.5673083333334,83.41383633948857L666.9089375,83.43134588142851L667.5921958333333,82.82188996020699L670.3740333333333,83.6259776707738L671.22810625,86.85325086396182L672.1309833333333,83.54197691008443L674.3515729166667,85.22385004954407L677.52384375,83.23845941619942L679.354,80.79990382120008L681.5501875,76.93952838005492L681.62339375,77.56272169109428L685.2105,80.16404283512378L685.3081083333334,81.85436109127471L686.6258208333333,81.61086022667581L686.8698416666667,81.35643701115617L687.6995125,81.16732269804919L687.9435333333333,81.63377464329818L688.5779875,82.14881415991107L689.67608125,82.43521621730173L690.2373291666667,75.457691904623L691.4818354166666,83.32414920022705L692.0674854166667,84.80525376554573L692.531125,83.8317570141516L693.6780229166667,80.07255407096812L696.4354583333334,83.33811179315666L697.6311604166666,81.6864158706739L699.6077291666667,83.20749398833135L699.8761520833333,83.2211187765933L700.36419375,92.56789242662484L702.1455458333332,79.24313101032743L703.5364645833333,80.85519118513906L706.1474875,80.4325412451289L709.58818125,82.87661431636656L710.5398625,82.25764356367284L711.2475229166666,83.95882786996657L713.3705041666667,80.53923121932888L714.5418041666667,78.81670891819516L714.5906083333333,79.1424089185893L715.5178875,81.90655191242689L716.0791354166666,81.62730005383486L717.8116833333333,83.69888717820862L721.2523770833333,81.17008143616835L722.8141104166666,77.78105610795313L725.2055145833334,80.28216186724597L725.40073125,79.01331123476842L729.64669375,78.58824036130676L730.4519625,82.26935412548477L732.2577166666666,80.48512617172668L733.2093979166667,79.58679095888505L735.3079770833333,81.29602627642447L737.0893291666666,74.59409427177155L737.69938125,78.05692991986865L738.0166083333334,77.83257131977001L738.2362270833333,78.30138789769256L740.1639916666666,81.00055979378516L741.6037145833333,83.50003283051768L744.3855520833333,72.85783458082L744.7515833333334,76.42921812878916L746.6793479166666,80.12789773568505L748.8023291666666,88.57369003631169L750.9741145833334,82.71289165411139L751.8769916666666,79.34390940284351L752.7310645833334,80.84736537700513L754.53681875,94.45700872968877L757.5626770833333,82.74436378898093L758.0751208333334,83.19218017673114L758.2947395833334,83.23761490453029L758.6851729166667,81.62538582738483L760.2225041666667,78.91799401771272L760.2469062499999,79.14150810614223L760.5885354166666,80.32624537637452L763.5899916666666,83.4709253283217L763.8584145833335,82.11463958770031L766.2986229166667,82.74436378898093L767.9335625,84.66782356658945L772.8139791666667,83.03684633038932L775.91304375,81.25295618129888L775.9374458333334,81.39776178216556L776.6451062499999,79.43838210823009L776.6939104166667,79.38168722484255L779.1097166666667,82.52845030557359L782.7700291666666,81.5512377028353L784.3317625,80.13240179792041L784.4781750000001,80.67283296538511L784.6245875000001,79.84048226429144L784.7221958333333,80.40957052772859L784.7465979166667,80.26960679376492L787.5528375,81.75121806608507L788.8949520833335,79.86024383734906L791.8232020833333,79.06685327459121L793.1897187499999,77.0769585790112L795.5811229166667,76.88801316823805L795.8251437499999,76.96897368691856L795.9959583333333,78.03052485501388L796.4351958333334,79.29549073381344L797.8261145833334,78.29440660122776L798.89980625,79.96732791699463L800.9983854166667,77.52049610763783L803.218975,84.38902211422095L803.2677791666666,82.44608226744452L804.0486458333334,80.29961510840798L804.4878833333333,82.32452888786787L811.3936729166667,79.82347942935297L812.0281270833333,79.6167992735281L813.10181875,73.2986696721054L814.4439333333333,80.53703548898915L815.9568625,78.08873985940585L816.2740895833333,77.42326466413209L818.5190812500001,78.39935125131154L819.2267416666666,81.46554791880766L820.1784229166667,81.1022389987483L827.0110062499999,81.62268339004362L828.9387708333334,79.68469801172608L829.573225,81.74423676962027L830.1100708333332,82.30842686537648L830.5737104166667,82.11250015813852L831.1837625,77.43835327262053L831.5741958333333,79.20828082878137L831.8670208333334,78.58824036130676L832.9163104166666,80.21071618003765L834.5756520833332,80.00960980122903L836.08858125,81.11282354500139L841.1642145833333,77.73815491516137L841.3350291666667,77.35530962515617L841.5546479166667,79.69471955019975L842.7747520833333,79.44885405292729L842.8479583333333,80.3154919277876L843.3604020833333,82.29457687400276L844.1168666666666,81.52370662242168L844.58050625,78.93066169274965L847.8991895833333,79.50132637796918L849.8757583333334,82.07263920735562L849.9001604166667,82.17764015821734L850.72983125,78.35639375774184L854.0729166666667,100.1244702404365L854.1949270833334,83.43703226000065L854.82938125,81.82339566340664L855.9518770833333,81.10708086565131L856.3179083333333,82.24058442795643L858.3188791666668,79.83851173706347L859.36816875,80.54700072668487L860.0026229166667,85.01131461281324L861.0031083333333,80.25068973237643L862.0523979166667,80.07255407096812L865.2734729166666,77.76647420646617L865.4442875,78.82943289401004L865.5418958333332,78.51414853753516L868.0309083333333,79.24087897920975L869.0069916666667,73.26961847068736L871.3007875,78.99017161503428L871.6424166666667,77.45479309977958L872.0816541666667,79.92059827130282L879.7439083333334,78.54246782883996L881.03721875,76.55381175037468L883.9410666666666,78.4219841640442L888.3822458333334,78.86811152845615L889.2851229166668,88.78960351971904L891.57891875,78.55840094899753L895.4588500000001,75.27668490353966L896.0933041666666,76.63758730795229L897.0693875000001,79.93529277434567L898.1918833333334,78.3783510611392L899.7780187500001,78.96607488207513L899.9488333333334,76.87900504376734L900.14405,77.94984584022308L901.3153500000001,76.98805965064088L901.5349687500001,78.7626601713709L902.9746916666667,78.45221768179903L903.29191875,78.53852677438402L906.8302208333332,87.78204479767004L907.1230458333334,84.05414508702228L907.9283145833333,80.55612145271147L908.9532020833334,78.852741416078L910.5393375,78.79334409534925L913.4919895833333,80.42494064010674L915.7857854166666,79.94841085560614L916.1030125000001,80.57593932654703L917.78675625,79.23766983486706L918.9092520833334,79.847688763868L920.1049541666666,76.64513161219651L921.4714708333332,77.0769585790112L924.6925458333334,79.87285521160806L924.8877625,79.83671011216933L927.3279708333333,78.33635068079451L927.6207958333332,75.74195453245187L928.1088375,75.9758279640227L930.8906750000001,78.94000762188801L930.9882833333334,79.21796456258738L931.6471395833333,79.24943669745693L931.69594375,81.98869474744419L933.89213125,78.76536260871211L935.6002770833334,78.57923223683605L936.2591333333332,75.64956495584914L936.4299479166666,77.85621764650563L937.11320625,78.09881769865746L940.4318895833333,77.80109918490047L942.6768812500001,79.32031937688583L942.8476958333333,79.5182729121297L945.0438833333333,82.70236340863624L945.2635020833333,80.51935704471538L945.5563270833334,80.88041393365705L946.0199666666666,78.98150129523123L946.4348020833332,83.87786735128606L947.7525145833333,78.9156856858171L948.0453395833333,79.50132637796918L948.6553916666667,78.51679467409843L949.5582687499999,76.18633657274762L950.9735895833333,78.08446100028226L952.0960854166666,77.37659131921822L952.559725,81.12194427102798L952.7305395833334,79.04478336963797L953.8530354166667,77.68146003177384L955.12194375,78.96607488207513L955.19515,83.72669976251194L956.0492229166667,78.61655965261156L959.22149375,77.6436822097748L960.4904020833334,79.50583044020453L960.5148041666667,79.37904108827928L961.0272479166666,79.24943669745693L962.3693625,79.1710097137838L964.4923437499999,75.53656929451967L964.5167458333333,75.45369454938913L965.444025,82.51764055620873L966.2980979166667,78.06875308323646L966.5177166666667,78.52659100946033L970.0072145833333,79.21796456258738L970.78808125,78.95751716382796L973.1062791666666,78.52861783746624L976.8153958333334,75.59523470513517L978.0110979166667,79.25889522815118L978.8895729166667,75.58926682267332L980.4025020833333,78.79812966147432L982.2814625000001,79.27916350821027L982.3546687500001,79.98022079514334L984.2092270833333,78.02849802700797L984.7216708333333,74.12989435764024L984.9168874999999,73.23296666424716L985.2341145833334,75.52362011559302L985.28291875,75.74460066901514L985.42933125,77.20571845816443L987.8207354166666,79.77325913542876L987.8695395833333,78.6040045791305L989.9925208333334,77.65477346302936L990.0657270833334,77.97951635019848L990.7245833333333,77.79659512266511L994.8973395833333,80.1939948489889L995.0681541666667,76.57982270978385L996.6786916666666,80.15998917911196L996.8007020833332,79.00385270407418L999.3385187499999,75.34970701253036L999.7533541666666,77.54008877836162L1001.3882937499999,78.86664770822966L1001.8763354166667,78.95954399183387L1004.4873583333334,75.64956495584914L1005.7562666666666,77.2097158133983L1006.1222979166668,77.60736820800224L1006.4883291666666,82.20460823085153L1006.8787625,78.98251470923418L1007.1959895833332,78.69318501139054L1008.0500625,79.00041835661972L1008.5137020833333,76.19534469721833L1008.6845166666666,76.45404677186156L1014.3702020833333,76.72429050598288L1015.8343270833333,77.03918075701216L1016.5663895833334,77.09581933962176L1017.0300291666666,81.39213170437137L1019.2018145833334,77.80898129381234L1020.1534958333333,76.92303225211793L1020.2511041666667,78.39321446651587L1020.4707229166665,78.09707237454126L1020.6171354166668,77.5615393747575L1021.2271875,79.75608739815647L1022.61810625,80.94966389052564L1026.1808104166666,78.43268131185317L1029.0114520833333,77.21545849274838L1029.8167208333334,78.08446100028226L1032.4765479166667,77.96335802692914L1032.6229604166667,77.91730399057263L1032.8425791666666,73.35260581737379L1035.9904479166667,78.37570492457593L1036.82011875,77.32631472451607L1043.5306916666666,82.53278546547511L1044.57998125,83.31108741974452L1046.263725,77.34365536412218L1051.5101729166665,76.00882021989668L1053.9747833333333,78.19897678261617L1055.3168979166667,77.54920950438822L1055.6829291666666,76.5057871867902L1057.3666729166666,78.4429280534386L1058.19634375,78.31214134627947L1060.0020979166666,80.36402319837356L1060.3925312499998,79.28316086344415L1060.6609541666667,74.16226730495686L1061.490625,76.09090675413603L1063.4427916666668,76.69912405824283L1064.9313187500002,76.88801316823805L1064.9557208333333,74.93589629465708L1066.3710416666668,71.78733158903191L1066.8590833333333,79.66775147756556L1067.9083729166668,81.1386093012988L1068.0303833333335,80.98113602539519L1069.7873333333334,80.36942807305599L1073.2280270833332,79.05604352522636L1073.789275,78.28596148453647L1073.8136770833335,77.83257131977001L1077.1323604166666,79.99649171996856L1079.4749604166666,78.42541851149866L1080.9146833333332,77.2890436095185L1081.18310625,73.01530785672361L1088.1132979166666,77.41842279722908L1090.8219291666667,77.62172490637744L1091.5051875000001,77.59216699795792L1092.74969375,73.865393302869L1095.1166958333333,76.4569181115366L1095.8731604166667,74.5832845224067L1095.9951708333333,73.92839387338603L1096.41000625,77.33667406765738L1097.6545125,76.78126689326012L1098.5817916666665,69.14254624443123L1103.5598166666666,78.76958516705776L1105.3167666666666,77.33222630619997L1107.8789854166666,78.36500777676696L1110.0019666666667,77.98683545133093L1110.2947916666667,76.69912405824283L1111.0756583333334,74.84429492894554L1111.7589166666667,75.94345501670608L1113.8818979166667,77.41425653966138L1114.12591875,76.82839064439753L1114.27233125,77.48913657432416L1114.3699395833332,77.47838312573725L1115.1264041666668,77.43486262438813L1115.1752083333333,79.14601216837758L1115.5168375,79.09562297211954L1115.66325,78.63435069844121L1117.4446020833334,76.60116070462385L1123.4719166666666,62.71947199292475L1125.6193,78.8618621421046L1126.2537541666666,78.00434499327088L1128.4499416666667,76.68397914897645L1129.1087979166666,79.27122509852046L1130.81694375,86.14481817511836L1132.4762854166665,79.57057633483777L1132.86671875,79.09686158923427L1134.47725625,77.83257131977001L1135.64855625,78.34265636792401L1136.0389895833334,77.82209937507281L1136.74665,80.55296860914672L1137.3567020833334,77.1399028487503L1137.8203416666668,76.49863698799157L1141.3342416666667,78.1523034377023L1141.5294583333332,75.11583358095953L1143.0911916666666,74.8704184899106L1143.7500479166667,76.7427008603699L1147.0443291666666,77.23887961637223L1147.21514375,78.91208243602881L1147.6543812500001,76.64006454218173L1150.1677958333332,78.46229552105063L1150.7534458333334,74.76153278537089L1150.9974666666667,76.02824398828665L1151.3390958333334,77.95851616002614L1152.852025,76.92579099023709L1155.1702229166667,75.52784267393866L1156.7807604166667,77.33155069686467L1157.8788541666668,77.64976269379252L1158.3180916666668,78.31067752605298L1158.5621125,78.02472587488586L1159.07455625,75.0744525091722L1161.7343833333334,79.76368800317863L1163.4425291666666,75.66504766978318L1165.8339333333333,77.64700395567337L1168.6889770833334,77.1468841452151L1169.6162562499999,77.20678817294532L1170.421525,82.29097362421447L1170.8363604166666,79.49845503829414L1171.7880416666667,80.47741296514863L1177.6933458333333,77.58068163925776L1178.0837791666665,77.75307462131599L1182.8665875,74.85313415108243L1183.9402791666666,76.73887240746984L1184.7943520833335,75.43269435921678L1185.5264145833332,78.30487854592496L1186.1120645833334,76.05363563913846L1186.89293125,77.66254297038535L1187.1613541666666,78.41759270336473L1187.18575625,78.21040584053839L1188.64988125,75.80174595862621L1189.3087375,75.30308996839443L1189.4063458333333,79.09201972233126L1189.7723770833334,75.29273062525311L1190.40683125,76.32128953747446L1190.9436770833333,70.84277343749994L1191.7489458333332,75.01342246588314L1193.8231229166668,81.61086022667581L1195.1164333333334,78.15737050771708L1195.2140416666666,76.32128953747446L1195.53126875,77.37377628032112L1197.4834354166667,78.53267149347806L1197.58104375,77.45479309977958L1198.2399,74.28100564563641L1198.45951875,75.94345501670608L1200.5825,75.31682735821227L1200.7533145833333,75.62073895754287L1201.8270062499998,75.0461332178674L1203.1203166666667,78.51268471730867L1203.9743895833333,79.52654912648717L1204.0719979166668,69.8037425805814L1205.560525,71.40949706826353L1207.9275270833332,77.81461137160653L1208.85480625,78.56937960069621L1209.9773020833334,75.06184113491321L1210.0017041666667,76.48321057483548L1211.4414270833333,78.71418520156288L1213.4912020833333,75.81751017644996L1214.0768520833335,77.3638110426254L1215.2725541666666,75.61831802409137L1215.6141833333334,75.66504766978318L1219.2256916666668,80.79478045040736L1219.9577541666667,78.92486271262163L1221.3974770833333,75.8385103666223L1222.6419833333332,77.28684787917877L1227.6688125,74.397773459088L1227.88843125,77.1335971616208L1229.1329375,75.050412076991L1229.1817416666668,76.23407963244239L1232.4760229166666,77.94055621186266L1233.3544979166668,83.87786735128606L1234.4281895833333,74.1015187655575L1235.8679124999999,76.54638004768634L1236.1607375,77.38430452579627L1238.9181729166667,76.12508132634679L1240.5775145833334,77.46104248613113L1241.4315875,76.1809316980652L1245.0919000000001,76.69912405824283L1245.31151875,77.69767465582112L1245.9703749999999,75.87893432518462L1246.7024375,76.83649795642117L1247.5321083333333,76.96779137058178L1248.6302020833334,76.97618018649513L1248.82541875,77.9419637313112L1249.5086770833334,79.9106330336071L1252.2661125,76.19320526765654L1252.6565458333334,77.15251422300929L1254.1694750000001,75.54338168865064L1254.5843104166668,75.63228061702097L1256.6828895833332,76.30237247608596L1256.9025083333333,76.95101373875508L1260.53841875,76.08263053977856L1261.4901,80.54407308623189L1262.7590083333334,81.48491538641969L1269.7868083333333,75.7578313518315L1270.2992520833334,75.54462030576536L1273.7399458333334,78.17167090531433L1274.7892354166668,76.20108737656841L1276.0825458333334,78.43712907331059L1276.2533604166667,77.50630831159646L1276.7414020833332,76.1323441267013L1277.37585625,73.44032242940733L1279.57204375,76.91785258054728L1280.8409520833334,73.2986696721054L1282.3050770833333,74.62106234440574L1282.4758916666667,74.74869620800013L1283.1835520833333,74.74700718466187L1284.4768625,76.39172181067983L1284.5744708333332,76.0693998569622L1284.8916979166668,76.79354046285147L1285.2333270833333,76.22051114495838L1285.8189770833333,76.44723437773058L1286.1118020833333,80.60335780540476L1286.89266875,76.91785258054728L1287.0634833333334,78.16001664428035L1287.4051124999999,76.91683916654432L1290.1625479166667,76.62643975391978L1290.4309708333333,73.92839387338603L1290.5773833333333,72.75288993073622L1291.5778687499999,74.44726184289897L1291.6754770833334,74.71902569802472L1292.0171062499999,82.50823832629243L1292.5783541666667,79.29515292914579L1295.1649750000001,78.81051583262155L1296.2142645833333,76.41576224286104L1297.28795625,75.17061423789704L1297.72719375,61.397079320624414L1298.1176270833334,71.47249763878057L1298.8496895833334,74.0858108485117L1300.5334333333333,76.46710855234409L1303.58369375,70.27604980673635L1304.6817875,75.75856326194474L1305.5846645833335,77.40755674708629L1305.6090666666666,77.7721605850383L1305.8530875000001,77.20650666905561L1306.0483041666666,75.67107185302297L1306.65835625,74.66829869709903L1308.6837291666668,76.76004149997601L1308.8057395833334,76.41576224286104L1309.1717708333333,76.05459275236348L1313.905775,70.42716109473253L1317.2732625,76.3869925453327L1322.4465041666667,77.49600526923308L1324.3498666666667,81.46554791880766L1325.6675791666667,72.59699307661498L1326.27763125,77.74992177775124L1329.35229375,76.99740557977924L1331.3288625,75.09173684800038L1332.5245645833334,77.36820250330487L1332.8173895833334,76.66134623624379L1333.2810291666667,73.15943784825498L1334.7207520833333,76.74106813780958L1337.55139375,70.65388432750473L1339.4791583333333,74.51228924142191L1340.5040458333333,77.53034874377767L1342.2609958333333,75.38371268240729L1343.4811,73.92096217069769L1344.3839770833333,76.20232599368313L1345.75049375,74.09966083988542L1346.1409270833333,77.01395800849417L1346.8729895833335,75.9014546363614L1348.6543416666666,75.05671776412049L1351.4361791666668,76.65515315067017L1353.5835625,76.97387185459951L1355.2429041666667,74.92930910363788L1355.9749666666667,76.72226367797697L1356.9998541666666,76.39442424802104L1357.46349375,76.28351171547541L1357.5122979166667,76.2777127353474L1357.6587104166667,76.87500768853346L1362.0998895833334,74.52028395188967L1366.0042229166668,76.50077641755337L1366.8826979166668,75.14054962247604L1369.6889375,76.63043710915366L1369.7865458333333,73.92839387338603L1372.0559395833334,75.53414836106816L1373.3980541666667,76.32128953747446L1374.8621791666667,78.37739394791419L1377.1803770833333,76.82506889849896L1379.57178125,76.79354046285147L1382.1584020833332,73.48755878210062L1384.0129604166666,76.60138590773562L1384.8182291666667,74.1396343922242L1385.8919208333334,76.59834566572675L1385.9895291666667,78.03142566746095L1386.1847458333334,78.0984798939898L1386.7703958333334,75.04703403031448L1389.7962541666668,77.21433247718954L1390.9431520833332,73.98233001865441L1392.5536895833334,77.6436822097748L1392.6024937500001,77.4623374040238L1395.2135166666667,74.43211693363259L1396.70204375,75.78434901824215L1398.0441583333334,76.08082891488442L1398.7274166666666,76.69912405824283L1399.5326854166667,75.05446573300281L1400.1183354166667,76.09980227705086L1400.36235625,72.30687516788015L1401.6312645833334,75.0744525091722" fill="none"></path></g></g></g></g></g></g><g transform="translate(48, 377)" clip-path="url(#clip_1)"><clipPath id="clip_1"><rect width="1464" height="22"></rect></clipPath><g><g><line x1="0" y1="0" x2="0" y2="5" style="visibility: inherit;" fill="rgb(0, 0, 0)" stroke="rgb(204, 204, 204)" stroke-width="1px"></line><line x1="122.01041666666666" y1="0" x2="122.01041666666666" y2="5" style="visibility: inherit;" fill="rgb(0, 0, 0)" stroke="rgb(204, 204, 204)" stroke-width="1px"></line><line x1="244.02083333333331" y1="0" x2="244.02083333333331" y2="5" style="visibility: inherit;" fill="rgb(0, 0, 0)" stroke="rgb(204, 204, 204)" stroke-width="1px"></line><line x1="366.03125" y1="0" x2="366.03125" y2="5" style="visibility: inherit;" fill="rgb(0, 0, 0)" stroke="rgb(204, 204, 204)" stroke-width="1px"></line><line x1="488.04166666666663" y1="0" x2="488.04166666666663" y2="5" style="visibility: inherit;" fill="rgb(0, 0, 0)" stroke="rgb(204, 204, 204)" stroke-width="1px"></line><line x1="610.0520833333334" y1="0" x2="610.0520833333334" y2="5" style="visibility: inherit;" fill="rgb(0, 0, 0)" stroke="rgb(204, 204, 204)" stroke-width="1px"></line><line x1="732.0625" y1="0" x2="732.0625" y2="5" style="visibility: inherit;" fill="rgb(0, 0, 0)" stroke="rgb(204, 204, 204)" stroke-width="1px"></line><line x1="854.0729166666667" y1="0" x2="854.0729166666667" y2="5" style="visibility: inherit;" fill="rgb(0, 0, 0)" stroke="rgb(204, 204, 204)" stroke-width="1px"></line><line x1="976.0833333333333" y1="0" x2="976.0833333333333" y2="5" style="visibility: inherit;" fill="rgb(0, 0, 0)" stroke="rgb(204, 204, 204)" stroke-width="1px"></line><line x1="1098.09375" y1="0" x2="1098.09375" y2="5" style="visibility: inherit;" fill="rgb(0, 0, 0)" stroke="rgb(204, 204, 204)" stroke-width="1px"></line><line x1="1220.1041666666667" y1="0" x2="1220.1041666666667" y2="5" style="visibility: inherit;" fill="rgb(0, 0, 0)" stroke="rgb(204, 204, 204)" stroke-width="1px"></line><line x1="1342.1145833333333" y1="0" x2="1342.1145833333333" y2="5" style="visibility: inherit;" fill="rgb(0, 0, 0)" stroke="rgb(204, 204, 204)" stroke-width="1px"></line><line x1="1464.125" y1="0" x2="1464.125" y2="5" style="visibility: inherit;" fill="rgb(0, 0, 0)" stroke="rgb(204, 204, 204)" stroke-width="1px"></line></g><g transform="translate(0, 8)"><text style="text-anchor: middle; visibility: hidden; font-family: &quot;Helvetica Neue&quot;, sans-serif; font-size: 12px; font-weight: 200;" x="0" y="0" dx="0em" dy="0.95em" fill="rgb(50, 49, 63)" stroke="none" stroke-width="1px">-5k</text><text style="text-anchor: middle; visibility: inherit; font-family: &quot;Helvetica Neue&quot;, sans-serif; font-size: 12px; font-weight: 200;" x="122.01041666666666" y="0" dx="0em" dy="0.95em" fill="rgb(50, 49, 63)" stroke="none" stroke-width="1px">0</text><text style="text-anchor: middle; visibility: inherit; font-family: &quot;Helvetica Neue&quot;, sans-serif; font-size: 12px; font-weight: 200;" x="244.02083333333331" y="0" dx="0em" dy="0.95em" fill="rgb(50, 49, 63)" stroke="none" stroke-width="1px">5k</text><text style="text-anchor: middle; visibility: inherit; font-family: &quot;Helvetica Neue&quot;, sans-serif; font-size: 12px; font-weight: 200;" x="366.03125" y="0" dx="0em" dy="0.95em" fill="rgb(50, 49, 63)" stroke="none" stroke-width="1px">10k</text><text style="text-anchor: middle; visibility: inherit; font-family: &quot;Helvetica Neue&quot;, sans-serif; font-size: 12px; font-weight: 200;" x="488.04166666666663" y="0" dx="0em" dy="0.95em" fill="rgb(50, 49, 63)" stroke="none" stroke-width="1px">15k</text><text style="text-anchor: middle; visibility: inherit; font-family: &quot;Helvetica Neue&quot;, sans-serif; font-size: 12px; font-weight: 200;" x="610.0520833333334" y="0" dx="0em" dy="0.95em" fill="rgb(50, 49, 63)" stroke="none" stroke-width="1px">20k</text><text style="text-anchor: middle; visibility: inherit; font-family: &quot;Helvetica Neue&quot;, sans-serif; font-size: 12px; font-weight: 200;" x="732.0625" y="0" dx="0em" dy="0.95em" fill="rgb(50, 49, 63)" stroke="none" stroke-width="1px">25k</text><text style="text-anchor: middle; visibility: inherit; font-family: &quot;Helvetica Neue&quot;, sans-serif; font-size: 12px; font-weight: 200;" x="854.0729166666667" y="0" dx="0em" dy="0.95em" fill="rgb(50, 49, 63)" stroke="none" stroke-width="1px">30k</text><text style="text-anchor: middle; visibility: inherit; font-family: &quot;Helvetica Neue&quot;, sans-serif; font-size: 12px; font-weight: 200;" x="976.0833333333333" y="0" dx="0em" dy="0.95em" fill="rgb(50, 49, 63)" stroke="none" stroke-width="1px">35k</text><text style="text-anchor: middle; visibility: inherit; font-family: &quot;Helvetica Neue&quot;, sans-serif; font-size: 12px; font-weight: 200;" x="1098.09375" y="0" dx="0em" dy="0.95em" fill="rgb(50, 49, 63)" stroke="none" stroke-width="1px">40k</text><text style="text-anchor: middle; visibility: inherit; font-family: &quot;Helvetica Neue&quot;, sans-serif; font-size: 12px; font-weight: 200;" x="1220.1041666666667" y="0" dx="0em" dy="0.95em" fill="rgb(50, 49, 63)" stroke="none" stroke-width="1px">45k</text><text style="text-anchor: middle; visibility: inherit; font-family: &quot;Helvetica Neue&quot;, sans-serif; font-size: 12px; font-weight: 200;" x="1342.1145833333333" y="0" dx="0em" dy="0.95em" fill="rgb(50, 49, 63)" stroke="none" stroke-width="1px">50k</text><text style="text-anchor: middle; visibility: hidden; font-family: &quot;Helvetica Neue&quot;, sans-serif; font-size: 12px; font-weight: 200;" x="1464.125" y="0" dx="0em" dy="0.95em" fill="rgb(50, 49, 63)" stroke="none" stroke-width="1px">55k</text></g><line x1="0" y1="0" x2="1464.125" y2="0" fill="rgb(0, 0, 0)" stroke="rgb(204, 204, 204)" stroke-width="1px"></line></g></g></g></g></svg>